<?xml version="1.0" encoding="UTF-8" standalone="no"?>
<!-- Generator: Adobe Illustrator 18.0.0, SVG Export Plug-In . SVG Version: 6.00 Build 0)  -->

<svg
   xmlns:dc="http://purl.org/dc/elements/1.1/"
   xmlns:cc="http://creativecommons.org/ns#"
   xmlns:rdf="http://www.w3.org/1999/02/22-rdf-syntax-ns#"
   xmlns:svg="http://www.w3.org/2000/svg"
   xmlns="http://www.w3.org/2000/svg"
   xmlns:sodipodi="http://sodipodi.sourceforge.net/DTD/sodipodi-0.dtd"
   xmlns:inkscape="http://www.inkscape.org/namespaces/inkscape"
   version="1.1"
   id="Layer_1"
   x="0px"
   y="0px"
   width="2000"
   height="1400"
   viewBox="0 0 2000 1400"
   enable-background="new 0 0 1400 1400"
   xml:space="preserve"
   sodipodi:docname="hero4.svg"
   inkscape:version="0.92.4 (5da689c313, 2019-01-14)"><metadata
   id="metadata19328"><rdf:RDF><cc:Work
       rdf:about=""><dc:format>image/svg+xml</dc:format><dc:type
         rdf:resource="http://purl.org/dc/dcmitype/StillImage" /><dc:title></dc:title></cc:Work></rdf:RDF></metadata><defs
   id="defs19326" /><sodipodi:namedview
   pagecolor="#ffffff"
   bordercolor="#666666"
   borderopacity="1"
   objecttolerance="10"
   gridtolerance="10"
   guidetolerance="10"
   inkscape:pageopacity="0"
   inkscape:pageshadow="2"
   inkscape:window-width="4096"
   inkscape:window-height="2230"
   id="namedview19324"
   showgrid="false"
   inkscape:zoom="0.67428571"
   inkscape:cx="715.11799"
   inkscape:cy="403.38983"
   inkscape:window-x="2736"
   inkscape:window-y="0"
   inkscape:window-maximized="1"
   inkscape:current-layer="Layer_1"
   borderlayer="true" />
<rect
   style="fill:#dde2e6;fill-opacity:1;fill-rule:evenodd;stroke-width:1.04406202"
   id="rect20009"
   width="2432.9204"
   height="1040.7468"
   x="-760.10284"
   y="1145.2937"
   transform="matrix(0.82032403,-0.57189902,0.5465127,0.83745081,0,0)" /><g
   id="g19321"
   transform="translate(-52,-30)">
	<g
   id="g18633"
   transform="translate(560)">
		<g
   id="g18623">
			<polygon
   points="1105.1,826 1159.8,857.6 1105.5,889.2 1050.8,857.6 "
   id="polygon18621"
   style="fill:#77d9dc" />
		</g>
		<g
   id="g18627">
			<polygon
   points="1105.5,889.2 1159.8,857.6 1159.3,889.6 1104.9,921.2 "
   id="polygon18625"
   style="fill:#4eafac" />
		</g>
		<g
   id="g18631">
			<polygon
   points="1050.8,857.6 1105.5,889.2 1104.9,921.2 1050.2,889.6 "
   id="polygon18629"
   style="fill:#58bfbf" />
		</g>
	</g>
	<g
   id="g18647"
   transform="translate(560)">
		<g
   id="g18637">
			<polygon
   points="357.3,740.1 411.9,771.7 357.6,803.3 302.9,771.7 "
   id="polygon18635"
   style="fill:#fa6b5c" />
		</g>
		<g
   id="g18641">
			<polygon
   points="357.6,803.3 411.9,771.7 411.4,866.1 357.1,897.7 "
   id="polygon18639"
   style="fill:#d75d4c" />
		</g>
		<g
   id="g18645">
			<polygon
   points="302.9,771.7 357.6,803.3 357.1,897.7 302.4,866.1 "
   id="polygon18643"
   style="fill:#bb5140" />
		</g>
	</g>
	<g
   id="g18661"
   transform="translate(560)">
		<g
   id="g18651">
			<polygon
   points="254.1,1080.4 335.5,1033.1 417.5,1080.4 336,1127.7 "
   id="polygon18649"
   style="fill:#fedb59" />
		</g>
		<g
   id="g18655">
			<polygon
   points="335.2,1151.4 336,1127.7 417.5,1080.4 416.7,1104.1 "
   id="polygon18653"
   style="fill:#b89030" />
		</g>
		<g
   id="g18659">
			<polygon
   points="253.3,1104.1 254.1,1080.4 336,1127.7 335.2,1151.4 "
   id="polygon18657"
   style="fill:#cbaf46" />
		</g>
	</g>
	<g
   id="g19295"
   transform="translate(560)">
		<g
   id="g18703">
			<g
   id="g18677">
				<g
   enable-background="new    "
   id="g18675">
					<g
   id="g18665">
						<polygon
   points="663.2,1109.9 573.3,1162.1 404,1064.4 493.9,1012.1 "
   id="polygon18663"
   style="fill:#f7f8f8" />
					</g>
					<g
   id="g18669">
						<polygon
   points="663.2,1109.9 663.2,1120.1 573.3,1172.3 573.3,1162.1 "
   id="polygon18667"
   style="fill:#5678b5" />
					</g>
					<g
   id="g18673">
						<polygon
   points="573.3,1162.1 573.3,1172.3 404,1074.6 404,1064.4 "
   id="polygon18671"
   style="fill:#91b9ff" />
					</g>
				</g>
			</g>
			<g
   id="g18701">
				<g
   id="g18681">
					<polygon
   points="596.4,1095.5 482.1,1029.5 485.7,1027.5 599.9,1093.5 "
   id="polygon18679"
   style="fill:#91b9ff" />
				</g>
				<g
   enable-background="new    "
   id="g18699">
					<g
   id="g18685">
						<polygon
   points="546.3,1085.4 542.8,1087.4 462.4,1041 465.9,1039 "
   id="polygon18683"
   style="fill:#91b9ff" />
					</g>
					<g
   id="g18689">
						<polygon
   points="607,1089.3 603.5,1091.4 489.2,1025.4 492.7,1023.4 "
   id="polygon18687"
   style="fill:#91b9ff" />
					</g>
					<g
   id="g18693">
						<polygon
   points="539.3,1089.5 535.8,1091.5 455.4,1045.1 458.9,1043 "
   id="polygon18691"
   style="fill:#91b9ff" />
					</g>
					<g
   id="g18697">
						<polygon
   points="592.8,1097.6 589.3,1099.6 475,1033.7 478.6,1031.6 "
   id="polygon18695"
   style="fill:#91b9ff" />
					</g>
				</g>
			</g>
		</g>
		<g
   id="g18719">
			<g
   enable-background="new    "
   id="g18717">
				<g
   id="g18707">
					<polygon
   points="724.5,315.5 499.9,445.3 499.7,383 724.4,253.2 "
   id="polygon18705"
   style="fill:#f7f8f8" />
				</g>
				<g
   id="g18711">
					<polygon
   points="493.1,441.4 492.9,379.1 499.7,383 499.9,445.3 "
   id="polygon18709"
   style="fill:#fa6b5c" />
				</g>
				<g
   id="g18715">
					<polygon
   points="492.9,379.1 717.6,249.2 724.4,253.2 499.7,383 "
   id="polygon18713"
   style="fill:#fa6b5c" />
				</g>
			</g>
		</g>
		<g
   id="g18733">
			<g
   id="g18723">
				<polygon
   points="517.7,412.2 517.7,406.8 706.6,297.8 706.6,303.2 "
   id="polygon18721"
   style="fill:#fa6b5c" />
			</g>
			<g
   id="g18727">
				<polygon
   points="517.8,425.2 517.8,419.8 706.6,310.8 706.6,316.2 "
   id="polygon18725"
   style="fill:#fa6b5c" />
			</g>
			<g
   id="g18731">
				<polygon
   points="517.7,393.8 517.7,384.4 706.5,275.4 706.5,284.8 "
   id="polygon18729"
   style="fill:#fa6b5c" />
			</g>
		</g>
		<g
   id="g18749">
			<g
   enable-background="new    "
   id="g18747">
				<g
   id="g18737">
					<polygon
   points="724.5,223.8 499.9,353.7 499.7,291.4 724.4,161.5 "
   id="polygon18735"
   style="fill:#f7f8f8" />
				</g>
				<g
   id="g18741">
					<polygon
   points="493.1,349.7 492.9,287.4 499.7,291.4 499.9,353.7 "
   id="polygon18739"
   style="fill:#fa6b5c" />
				</g>
				<g
   id="g18745">
					<polygon
   points="492.9,287.4 717.6,157.6 724.4,161.5 499.7,291.4 "
   id="polygon18743"
   style="fill:#fa6b5c" />
				</g>
			</g>
		</g>
		<g
   id="g18763">
			<g
   id="g18753">
				<polygon
   points="517.7,320.5 517.7,315.1 706.6,206.1 706.6,211.5 "
   id="polygon18751"
   style="fill:#fa6b5c" />
			</g>
			<g
   id="g18757">
				<polygon
   points="517.8,333.6 517.8,328.2 706.6,219.2 706.6,224.6 "
   id="polygon18755"
   style="fill:#fa6b5c" />
			</g>
			<g
   id="g18761">
				<polygon
   points="517.7,302.1 517.7,292.8 706.5,183.7 706.5,193.1 "
   id="polygon18759"
   style="fill:#fa6b5c" />
			</g>
		</g>
		<path
   d="m 431.7,597.6 c 0,0 -6.8,-0.7 -11.8,-2.5 -5,-1.8 -10.3,-1.4 -11.4,0 -1.1,1.4 5,11.1 14.3,13.2 9.3,2.1 9.3,2.1 9.3,2.1 v 2.9 c 0,0 4,1.1 8.4,0 4.4,-1.1 5.8,-5.4 5.8,-5.4 l 1.2,-5 z"
   id="path18765"
   inkscape:connector-curvature="0"
   style="fill:#325863" />
		<g
   id="g18769">
			<polygon
   points="572.5,493.2 656.9,542 656.1,827.2 571.7,778.5 "
   id="polygon18767"
   style="fill:#bb5140" />
		</g>
		<g
   id="g18773">
			<polygon
   points="656.9,542 749.9,487.9 749.1,773.2 656.1,827.2 "
   id="polygon18771"
   style="fill:#d75d4c" />
		</g>
		<g
   id="g18777">
			<polygon
   points="749.9,487.9 861.9,552.6 861.1,837.8 749.1,773.2 "
   id="polygon18775"
   style="fill:#bb5140" />
		</g>
		<polygon
   points="852.5,940.6 936.4,891.9 1029.4,837.8 1030.2,552.6 937.2,606.6 853.3,655.4 "
   id="polygon18779"
   style="fill:#d75d4c" />
		<polygon
   points="609.7,679.7 608.9,965 785.8,862.2 786.6,577 "
   id="polygon18781"
   style="fill:#b89030" />
		<g
   id="g18785">
			<polygon
   points="768.9,606.6 861.9,552.6 749.9,487.9 656.9,542 572.5,493.2 656.4,444.5 749.4,390.5 843,444.5 936.6,498.6 1030.2,552.6 937.2,606.6 853.3,655.4 "
   id="polygon18783"
   style="fill:#fa6b5c" />
		</g>
		<g
   id="g18789">
			<polygon
   points="768.9,606.6 853.3,655.4 852.5,940.6 768.1,891.9 "
   id="polygon18787"
   style="fill:#ed1c24" />
		</g>
		<g
   id="g18793">
			<polygon
   points="711.4,533.5 786.6,577 609.7,679.7 525.3,631 431.7,577 515.6,528.2 618.4,587.6 "
   id="polygon18791"
   style="fill:#fedb59" />
		</g>
		<polygon
   points="430.9,862.2 524.5,916.2 608.9,965 609.7,679.7 525.3,631 431.7,577 "
   id="polygon18795"
   style="fill:#cbaf46" />
		<g
   id="g18799">
			<polygon
   points="768.9,606.6 853.3,655.4 769.5,704.1 685.1,655.4 "
   id="polygon18797"
   style="fill:#91b9ff" />
		</g>
		<g
   id="g18803">
			<polygon
   points="769.5,704.1 853.3,655.4 852.5,940.6 768.7,989.3 "
   id="polygon18801"
   style="fill:#5678b5" />
		</g>
		<g
   id="g18807">
			<polygon
   points="685.1,655.4 769.5,704.1 768.7,989.3 684.3,940.6 "
   id="polygon18805"
   style="fill:#668ed6" />
		</g>
		<g
   id="g18829">
			<path
   d="m 501,808.7 c 0,0 3.2,-4.3 4.9,-7.7 1.7,-3.4 2.7,-5.1 3.4,-4.8 0.7,0.3 0.7,2.4 0.7,2.4 0,0 2.2,-1.9 3.4,-3.3 1.2,-1.4 2.4,-2.8 2.4,-2.8 0,0 1.9,-0.5 3.9,3.9 2,4.4 1,9.1 0,10 -1,0.9 -10.2,8.7 -15.5,8.9 -5.3,0.2 -3.2,-6.6 -3.2,-6.6 z"
   id="path18809"
   inkscape:connector-curvature="0"
   style="fill:#f0c7ad" />
			<path
   d="m 475.7,798.5 c 0,0 4.6,-2.7 8.2,-4 3.6,-1.3 5.4,-2.1 5.1,-2.8 -0.3,-0.7 -2.3,-1 -2.3,-1 0,0 2.2,-2 3.7,-3 1.5,-1 3.1,-2 3.1,-2 0,0 0.7,-1.8 -3.4,-4.4 -4.1,-2.6 -8.9,-2.1 -9.9,-1.2 -1,0.9 -9.9,9.1 -10.7,14.3 -0.8,5.2 6.2,4.1 6.2,4.1 z"
   id="path18811"
   inkscape:connector-curvature="0"
   style="fill:#f0c7ad" />
			<path
   d="m 437.9,976 c 0,0 2.2,0.7 6.8,-1 4.6,-1.7 6.8,-2.7 9.7,-2.2 2.9,0.5 1.2,3.6 0,5.1 0,0 -8,8.7 -19.7,10.9 0,0 0.5,1 -0.9,2.4 -1.4,1.4 -14.1,3.7 -14.8,-2.6 1.1,0.2 17.7,-7.6 18.9,-12.6 z"
   id="path18813"
   inkscape:connector-curvature="0"
   style="fill:#7a4b20" />
			<path
   d="m 378.9,964.5 c 0,0 2.6,-1.9 4.6,-1.7 2,0.2 1.4,3.9 1.4,7.1 0,3.2 -4.9,9 -7.7,11.1 -2.8,2.1 -6.1,7.3 -6.1,7.3 0,0 -5.4,6.8 -10.5,2.9 -0.1,0 17.9,-19.4 18.3,-26.7 z"
   id="path18815"
   inkscape:connector-curvature="0"
   style="fill:#7a4b20" />
			<path
   d="m 440.1,926.4 c -8.5,-10.7 -20.7,-20.2 -20.7,-20.2 l -4.3,-1.2 c 0,0 -12.7,-1.8 -16.5,2.4 -3.8,-6.4 -11.9,-13.1 -17.8,-8.8 0,0 -6.8,26.7 -9.9,34.7 -3.1,8 -11.1,39.5 -11.7,41.8 -0.7,2.4 -2.4,8.3 -1.9,11.6 0.5,3.3 3.2,4.6 3.2,4.6 0,0 4.4,-0.2 9.2,-5.4 4.8,-5.3 9.2,-13.9 9.2,-13.9 0,0 2.6,-12.8 4.8,-17.9 2,-4.6 13.4,-28 16.3,-37.2 6.9,11.3 25.3,28.7 25.3,28.7 -5.1,17 -6.3,43.2 -6.3,43.2 13.6,3.1 20.9,-7.8 20.9,-7.8 0,0 1,-13.6 2.7,-20.1 1.7,-6.5 5.6,-19.7 5.6,-19.7 0,0 0.4,-4.1 -8.1,-14.8 z"
   id="path18817"
   inkscape:connector-curvature="0"
   style="fill:#4b4b4b" />
			<path
   d="m 454.2,809.7 23.2,-11 -5.8,-11.2 -18.9,7.8 c 0,-0.1 -7.4,6.9 1.5,14.4 z"
   id="path18819"
   inkscape:connector-curvature="0"
   style="fill:#6e6e6e" />
			<path
   d="m 429.2,803.9 c 0,0 -4.3,-0.1 -8.5,2.5 -4.2,2.6 -24.3,17.9 -33.7,51.9 -9.4,34 -6.3,40.1 -6.3,40.1 0,0 7,6.1 13.3,11.1 6.3,4.9 8.8,5.6 8.8,5.6 0,0 11.1,-4.4 16.5,-9 0,0 -0.7,-22.6 1.9,-29.4 2.6,-6.8 9.9,-16.5 15,-29.1 5.1,-12.6 3.7,-23.6 3.7,-23.6 0,0 -10.4,-12.4 -10.7,-20.1 z"
   id="path18821"
   inkscape:connector-curvature="0"
   style="fill:#4b4b4b" />
			<path
   d="m 436.7,828.9 c 0,0 -5.4,0.2 -8,6.8 -2.6,6.6 1,10.9 5.4,11.9 4.4,1 27,-5.3 45.7,-14.3 18.7,-9 27.4,-17.3 27.4,-17.3 l -5.6,-10.9 c 0,0 -38.4,21.5 -64.9,23.8 z"
   id="path18823"
   inkscape:connector-curvature="0"
   style="fill:#6e6e6e" />
			<path
   d="m 459.1,791.6 v 16.5 c 0,0 -1.4,9.4 -12.5,9.1 l -6.7,6.8 c 0,0 -9,-4.7 -9.8,-12.5 -0.8,-7.8 10.3,-19.4 10.3,-19.4 0,0 14.6,-7 18.7,-0.5 z"
   id="path18825"
   inkscape:connector-curvature="0"
   style="fill:#f0c7ad" />
			<path
   d="m 430.1,811.6 c -3.4,-3.8 -4.4,-11.5 -4,-16.8 0.4,-5.3 3.7,-14.4 13.3,-16.8 9.6,-2.4 15.5,3.4 17.2,5.7 1.7,2.4 5.3,3 5.3,3 0.3,1.1 0.3,4.2 -2.9,4.8 -3.2,0.6 -7.8,4 -7.8,4 0,0 -1.6,1.4 -2.8,2.7 0,0 -1.7,2.4 -1.3,4.9 0,0 -5.9,8.9 -17,8.5 z"
   id="path18827"
   inkscape:connector-curvature="0"
   style="fill:#4c3829" />
		</g>
		<g
   id="g18899">
			<polygon
   points="1075,904.7 1074.1,914.5 1026,941.9 1026,932.1 "
   id="polygon18831"
   style="fill:#eda76a" />
			<polygon
   points="1032.8,774.1 1031.9,783.9 983.8,811.3 983.8,801.6 "
   id="polygon18833"
   style="fill:#eda76a" />
			<polygon
   points="1048.4,817.6 1047.5,827.4 999.4,854.8 999.4,845.1 "
   id="polygon18835"
   style="fill:#eda76a" />
			<polygon
   points="1087.9,940.6 1086.9,950.5 1038.9,977.9 1038.9,968.1 "
   id="polygon18837"
   style="fill:#eda76a" />
			<polygon
   points="998.4,655.6 997.5,665.4 949.4,692.8 949.4,683.1 "
   id="polygon18839"
   style="fill:#eda76a" />
			<polygon
   points="1010.4,695.4 1009.4,705.2 961.4,732.6 961.4,722.9 "
   id="polygon18841"
   style="fill:#eda76a" />
			<polygon
   points="1064.4,863.5 1063.5,873.3 1015.4,900.8 1015.4,891 "
   id="polygon18843"
   style="fill:#eda76a" />
			<g
   id="g18851">
				<polygon
   points="967.5,583.3 973.9,587.7 982.9,582.5 976.5,578 "
   id="polygon18845"
   style="fill:#f7b07c" />
				<polygon
   points="989.1,620.6 973.9,587.7 967.5,583.3 1088.1,968.9 1094.2,971 "
   id="polygon18847"
   style="fill:#eda76a" />
				<polygon
   points="982.9,582.5 1103.2,965.8 1094.2,971 973.9,587.7 "
   id="polygon18849"
   style="fill:#af7c44" />
			</g>
			<polygon
   points="998.4,658.1 1004.7,663.7 949.4,695.3 949.4,685.6 "
   id="polygon18853"
   style="fill:#af7c44" />
			<polygon
   points="1010.4,697.9 1016.7,703.5 961.4,735.1 961.4,725.4 "
   id="polygon18855"
   style="fill:#af7c44" />
			<polygon
   points="1020.8,732.6 1019.8,742.4 971.8,769.9 971.8,760.1 "
   id="polygon18857"
   style="fill:#eda76a" />
			<polygon
   points="1020.8,735.1 1027.1,740.8 971.8,772.4 971.8,762.6 "
   id="polygon18859"
   style="fill:#af7c44" />
			<polygon
   points="1032.8,776.6 1039.1,782.3 983.8,813.9 983.8,804.1 "
   id="polygon18861"
   style="fill:#af7c44" />
			<polygon
   points="1048.4,820.1 1054.8,825.8 999.4,857.4 999.4,847.6 "
   id="polygon18863"
   style="fill:#af7c44" />
			<polygon
   points="1064.4,866 1070.8,871.7 1015.4,903.3 1015.4,893.5 "
   id="polygon18865"
   style="fill:#af7c44" />
			<polygon
   points="1075,907.2 1081.3,912.8 1026,944.4 1026,934.7 "
   id="polygon18867"
   style="fill:#af7c44" />
			<polygon
   points="1087.9,943.2 1094.2,948.8 1038.9,980.4 1038.9,970.7 "
   id="polygon18869"
   style="fill:#af7c44" />
			<g
   id="g18877">
				<polygon
   points="914.5,612.5 920.9,616.9 929.9,611.7 923.5,607.2 "
   id="polygon18871"
   style="fill:#f7b07c" />
				<polygon
   points="936.1,649.8 920.9,616.9 914.5,612.5 1035,998.1 1041.2,1000.3 "
   id="polygon18873"
   style="fill:#eda76a" />
				<polygon
   points="929.9,611.7 1050.2,995.1 1041.2,1000.3 920.9,616.9 "
   id="polygon18875"
   style="fill:#af7c44" />
			</g>
			<path
   d="m 1042.4,863.8 c 0,0 5.3,2.3 6.3,5.3 1,3 0.5,6.8 -1.5,8.3 -2,1.5 -7.3,2 -11.3,4.5 -4,2.5 -7.5,7.3 -10.8,8 -3.3,0.8 -9.8,-1.8 -8.3,-5 1.5,-3.3 10,-10 10,-10 z"
   id="path18879"
   inkscape:connector-curvature="0"
   style="fill:#de600c" />
			<path
   d="m 1073.3,920 c 0,0 0.3,3.5 0,7.5 -0.3,4 -2.8,5 -8,3.8 -5.3,-1.3 -5,-6.5 -10.8,-8.8 -5.8,-2.3 -9,-0.5 -10.8,-2.5 -1.8,-2 0.8,-4.5 5.5,-6.3 4.7,-1.8 13.5,0 13.5,0 z"
   id="path18881"
   inkscape:connector-curvature="0"
   style="fill:#de600c" />
			<path
   d="m 1011,796.1 c 11.5,0 34.6,4 34.6,4 l 16.8,10.5 21.1,-3.5 c 0,0 -1.3,15.6 -5,27.3 -3.8,11.8 -2.5,30.4 -2,35.1 0.5,4.8 0.3,37.9 -3.3,50.4 0,0 -6.3,3 -11,0 -4.7,-3 -5.5,-5 -5.5,-5 0,0 0.8,-28.4 0,-36.9 -0.6,-6.6 -4.7,-27.9 -5.9,-42.6 -12.6,0.2 -25.3,-9.6 -25.3,-9.6 0,0 11.1,22.3 13.5,26.8 2.3,4.5 5.4,11.5 5.4,11.5 0,0 -9,9.6 -18.8,10.9 0,0 -10.8,-24.6 -16.8,-35.4 -6,-10.8 -14.3,-25.6 -14.1,-32.6 0.3,-6.9 4.8,-10.9 16.3,-10.9 z"
   id="path18883"
   inkscape:connector-curvature="0"
   style="fill:#0f5b78" />
			<path
   d="m 1031.1,731.8 -2.4,-2.5 c 0,0 -8.2,-0.7 -11.1,0 -2.9,0.7 -11.8,3.4 -12,7.9 -0.2,4.5 2.4,2.4 6.9,0 4.5,-2.4 5.5,-0.7 5.9,0 0.3,0.7 2.1,4.3 0,6.1 -2.1,1.8 -2.8,1.1 -3.7,3.6 -0.9,2.5 2.7,0.8 6.2,-2.7 3.6,-3.4 7.8,-6.3 7.8,-6.3 z"
   id="path18885"
   inkscape:connector-curvature="0"
   style="fill:#f0c6ad" />
			<path
   d="m 1048,724.3 c 0,0 -16.6,2.3 -19.6,4.5 v 9.8 c 0,0 15.4,0.8 19.6,3 4.2,2.3 7.2,-8.7 7.2,-8.7 z"
   id="path18887"
   inkscape:connector-curvature="0"
   style="fill:#3cde7a" />
			<path
   d="m 1049.7,702.4 c 0,0 -7.2,4.1 -8.7,7.2 -1.5,3 0,13.2 2.3,14.7 2.3,1.5 1.7,7.9 1.8,12.4 0,0 7.7,2.3 13.3,0 5.7,-2.3 6.8,-9.8 6.8,-9.8 z"
   id="path18889"
   inkscape:connector-curvature="0"
   style="fill:#f0c6ad" />
			<path
   d="m 1068.3,723.3 c 0,0 9,2 13.8,6.5 4.8,4.5 3.8,19.3 1.5,24.6 -2.3,5.3 -1.3,47.9 0,52.7 0,0 -4,10 -12.8,13.3 -8.8,3.3 -18.8,4 -26.3,0 -7.5,-4 -8.3,-10 -8.3,-10 0,0 1.8,-17.1 1,-27.9 -0.8,-10.8 -8.3,-30.6 0.8,-39.4 9,-8.8 15.8,-11.5 15.8,-11.5 0,0 9.9,-0.6 14.5,-8.3 z"
   id="path18891"
   inkscape:connector-curvature="0"
   style="fill:#3cde7a" />
			<path
   d="m 980.2,758.7 -1.5,-5.5 c 0,0 -1.5,-5 -4,-6.8 -2.5,-1.8 -1.5,0.4 -4.8,2.4 -3.3,1.9 -8.3,2.9 -11.5,1.4 -3.2,-1.5 -4.3,0 -2.8,4 1.5,4 2.8,14.1 23.1,9 z"
   id="path18893"
   inkscape:connector-curvature="0"
   style="fill:#f0c6ad" />
			<path
   d="m 1036.9,750.4 c 0,0 -2,-3.8 -9.3,0 -7.3,3.8 -13,15.1 -24.6,13.3 -11.5,-1.8 -24.3,-10.5 -24.3,-10.5 0,0 -7.3,5.8 -2.3,12.5 0,0 10,14.6 29.4,15.8 19.3,1.3 40.1,-18.3 31.1,-31.1 z"
   id="path18895"
   inkscape:connector-curvature="0"
   style="fill:#3cde7a" />
			<path
   d="m 1048.2,708.7 c 0,0 -1.6,-6.5 4.6,-10 6.2,-3.5 12.7,5.3 16.2,8 3.5,2.8 5.3,12.8 2.8,17.3 -2.5,4.5 -5.3,7 -11.3,7.5 -6,0.5 -9.5,-6.3 -9.3,-10.3 0.2,-3.9 -3,-12.5 -3,-12.5 z"
   id="path18897"
   inkscape:connector-curvature="0"
   style="fill:#4c3829" />
		</g>
		<g
   id="g18921">
			<path
   d="m 479.8,454.4 -3,-4.6 c 0,0 -2.3,3.7 -4.6,-2 -2.3,-5.6 1.9,-7.9 4.6,-11 2.7,-3 17.5,-12.2 24,-8.8 6.5,3.4 10.3,10.7 9.9,16.4 -0.4,5.7 -1.5,17.1 -1.5,17.1 l -7.6,5.7 -5.7,-1.5 z"
   id="path18901"
   inkscape:connector-curvature="0"
   style="fill:#4c3829" />
			<polygon
   points="480.2,509.2 484.4,503.9 465.5,499.7 426.8,526.5 465.5,537.8 484.4,519.5 "
   id="polygon18903"
   style="fill:#4b4b4b" />
			<polygon
   points="465.5,499.7 465.5,461.6 426.8,488.6 426.8,526.5 "
   id="polygon18905"
   style="fill:#4b4b4b" />
			<polygon
   points="461.9,498.6 461.9,467.7 430.5,489.7 430.5,520.4 "
   id="polygon18907"
   style="fill:#4382e9" />
			<path
   d="m 490.5,528.3 c 0,0 -26.7,10.3 -37,6.9 0,0 -9.1,0 -14.1,8.4 -5,8.4 -7.2,24.8 -7.2,30.1 0,0.7 0,1.8 -0.1,3.1 l 21.5,-12.5 c 0.2,-4.7 1.5,-4.7 1.5,-4.7 0,0 22.5,16.9 39.8,21.8 l 5.9,-49.2 z"
   id="path18909"
   inkscape:connector-curvature="0"
   style="fill:#325863" />
			<path
   d="m 476.8,449.8 c 0,0 3,16 7.2,21.7 4.2,5.7 13.3,1.5 13.3,1.5 v 6.1 l 11.8,-4.6 v -13 c 0,0 -9.1,3 -12.6,-1.5 -3.4,-4.6 -5.3,-14.5 -8.4,-11.8 -3,2.7 -2.3,5 -2.3,5 0,0 -6,1.2 -9,-3.4 z"
   id="path18911"
   inkscape:connector-curvature="0"
   style="fill:#f0c7ad" />
			<path
   d="m 480.2,506.5 -5,-2.7 c 0,0 -7.2,-2.3 -9.7,-1.5 -2.5,0.8 -8.6,2.3 -5.9,4.2 2.7,1.9 3.8,0 5.9,0 2.1,0 1.4,4.2 4.1,5.1 2.7,0.9 4.9,2.5 7.2,0 2.3,-2.4 3.4,-5.1 3.4,-5.1 z"
   id="path18913"
   inkscape:connector-curvature="0"
   style="fill:#f0c7ad" />
			<path
   d="m 449.8,530.2 c 0,0 0,0 0,0 -2.9,0 -4.7,-3.5 -5.8,-4.9 -0.5,-0.2 -1.1,-0.3 -1.7,-0.3 -0.7,0.5 -1.2,1.7 -1.1,2.2 0.2,1 -0.2,2.5 -0.7,2.5 -0.5,0 -2.3,-0.4 -2.3,-0.4 -1.4,-0.4 -3.2,-1.1 -4.3,-1.8 -1.9,-1.3 -3.4,0.6 -3.4,0.6 0.5,7.9 4.7,8.9 4.7,8.9 v 0 c 0.9,0.5 2.1,1 3.7,1.5 7.6,2.4 15.6,-1.6 15.6,-1.6 v -5.3 c 0,0.2 -2.5,-0.4 -4.7,-1.4 z"
   id="path18915"
   inkscape:connector-curvature="0"
   style="fill:#f0c7ad" />
			<polygon
   points="479.8,519.5 484.4,503.9 475.2,503.9 475.2,514.5 "
   id="polygon18917"
   style="fill:#4382e9" />
			<path
   d="m 501.9,474.5 c 0,0 -9.9,4.2 -14.5,12.2 -4.6,8 -7.2,19.8 -7.2,19.8 l -8.7,20.6 c 0,0 -18.4,0.4 -22.6,0 l -1.5,13.7 c 0,0 10.7,2.3 19,3.8 8.3,1.5 17.1,-1.1 18.3,-5 1.1,-3.8 3,-4.6 3,-4.6 0,0 1.1,11.8 -2.7,19 -3.8,7.2 -3.8,12.2 -3.8,12.2 0,0 4.2,13.7 18.3,16.4 14.1,2.7 32.4,-10.3 32.4,-10.3 0,0 1.1,-34.3 1.5,-47.2 0.4,-13 -0.8,-41.9 -5,-48.4 -4.2,-6.5 -13,-6.9 -14.9,-6.9 -1.7,0.2 -8.6,3.2 -11.6,4.7 z"
   id="path18919"
   inkscape:connector-curvature="0"
   style="fill:#4382e9" />
		</g>
		<g
   id="g18949">
			<path
   d="m 1045.4,1080.2 c 0,0 -3.8,0.9 -4.9,4.6 -1.1,3.7 1.4,6.5 1.9,7.6 0.6,1.1 2.6,1.4 3,2 0.4,0.6 2.7,1.7 4.1,1.4 1.4,-0.3 3.4,-6.8 2,-11 -1.4,-4.2 -6.1,-4.6 -6.1,-4.6 z"
   id="path18923"
   inkscape:connector-curvature="0"
   style="fill:#fcb794" />
			<path
   d="m 1102.2,1103.2 c 2.1,-9.5 0.6,-30 0.6,-30 0,0 -12.9,-2.5 -18.3,10 -6.6,-3.5 -28.2,-1.4 -28.2,-1.4 0,0 -7,23.5 -8.1,33.9 -1.2,10.4 2.3,23.8 6.4,33.6 4,9.8 7.9,38.6 8.2,40.4 0.3,1.8 0,5 0,5 l 10.7,-12.8 c 0,0 -0.9,-19.6 -2.1,-30.6 -1.2,-11 -2.5,-22.3 -2.5,-22.3 0,0 6,-19 10.3,-25 l 2,-3.3 c 0,0 0.3,-0.4 0.7,-1 -0.8,20.5 2.3,41.5 2.6,46.8 0.3,5.9 0,35.9 0,35.9 l 8.3,3 c 0,0 0,-4.8 2.7,-18.1 2.7,-13.3 4.2,-46.6 4.5,-52.6 0.1,-5.9 0.1,-2 2.2,-11.5 z"
   id="path18925"
   inkscape:connector-curvature="0"
   style="fill:#4b4b4b" />
			<path
   d="m 1064.4,984.2 0.2,-2.1 c 0,0 -2.4,-4.7 -4.7,-6.7 -2.2,-2.1 -9.6,-6.4 -11.1,-7.1 -1.5,-0.7 -3.6,-1.9 -5.5,-1.9 -1.9,0 -0.6,3 2.9,5.2 3.5,2.2 5.2,3.7 5.2,3.7 0,0 0.6,2.5 -0.7,2.5 -1.3,0 -1.9,1.5 -1.9,1.5 0,0 0.6,3.7 1.9,4.9 1.3,1.2 4.7,4.2 4.7,4.2 l 11.1,5.6 z"
   id="path18927"
   inkscape:connector-curvature="0"
   style="fill:#fcb794" />
			<path
   d="m 1068.3,1018.1 c 0,0 -9.6,-19.6 -10.8,-22.6 -1.2,-3.1 -3.1,-7.5 -3.1,-7.5 l 10,-6.9 c 0,0 13,14.5 13.7,14.9 0.6,0.4 7.5,14.7 7.5,15.5 0,0.8 -3.2,10.4 -3.2,10.4 z"
   id="path18929"
   inkscape:connector-curvature="0"
   style="fill:#fedb59" />
			<path
   d="m 1070.4,1011.8 c 0,-3.1 0,-6.6 0,-6.6 -5,-4.6 -3.9,-11.2 -3.9,-11.2 l -0.1,-3.2 c 0,0 3.5,5.1 5.8,7 2.3,1.9 3,8.6 10.3,9.6 0,0 3.3,9.6 -4,8.2 -7.2,-1.4 -8.1,-3.8 -8.1,-3.8 z"
   id="path18931"
   inkscape:connector-curvature="0"
   style="fill:#fcb794" />
			<path
   d="m 1068.5,996.9 c -0.3,-0.6 -2.1,-6.1 -2.1,-6.1 0,0 -1.2,-2.3 0,-7.5 1.2,-5.1 6.8,-8.9 12.8,-8.4 6.1,0.5 16.6,4.7 15.7,15.9 0,0 3.7,2.3 5.4,11 1.6,8.6 -2.1,13.8 -5.8,17.3 -3.7,3.5 -4.4,9.1 -4.4,9.1 0,0 -8.9,-6.3 -7.5,-20.8 0,0 -8.7,1.4 -14.1,-10.5 z"
   id="path18933"
   inkscape:connector-curvature="0"
   style="fill:#432312" />
			<path
   d="m 1098.7,1009.5 c 12.9,8.4 2.6,22 -0.2,30.4 -2.8,8.4 -1.9,19.2 2.3,23.4 4.2,4.2 4.3,10.8 4.3,10.8 -1.2,3 -12.4,20.3 -31.6,18 -19.2,-2.3 -20.3,-12.4 -20.3,-12.4 0,0 0.5,-7.5 4.3,-15.4 3.8,-7.9 1.4,-15.9 0.4,-25 -0.9,-9.1 0,-18.2 0,-18.2 11.9,-11.5 27.3,-14.3 27.3,-14.3 z"
   id="path18935"
   inkscape:connector-curvature="0"
   style="fill:#fedb59" />
			<path
   d="m 1053.1,1026.4 c 0,0 2.9,-6.8 7.3,-4.6 4.4,2.2 7.6,4 8.2,8.1 0.6,4.1 -2.7,20.6 -2.2,24.7 0.4,4.1 -2.8,11.8 -4.8,15.6 -2.1,3.8 -9.7,18.2 -9.7,18.2 l -8.2,-6.2 c 0,0 5.9,-18.7 6.4,-22.3 0.6,-3.5 3,-19.1 3,-19.1 z"
   id="path18937"
   inkscape:connector-curvature="0"
   style="fill:#fedb59" />
			<path
   d="m 1090,1028.2 c 0,0 0.7,-5.6 4.4,-9.1 3.7,-3.5 7.5,-8.6 5.8,-17.3 -1.6,-8.6 -5.4,-11 -5.4,-11 0,0 -9.1,-0.2 -12.4,16.6 -1.2,14.5 7.6,20.8 7.6,20.8 z"
   id="path18939"
   inkscape:connector-curvature="0"
   style="fill:#35190d" />
			<path
   d="m 1086.5,1191.9 c 0,0 2.1,-0.3 4,2.7 1.9,3.1 1.6,5 1.6,5 h 3.1 c 0,0 1,-7.5 -0.7,-10.2 -1.7,-2.7 -7.5,-0.7 -8,2.5 z"
   id="path18941"
   inkscape:connector-curvature="0"
   style="fill:#343254" />
			<path
   d="m 1087.8,1181.9 c 0,0 -2.1,-0.8 -3.5,0.6 -1.4,1.4 -1,7.3 -6.1,8.6 -5.1,1.3 -1.4,8.1 -1.4,8.1 0,0 4.2,1.1 6.6,0 2.4,-1.1 2.8,-10.3 11.2,-9.7 0,0 1.8,-9.2 -6.8,-7.6 z"
   id="path18943"
   inkscape:connector-curvature="0"
   style="fill:#6e6e6e" />
			<path
   d="m 1070.2,1195.6 c 0,0 3.4,2.4 3.1,5.8 -0.3,3.4 0,5.8 0,5.8 h 4.8 c 0,0 0.6,-10.7 -1,-14.9 -1.7,-4.1 -6.9,3.3 -6.9,3.3 z"
   id="path18945"
   inkscape:connector-curvature="0"
   style="fill:#343254" />
			<path
   d="m 1071.2,1182.6 c 0,0 -3.3,1.4 -5.4,6 -2.1,4.6 -3.9,7.3 -6.6,7.6 -2.7,0.3 -5.2,0.6 -7,2.1 0,0 -1.2,3.4 0.6,6 1.8,2.5 5.9,3.6 8.7,2.5 2.8,-1 5.9,-8.7 9.7,-11.2 3.8,-2.5 6.1,-2.1 6.6,-1.9 0.4,0.1 1.6,-9.4 -4.5,-11.8 z"
   id="path18947"
   inkscape:connector-curvature="0"
   style="fill:#6e6e6e" />
		</g>
		<g
   id="g18967">
			<polygon
   points="409.3,1021 445.4,993.3 477.8,1010.9 441.8,1038.6 "
   id="polygon18951"
   style="fill:#e5e5e5" />
			<path
   d="m 447.2,1041.5 c 0,0 5,-0.9 7.9,-1.9 2.8,-1.1 7.5,-5.1 8.1,-6.7 0.5,-1.6 1.2,-8.1 0,-9.5 -1.2,-1.4 -5.8,3.5 -7.6,5.1 -1.8,1.6 -1.8,1.6 -1.8,1.6 0,0 1.4,-4.2 1.1,-5.3 -0.4,-1.1 -2.5,-1.2 -4.9,1.4 -2.5,2.6 -8.9,8.4 -8.9,8.4 z"
   id="path18953"
   inkscape:connector-curvature="0"
   style="fill:#e9b488" />
			<path
   d="m 404.5,1211.2 1.7,1.1 c 0,0 4,0.6 8.5,-0.6 4.6,-1.1 9.7,-0.9 8.8,3.4 -0.9,4.3 -8.2,7.7 -11.4,9.1 -3.1,1.4 -9.4,3.4 -10.2,4.6 -0.9,1.1 -2.3,2.8 -7.1,1.7 -4.8,-1.1 -5,-3.1 -5,-3.1 v -17.6 z"
   id="path18955"
   inkscape:connector-curvature="0"
   style="fill:#031e6c" />
			<path
   d="m 376.6,1197.8 c 0,0 5.7,-2.8 7.7,-2.6 2,0.3 4.3,3.4 0,8 -4.3,4.6 -6,6.5 -7.7,10 -1.7,3.4 -2.8,6 -6.8,5.7 -1.2,-0.1 -2.3,-0.4 -3.3,-0.8 -2.5,-1 -4.1,-3.4 -4.1,-6.1 v -9.1 l 12.2,-5.7 z"
   id="path18957"
   inkscape:connector-curvature="0"
   style="fill:#031e6c" />
			<path
   d="m 415.9,1101.7 1.3,4.3 c 0,0 -0.5,25.3 -4.4,43.5 -4,18.2 -6.5,62.9 -6.5,62.9 0,0 -0.9,4.3 -6.3,4.6 -5.4,0.3 -10.8,-3.1 -10.8,-3.1 0,0 -0.9,-26.5 0,-42.1 0.9,-15.6 1.8,-25 -0.4,-33 0,0 -1.9,17.4 -4.7,27.9 -2.8,10.5 -5.4,29 -6.5,37 0,0 -1.1,5.1 -5.4,5.1 -4.3,0 -5.7,-0.9 -8.5,-4.3 0,0 -1.4,-25.3 -1.1,-36.4 0.3,-11.1 6.3,-26.5 6.3,-26.5 0,0 -1.4,-40.1 -0.9,-50.9 0.6,-10.8 19.6,-18.5 19.6,-18.5 z"
   id="path18959"
   inkscape:connector-curvature="0"
   style="fill:#a78264" />
			<path
   d="m 410.5,963.5 v 20.8 c 0,0 0.3,7.1 -2.6,8.2 -2.8,1.1 -6.3,0 -6.3,0 v 6.3 c 0,0 -8.2,1.7 -14.8,-3.1 v -6.5 l 10.2,-21 c 0.1,-0.2 10.6,-6.7 13.5,-4.7 z"
   id="path18961"
   inkscape:connector-curvature="0"
   style="fill:#e9b488" />
			<path
   d="m 401.6,998.7 c 0,0 9.1,3.4 14.5,8.5 5.4,5.1 4.8,14.8 5.4,22.5 0.6,7.7 1.7,12.8 1.7,12.8 0,0 14.8,-8.8 16.5,-9.4 0,0 9.4,2 7.1,11.1 0,0 -11.4,8 -17.6,12.2 -6.3,4.3 -11.9,8 -15.9,8 0,0 1.4,8 4,17.6 2.6,9.7 1.7,23 1.7,23 0,0 -10.2,5.7 -19.3,4.8 -9.1,-0.9 -12.8,-3.7 -12.8,-3.7 l -4.3,-17.1 v 14.2 c 0,0 -10.5,-5.1 -14.8,-12.8 0,0 0.6,-15.9 1.7,-21.3 1.1,-5.4 -6.5,-25.6 -8.8,-33.6 -2.3,-8 3.1,-33.3 5.4,-38.4 2.3,-5.1 11.4,-10 20.8,-5.4 z"
   id="path18963"
   inkscape:connector-curvature="0"
   style="fill:#656356" />
			<path
   d="m 410.5,963.5 c 0,0 0.6,-4.8 -4,-7.7 -4.6,-2.8 -12.8,-3.1 -18.5,0 -5.7,3.1 -10,7.7 -9.4,17.4 0.6,9.7 8.2,17.4 8.2,17.4 0,0 3.1,0.9 9.7,-6 6.5,-6.8 8.1,-15.7 9.7,-18.5 1.6,-2.9 4.3,-2.6 4.3,-2.6 z"
   id="path18965"
   inkscape:connector-curvature="0"
   style="fill:#713d23" />
		</g>
		<g
   id="g19095">
			<g
   id="g18981">
				<g
   id="g18979">
					<path
   d="m 689.2,1012.7 c 0,0.1 0,0.3 0,0.4 0,0.1 0,0.2 0,0.4 0,0.1 0,0.3 -0.1,0.4 0,0.1 0,0.2 -0.1,0.4 0,0.1 -0.1,0.3 -0.1,0.4 0,0.1 -0.1,0.2 -0.1,0.4 0,0.1 -0.1,0.3 -0.1,0.4 0,0.1 -0.1,0.2 -0.1,0.3 -0.1,0.1 -0.1,0.3 -0.2,0.4 -0.1,0.1 -0.1,0.2 -0.2,0.3 -0.1,0.1 -0.1,0.3 -0.2,0.4 -0.1,0.1 -0.1,0.2 -0.2,0.3 -0.1,0.2 -0.2,0.3 -0.3,0.5 -0.1,0.1 -0.1,0.2 -0.2,0.3 -0.1,0.2 -0.2,0.3 -0.4,0.5 -0.1,0.1 -0.1,0.2 -0.2,0.2 -0.2,0.3 -0.5,0.5 -0.7,0.8 -0.1,0.1 -0.1,0.1 -0.2,0.2 -0.2,0.2 -0.4,0.4 -0.6,0.6 -0.1,0.1 -0.2,0.2 -0.3,0.3 -0.1,0.1 -0.3,0.2 -0.4,0.3 -0.1,0.1 -0.2,0.2 -0.4,0.3 -0.1,0.1 -0.3,0.2 -0.4,0.3 -0.1,0.1 -0.3,0.2 -0.4,0.3 -0.1,0.1 -0.3,0.2 -0.5,0.3 -0.1,0.1 -0.3,0.2 -0.4,0.3 -0.2,0.1 -0.3,0.2 -0.5,0.3 -0.2,0.1 -0.4,0.3 -0.6,0.4 -0.6,0.3 -1.2,0.7 -1.8,1 -0.2,0.1 -0.3,0.2 -0.5,0.2 -0.6,0.3 -1.1,0.5 -1.7,0.7 -0.1,0 -0.2,0.1 -0.2,0.1 -0.6,0.2 -1.3,0.5 -1.9,0.7 -0.5,0.1 -0.9,0.3 -1.4,0.4 -0.4,0.1 -0.7,0.2 -1.1,0.3 -0.5,0.1 -1,0.2 -1.5,0.3 -0.4,0.1 -0.7,0.2 -1.1,0.2 -0.2,0 -0.3,0 -0.5,0.1 -0.6,0.1 -1.2,0.2 -1.9,0.3 -0.2,0 -0.4,0 -0.6,0.1 -0.4,0 -0.7,0.1 -1.1,0.1 -0.6,0.1 -1.2,0.1 -1.8,0.1 -0.4,0 -0.8,0 -1.2,0 -0.5,0 -1,0 -1.5,0 -0.4,0 -0.8,0 -1.2,0 -0.5,0 -0.9,0 -1.4,-0.1 -0.4,0 -0.8,-0.1 -1.3,-0.1 -0.5,0 -0.9,-0.1 -1.3,-0.2 -0.4,-0.1 -0.8,-0.1 -1.2,-0.2 -0.5,-0.1 -1,-0.2 -1.4,-0.2 -0.4,-0.1 -0.8,-0.1 -1.1,-0.2 -0.6,-0.1 -1.1,-0.3 -1.7,-0.4 -0.4,-0.1 -0.7,-0.2 -1.1,-0.3 -0.2,-0.1 -0.4,-0.1 -0.6,-0.2 -0.6,-0.2 -1.1,-0.4 -1.6,-0.6 -0.2,-0.1 -0.3,-0.1 -0.5,-0.2 -0.5,-0.2 -1,-0.4 -1.4,-0.6 -0.2,-0.1 -0.5,-0.2 -0.7,-0.3 -0.7,-0.3 -1.3,-0.7 -2,-1 -3.7,-2.1 -6.1,-4.7 -7.2,-7.4 -0.5,-1.2 -0.8,-2.5 -0.8,-3.8 v 7.6 c 0,4 2.7,8.1 8,11.2 0.6,0.4 1.3,0.7 2,1 0.2,0.1 0.5,0.2 0.7,0.3 0.4,0.2 0.8,0.4 1.2,0.5 0.1,0 0.1,0.1 0.2,0.1 0.2,0.1 0.3,0.1 0.5,0.2 0.5,0.2 1.1,0.4 1.6,0.6 0.2,0.1 0.4,0.1 0.6,0.2 0.1,0 0.3,0.1 0.4,0.1 0.2,0.1 0.5,0.1 0.7,0.2 0.6,0.1 1.1,0.3 1.7,0.4 0.2,0 0.3,0.1 0.4,0.1 0.2,0 0.5,0.1 0.7,0.1 0.5,0.1 1,0.2 1.4,0.2 0.2,0 0.4,0.1 0.6,0.1 0.2,0 0.4,0 0.6,0.1 0.4,0.1 0.9,0.1 1.3,0.2 0.2,0 0.4,0.1 0.6,0.1 0.2,0 0.4,0 0.6,0 0.5,0 0.9,0.1 1.4,0.1 0.2,0 0.5,0 0.7,0 0.2,0 0.4,0 0.6,0 0.5,0 1,0 1.5,0 0.2,0 0.5,0 0.7,0 0.1,0 0.3,0 0.4,0 0.6,0 1.2,-0.1 1.8,-0.1 0.2,0 0.5,0 0.7,0 0.1,0 0.2,0 0.4,0 0.2,0 0.4,0 0.5,-0.1 0.6,-0.1 1.3,-0.2 1.9,-0.3 0.2,0 0.3,0 0.5,-0.1 0.1,0 0.1,0 0.2,0 0.3,-0.1 0.6,-0.1 0.9,-0.2 0.5,-0.1 1,-0.2 1.5,-0.3 0.4,-0.1 0.7,-0.2 1.1,-0.3 0.5,-0.1 0.9,-0.3 1.4,-0.4 0.1,0 0.2,-0.1 0.3,-0.1 0.6,-0.2 1.1,-0.4 1.6,-0.6 0.1,0 0.2,-0.1 0.2,-0.1 0.6,-0.2 1.2,-0.5 1.7,-0.7 0.2,-0.1 0.3,-0.2 0.5,-0.2 0.6,-0.3 1.2,-0.6 1.8,-1 0.1,-0.1 0.2,-0.1 0.3,-0.2 0.1,-0.1 0.2,-0.1 0.3,-0.2 0.2,-0.1 0.3,-0.2 0.5,-0.3 0.1,-0.1 0.3,-0.2 0.4,-0.3 0.2,-0.1 0.3,-0.2 0.5,-0.3 0.1,-0.1 0.3,-0.2 0.4,-0.3 0.1,-0.1 0.3,-0.2 0.4,-0.3 0.1,-0.1 0.3,-0.2 0.4,-0.3 0.1,-0.1 0.3,-0.2 0.4,-0.3 0.1,0 0.1,-0.1 0.2,-0.1 0,0 0.1,-0.1 0.1,-0.1 0.2,-0.2 0.4,-0.4 0.6,-0.6 0.1,-0.1 0.1,-0.1 0.2,-0.2 0.2,-0.3 0.5,-0.5 0.7,-0.8 0,0 0,0 0,0 0.1,-0.1 0.1,-0.1 0.1,-0.2 0.1,-0.2 0.3,-0.3 0.4,-0.5 0.1,-0.1 0.1,-0.2 0.2,-0.3 0.1,-0.2 0.2,-0.3 0.3,-0.5 0,0 0.1,-0.1 0.1,-0.1 0,-0.1 0.1,-0.1 0.1,-0.2 0.1,-0.1 0.1,-0.3 0.2,-0.4 0.1,-0.1 0.1,-0.2 0.2,-0.3 0.1,-0.1 0.1,-0.3 0.2,-0.4 0,-0.1 0.1,-0.1 0.1,-0.2 0,-0.1 0,-0.1 0.1,-0.2 0,-0.1 0.1,-0.3 0.1,-0.4 0,-0.1 0.1,-0.2 0.1,-0.4 0,-0.1 0.1,-0.3 0.1,-0.4 0,-0.1 0,-0.1 0.1,-0.2 0,0 0,-0.1 0,-0.1 0,-0.1 0,-0.3 0.1,-0.4 0,-0.1 0,-0.2 0,-0.4 0,-0.1 0,-0.3 0,-0.4 0,-0.1 0,-0.2 0,-0.2 0,-0.1 0,-0.2 0,-0.2 v -7.6 c 0.3,-0.1 0.2,0.1 0.2,0.2 z"
   id="path18969"
   inkscape:connector-curvature="0"
   style="fill:#efc100" />
					<g
   id="g18973">
						<path
   d="m 681.3,1001.1 c 10.6,6.1 10.6,16 0.1,22.2 -10.5,6.1 -27.7,6.1 -38.3,0 -10.6,-6.1 -10.7,-16 -0.1,-22.2 10.5,-6.1 27.7,-6.1 38.3,0 z"
   id="path18971"
   inkscape:connector-curvature="0"
   style="fill:#fdd400" />
					</g>
					<g
   id="g18977">
						<path
   d="m 671,1010.6 c 2.3,1.3 2.7,3.4 0.2,5.5 l 2.7,1.5 -2.6,1.5 -2.5,-1.4 c -1.8,1 -4,1.7 -5.5,1.9 l -2.3,-2.2 c 1.7,-0.3 3.7,-0.9 5.4,-1.8 1.5,-0.9 1.9,-1.8 0.9,-2.4 -1,-0.6 -2.5,-0.5 -5,0.3 -3.7,1.1 -6.9,1.4 -9.5,0 -2.3,-1.3 -2.5,-3.3 -0.3,-5.2 l -2.5,-1.4 2.6,-1.5 2.3,1.3 c 1.8,-1 3.4,-1.4 4.6,-1.7 l 2.2,2.2 c -1,0.2 -2.8,0.6 -4.6,1.7 -1.7,1 -1.5,1.7 -0.8,2.1 0.9,0.5 2.3,0.3 5.4,-0.5 4.3,-1.4 7,-1.3 9.3,0.1 z"
   id="path18975"
   inkscape:connector-curvature="0"
   style="fill:#ec8659" />
					</g>
				</g>
			</g>
			<g
   id="g18995">
				<g
   id="g18993">
					<path
   d="m 689.2,1000.4 c 0,0.1 0,0.3 0,0.4 0,0.1 0,0.2 0,0.4 0,0.1 0,0.3 -0.1,0.4 0,0.1 0,0.2 -0.1,0.4 0,0.1 -0.1,0.3 -0.1,0.4 0,0.1 -0.1,0.2 -0.1,0.4 0,0.1 -0.1,0.3 -0.1,0.4 0,0.1 -0.1,0.2 -0.1,0.3 -0.1,0.1 -0.1,0.3 -0.2,0.4 -0.1,0.1 -0.1,0.2 -0.2,0.3 -0.1,0.1 -0.1,0.3 -0.2,0.4 -0.1,0.1 -0.1,0.2 -0.2,0.3 -0.1,0.2 -0.2,0.3 -0.3,0.5 -0.1,0.1 -0.1,0.2 -0.2,0.3 -0.1,0.2 -0.2,0.3 -0.4,0.5 -0.1,0.1 -0.1,0.2 -0.2,0.2 -0.2,0.3 -0.5,0.5 -0.7,0.8 -0.1,0.1 -0.1,0.1 -0.2,0.2 -0.2,0.2 -0.4,0.4 -0.6,0.6 -0.1,0.1 -0.2,0.2 -0.3,0.3 -0.1,0.1 -0.3,0.2 -0.4,0.3 -0.1,0.1 -0.2,0.2 -0.4,0.3 -0.1,0.1 -0.3,0.2 -0.4,0.3 -0.1,0.1 -0.3,0.2 -0.4,0.3 -0.1,0.1 -0.3,0.2 -0.5,0.3 -0.1,0.1 -0.3,0.2 -0.4,0.3 -0.2,0.1 -0.3,0.2 -0.5,0.3 -0.2,0.1 -0.4,0.3 -0.6,0.4 -0.6,0.3 -1.2,0.7 -1.8,1 -0.2,0.1 -0.3,0.2 -0.5,0.2 -0.6,0.3 -1.1,0.5 -1.7,0.7 -0.1,0 -0.2,0.1 -0.2,0.1 -0.6,0.2 -1.3,0.5 -1.9,0.7 -0.5,0.1 -0.9,0.3 -1.4,0.4 -0.4,0.1 -0.7,0.2 -1.1,0.3 -0.5,0.1 -1,0.2 -1.5,0.3 -0.4,0.1 -0.7,0.2 -1.1,0.2 -0.2,0 -0.3,0 -0.5,0.1 -0.6,0.1 -1.2,0.2 -1.9,0.3 -0.2,0 -0.4,0 -0.6,0.1 -0.4,0 -0.7,0.1 -1.1,0.1 -0.6,0.1 -1.2,0.1 -1.8,0.1 -0.4,0 -0.8,0 -1.2,0 -0.5,0 -1,0 -1.5,0 -0.4,0 -0.8,0 -1.2,0 -0.5,0 -0.9,0 -1.4,-0.1 -0.4,0 -0.8,-0.1 -1.3,-0.1 -0.5,0 -0.9,-0.1 -1.3,-0.2 -0.4,-0.1 -0.8,-0.1 -1.2,-0.2 -0.5,-0.1 -1,-0.2 -1.4,-0.2 -0.4,-0.1 -0.8,-0.1 -1.1,-0.2 -0.6,-0.1 -1.1,-0.3 -1.7,-0.4 -0.4,-0.1 -0.7,-0.2 -1.1,-0.3 -0.2,-0.1 -0.4,-0.1 -0.6,-0.2 -0.6,-0.2 -1.1,-0.4 -1.6,-0.6 -0.2,-0.1 -0.3,-0.1 -0.5,-0.2 -0.5,-0.2 -1,-0.4 -1.4,-0.6 -0.2,-0.1 -0.5,-0.2 -0.7,-0.3 -0.7,-0.3 -1.3,-0.7 -2,-1 -3.7,-2.1 -6.1,-4.7 -7.2,-7.4 -0.5,-1.2 -0.8,-2.5 -0.8,-3.8 v 7.6 c 0,4 2.7,8.1 8,11.2 0.6,0.4 1.3,0.7 2,1 0.2,0.1 0.5,0.2 0.7,0.3 0.4,0.2 0.8,0.4 1.2,0.5 0.1,0 0.1,0.1 0.2,0.1 0.2,0.1 0.3,0.1 0.5,0.2 0.5,0.2 1.1,0.4 1.6,0.6 0.2,0.1 0.4,0.1 0.6,0.2 0.1,0 0.3,0.1 0.4,0.1 0.2,0.1 0.5,0.1 0.7,0.2 0.6,0.1 1.1,0.3 1.7,0.4 0.2,0 0.3,0.1 0.4,0.1 0.2,0 0.5,0.1 0.7,0.1 0.5,0.1 1,0.2 1.4,0.2 0.2,0 0.4,0.1 0.6,0.1 0.2,0 0.4,0 0.6,0.1 0.4,0.1 0.9,0.1 1.3,0.2 0.2,0 0.4,0.1 0.6,0.1 0.2,0 0.4,0 0.6,0 0.5,0 0.9,0.1 1.4,0.1 0.2,0 0.5,0 0.7,0 0.2,0 0.4,0 0.6,0 0.5,0 1,0 1.5,0 0.2,0 0.5,0 0.7,0 0.1,0 0.3,0 0.4,0 0.6,0 1.2,-0.1 1.8,-0.1 0.2,0 0.5,0 0.7,0 0.1,0 0.2,0 0.4,0 0.2,0 0.4,0 0.5,-0.1 0.6,-0.1 1.3,-0.2 1.9,-0.3 0.2,0 0.3,0 0.5,-0.1 0.1,0 0.1,0 0.2,0 0.3,-0.1 0.6,-0.1 0.9,-0.2 0.5,-0.1 1,-0.2 1.5,-0.3 0.4,-0.1 0.7,-0.2 1.1,-0.3 0.5,-0.1 0.9,-0.3 1.4,-0.4 0.1,0 0.2,-0.1 0.3,-0.1 0.6,-0.2 1.1,-0.4 1.6,-0.6 0.1,0 0.2,-0.1 0.2,-0.1 0.6,-0.2 1.2,-0.5 1.7,-0.7 0.2,-0.1 0.3,-0.2 0.5,-0.2 0.6,-0.3 1.2,-0.6 1.8,-1 0.1,-0.1 0.2,-0.1 0.3,-0.2 0.1,-0.1 0.2,-0.1 0.3,-0.2 0.2,-0.1 0.3,-0.2 0.5,-0.3 0.1,-0.1 0.3,-0.2 0.4,-0.3 0.2,-0.1 0.3,-0.2 0.5,-0.3 0.1,-0.1 0.3,-0.2 0.4,-0.3 0.1,-0.1 0.3,-0.2 0.4,-0.3 0.1,-0.1 0.3,-0.2 0.4,-0.3 0.1,-0.1 0.3,-0.2 0.4,-0.3 0.1,0 0.1,-0.1 0.2,-0.1 0,0 0.1,-0.1 0.1,-0.1 0.2,-0.2 0.4,-0.4 0.6,-0.6 0.1,-0.1 0.1,-0.1 0.2,-0.2 0.2,-0.3 0.5,-0.5 0.7,-0.8 0,0 0,0 0,0 0.1,-0.1 0.1,-0.1 0.1,-0.2 0.1,-0.2 0.3,-0.3 0.4,-0.5 0.1,-0.1 0.1,-0.2 0.2,-0.3 0.1,-0.2 0.2,-0.3 0.3,-0.5 0,0 0.1,-0.1 0.1,-0.1 0,-0.1 0.1,-0.1 0.1,-0.2 0.1,-0.1 0.1,-0.3 0.2,-0.4 0.1,-0.1 0.1,-0.2 0.2,-0.3 0.1,-0.1 0.1,-0.3 0.2,-0.4 0,-0.1 0.1,-0.1 0.1,-0.2 0,-0.1 0,-0.1 0.1,-0.2 0,-0.1 0.1,-0.3 0.1,-0.4 0,-0.1 0.1,-0.2 0.1,-0.4 0,-0.1 0.1,-0.3 0.1,-0.4 0,-0.1 0,-0.1 0.1,-0.2 0,0 0,-0.1 0,-0.1 0,-0.1 0,-0.3 0.1,-0.4 0,-0.1 0,-0.2 0,-0.4 0,-0.1 0,-0.3 0,-0.4 0,-0.1 0,-0.2 0,-0.2 0,-0.1 0,-0.2 0,-0.2 v -7.6 c 0.3,-0.1 0.2,0.1 0.2,0.2 z"
   id="path18983"
   inkscape:connector-curvature="0"
   style="fill:#efc100" />
					<g
   id="g18987">
						<path
   d="m 681.3,988.8 c 10.6,6.1 10.6,16 0.1,22.2 -10.5,6.1 -27.7,6.1 -38.3,0 -10.6,-6.1 -10.7,-16 -0.1,-22.2 10.5,-6.1 27.7,-6.1 38.3,0 z"
   id="path18985"
   inkscape:connector-curvature="0"
   style="fill:#fdd400" />
					</g>
					<g
   id="g18991">
						<path
   d="m 671,998.3 c 2.3,1.3 2.7,3.4 0.2,5.5 l 2.7,1.5 -2.6,1.5 -2.5,-1.4 c -1.8,1 -4,1.7 -5.5,1.9 l -2.3,-2.2 c 1.7,-0.3 3.7,-0.9 5.4,-1.8 1.5,-0.9 1.9,-1.8 0.9,-2.4 -1,-0.6 -2.5,-0.5 -5,0.3 -3.7,1.1 -6.9,1.4 -9.5,0 -2.3,-1.3 -2.5,-3.3 -0.3,-5.2 l -2.5,-1.4 2.6,-1.5 2.3,1.3 c 1.8,-1 3.4,-1.4 4.6,-1.7 l 2.2,2.2 c -1,0.2 -2.8,0.6 -4.6,1.7 -1.7,1 -1.5,1.7 -0.8,2.1 0.9,0.5 2.3,0.3 5.4,-0.5 4.3,-1.4 7,-1.3 9.3,0.1 z"
   id="path18989"
   inkscape:connector-curvature="0"
   style="fill:#ec8659" />
					</g>
				</g>
			</g>
			<g
   id="g19009">
				<g
   id="g19007">
					<path
   d="m 683.5,989.3 c 0,0.1 0,0.3 0,0.4 0,0.1 0,0.2 0,0.4 0,0.1 0,0.3 -0.1,0.4 0,0.1 0,0.2 -0.1,0.4 0,0.1 -0.1,0.3 -0.1,0.4 0,0.1 -0.1,0.2 -0.1,0.4 0,0.1 -0.1,0.3 -0.1,0.4 0,0.1 -0.1,0.2 -0.1,0.3 -0.1,0.1 -0.1,0.3 -0.2,0.4 -0.1,0.1 -0.1,0.2 -0.2,0.3 -0.1,0.1 -0.1,0.3 -0.2,0.4 -0.1,0.1 -0.1,0.2 -0.2,0.3 -0.1,0.2 -0.2,0.3 -0.3,0.5 -0.1,0.1 -0.1,0.2 -0.2,0.3 -0.1,0.2 -0.2,0.3 -0.4,0.5 -0.1,0.1 -0.1,0.2 -0.2,0.2 -0.2,0.3 -0.5,0.5 -0.7,0.8 -0.1,0.1 -0.1,0.1 -0.2,0.2 -0.2,0.2 -0.4,0.4 -0.6,0.6 -0.1,0.1 -0.2,0.2 -0.3,0.3 -0.1,0.1 -0.3,0.2 -0.4,0.3 -0.1,0.1 -0.2,0.2 -0.4,0.3 -0.1,0.1 -0.3,0.2 -0.4,0.3 -0.1,0.1 -0.3,0.2 -0.4,0.3 -0.1,0.1 -0.3,0.2 -0.5,0.3 -0.1,0.1 -0.3,0.2 -0.4,0.3 -0.2,0.1 -0.3,0.2 -0.5,0.3 -0.2,0.1 -0.4,0.3 -0.6,0.4 -0.6,0.3 -1.2,0.7 -1.8,1 -0.2,0.1 -0.3,0.2 -0.5,0.2 -0.6,0.3 -1.1,0.5 -1.7,0.7 -0.1,0 -0.2,0.1 -0.2,0.1 -0.6,0.2 -1.3,0.5 -1.9,0.7 -0.5,0.1 -0.9,0.3 -1.4,0.4 -0.4,0.1 -0.7,0.2 -1.1,0.3 -0.5,0.1 -1,0.2 -1.5,0.3 -0.4,0.1 -0.7,0.2 -1.1,0.2 -0.2,0 -0.3,0 -0.5,0.1 -0.6,0.1 -1.2,0.2 -1.9,0.3 -0.2,0 -0.4,0 -0.6,0.1 -0.4,0 -0.7,0.1 -1.1,0.1 -0.6,0.1 -1.2,0.1 -1.8,0.1 -0.4,0 -0.8,0 -1.2,0 -0.5,0 -1,0 -1.5,0 -0.4,0 -0.8,0 -1.2,0 -0.5,0 -0.9,0 -1.4,-0.1 -0.4,0 -0.8,-0.1 -1.3,-0.1 -0.5,0 -0.9,-0.1 -1.3,-0.2 -0.4,-0.1 -0.8,-0.1 -1.2,-0.2 -0.5,-0.1 -1,-0.2 -1.4,-0.2 -0.4,-0.1 -0.8,-0.1 -1.1,-0.2 -0.6,-0.1 -1.1,-0.3 -1.7,-0.4 -0.4,-0.1 -0.7,-0.2 -1.1,-0.3 -0.2,-0.1 -0.4,-0.1 -0.6,-0.2 -0.6,-0.2 -1.1,-0.4 -1.6,-0.6 -0.2,-0.1 -0.3,-0.1 -0.5,-0.2 -0.5,-0.2 -1,-0.4 -1.4,-0.6 -0.2,-0.1 -0.5,-0.2 -0.7,-0.3 -0.7,-0.3 -1.3,-0.7 -2,-1 -3.7,-2.1 -6.1,-4.7 -7.2,-7.4 -0.5,-1.2 -0.8,-2.5 -0.8,-3.8 v 7.6 c 0,4 2.7,8.1 8,11.2 0.6,0.4 1.3,0.7 2,1 0.2,0.1 0.5,0.2 0.7,0.3 0.4,0.2 0.8,0.4 1.2,0.5 0.1,0 0.1,0.1 0.2,0.1 0.2,0.1 0.3,0.1 0.5,0.2 0.5,0.2 1.1,0.4 1.6,0.6 0.2,0.1 0.4,0.1 0.6,0.2 0.1,0 0.3,0.1 0.4,0.1 0.2,0.1 0.5,0.1 0.7,0.2 0.6,0.1 1.1,0.3 1.7,0.4 0.2,0 0.3,0.1 0.4,0.1 0.2,0 0.5,0.1 0.7,0.1 0.5,0.1 1,0.2 1.4,0.2 0.2,0 0.4,0.1 0.6,0.1 0.2,0 0.4,0 0.6,0.1 0.4,0.1 0.9,0.1 1.3,0.2 0.2,0 0.4,0.1 0.6,0.1 0.2,0 0.4,0 0.6,0 0.5,0 0.9,0.1 1.4,0.1 0.2,0 0.5,0 0.7,0 0.2,0 0.4,0 0.6,0 0.5,0 1,0 1.5,0 0.2,0 0.5,0 0.7,0 0.1,0 0.3,0 0.4,0 0.6,0 1.2,-0.1 1.8,-0.1 0.2,0 0.5,0 0.7,0 0.1,0 0.2,0 0.4,0 0.2,0 0.4,0 0.5,-0.1 0.6,-0.1 1.3,-0.2 1.9,-0.3 0.2,0 0.3,0 0.5,-0.1 0.1,0 0.1,0 0.2,0 0.3,-0.1 0.6,-0.1 0.9,-0.2 0.5,-0.1 1,-0.2 1.5,-0.3 0.4,-0.1 0.7,-0.2 1.1,-0.3 0.5,-0.1 0.9,-0.3 1.4,-0.4 0.1,0 0.2,-0.1 0.3,-0.1 0.6,-0.2 1.1,-0.4 1.6,-0.6 0.1,0 0.2,-0.1 0.2,-0.1 0.6,-0.2 1.2,-0.5 1.7,-0.7 0.2,-0.1 0.3,-0.2 0.5,-0.2 0.6,-0.3 1.2,-0.6 1.8,-1 0.1,-0.1 0.2,-0.1 0.3,-0.2 0.1,-0.1 0.2,-0.1 0.3,-0.2 0.2,-0.1 0.3,-0.2 0.5,-0.3 0.1,-0.1 0.3,-0.2 0.4,-0.3 0.2,-0.1 0.3,-0.2 0.5,-0.3 0.1,-0.1 0.3,-0.2 0.4,-0.3 0.1,-0.1 0.3,-0.2 0.4,-0.3 0.1,-0.1 0.3,-0.2 0.4,-0.3 0.1,-0.1 0.3,-0.2 0.4,-0.3 0.1,0 0.1,-0.1 0.2,-0.1 0,0 0.1,-0.1 0.1,-0.1 0.2,-0.2 0.4,-0.4 0.6,-0.6 0.1,-0.1 0.1,-0.1 0.2,-0.2 0.2,-0.3 0.5,-0.5 0.7,-0.8 0,0 0,0 0,0 0.1,-0.1 0.1,-0.1 0.1,-0.2 0.1,-0.2 0.3,-0.3 0.4,-0.5 0.1,-0.1 0.1,-0.2 0.2,-0.3 0.1,-0.2 0.2,-0.3 0.3,-0.5 0,0 0.1,-0.1 0.1,-0.1 0,-0.1 0.1,-0.1 0.1,-0.2 0.1,-0.1 0.1,-0.3 0.2,-0.4 0.1,-0.1 0.1,-0.2 0.2,-0.3 0.1,-0.1 0.1,-0.3 0.2,-0.4 0,-0.1 0.1,-0.1 0.1,-0.2 0,-0.1 0,-0.1 0.1,-0.2 0,-0.1 0.1,-0.3 0.1,-0.4 0,-0.1 0.1,-0.2 0.1,-0.4 0,-0.1 0.1,-0.3 0.1,-0.4 0,-0.1 0,-0.1 0.1,-0.2 0,0 0,-0.1 0,-0.1 0,-0.1 0,-0.3 0.1,-0.4 0,-0.1 0,-0.2 0,-0.4 0,-0.1 0,-0.3 0,-0.4 0,-0.1 0,-0.2 0,-0.2 0,-0.1 0,-0.2 0,-0.2 v -7.6 c 0.3,-0.1 0.2,0 0.2,0.2 z"
   id="path18997"
   inkscape:connector-curvature="0"
   style="fill:#efc100" />
					<g
   id="g19001">
						<path
   d="m 675.6,977.6 c 10.6,6.1 10.6,16 0.1,22.2 -10.5,6.1 -27.7,6.1 -38.3,0 -10.6,-6.1 -10.7,-16 -0.1,-22.2 10.5,-6.1 27.7,-6.1 38.3,0 z"
   id="path18999"
   inkscape:connector-curvature="0"
   style="fill:#fdd400" />
					</g>
					<g
   id="g19005">
						<path
   d="m 665.3,987.1 c 2.3,1.3 2.7,3.4 0.2,5.5 l 2.7,1.5 -2.6,1.5 -2.5,-1.4 c -1.8,1 -4,1.7 -5.5,1.9 l -2.3,-2.2 c 1.7,-0.3 3.7,-0.9 5.4,-1.8 1.5,-0.9 1.9,-1.8 0.9,-2.4 -1,-0.6 -2.5,-0.5 -5,0.3 -3.7,1.1 -6.9,1.4 -9.5,0 -2.3,-1.3 -2.5,-3.3 -0.3,-5.2 l -2.5,-1.4 2.6,-1.5 2.3,1.3 c 1.8,-1 3.4,-1.4 4.6,-1.7 l 2.2,2.2 c -1,0.2 -2.8,0.6 -4.6,1.7 -1.7,1 -1.5,1.7 -0.8,2.1 0.9,0.5 2.3,0.3 5.4,-0.5 4.3,-1.4 7,-1.3 9.3,0.1 z"
   id="path19003"
   inkscape:connector-curvature="0"
   style="fill:#ec8659" />
					</g>
				</g>
			</g>
			<g
   id="g19023">
				<g
   id="g19021">
					<path
   d="m 676.2,975.4 c 0,0.1 0,0.3 0,0.4 0,0.1 0,0.2 0,0.4 0,0.1 0,0.3 -0.1,0.4 0,0.1 0,0.2 -0.1,0.4 0,0.1 -0.1,0.3 -0.1,0.4 0,0.1 -0.1,0.2 -0.1,0.4 0,0.1 -0.1,0.3 -0.1,0.4 0,0.1 -0.1,0.2 -0.1,0.3 -0.1,0.1 -0.1,0.3 -0.2,0.4 -0.1,0.1 -0.1,0.2 -0.2,0.3 -0.1,0.1 -0.1,0.3 -0.2,0.4 -0.1,0.1 -0.1,0.2 -0.2,0.3 -0.1,0.2 -0.2,0.3 -0.3,0.5 -0.1,0.1 -0.1,0.2 -0.2,0.3 -0.1,0.2 -0.2,0.3 -0.4,0.5 -0.1,0.1 -0.1,0.2 -0.2,0.2 -0.2,0.3 -0.5,0.5 -0.7,0.8 -0.1,0.1 -0.1,0.1 -0.2,0.2 -0.2,0.2 -0.4,0.4 -0.6,0.6 -0.1,0.1 -0.2,0.2 -0.3,0.3 -0.1,0.1 -0.3,0.2 -0.4,0.3 -0.1,0.1 -0.2,0.2 -0.4,0.3 -0.1,0.1 -0.3,0.2 -0.4,0.3 -0.1,0.1 -0.3,0.2 -0.4,0.3 -0.1,0.1 -0.3,0.2 -0.5,0.3 -0.1,0.1 -0.3,0.2 -0.4,0.3 -0.2,0.1 -0.3,0.2 -0.5,0.3 -0.2,0.1 -0.4,0.3 -0.6,0.4 -0.6,0.3 -1.2,0.7 -1.8,1 -0.2,0.1 -0.3,0.2 -0.5,0.2 -0.6,0.3 -1.1,0.5 -1.7,0.7 -0.1,0 -0.2,0.1 -0.2,0.1 -0.6,0.2 -1.3,0.5 -1.9,0.7 -0.5,0.1 -0.9,0.3 -1.4,0.4 -0.4,0.1 -0.7,0.2 -1.1,0.3 -0.5,0.1 -1,0.2 -1.5,0.3 -0.4,0.1 -0.7,0.2 -1.1,0.2 -0.2,0 -0.3,0 -0.5,0.1 -0.6,0.1 -1.2,0.2 -1.9,0.3 -0.2,0 -0.4,0 -0.6,0.1 -0.4,0 -0.7,0.1 -1.1,0.1 -0.6,0.1 -1.2,0.1 -1.8,0.1 -0.4,0 -0.8,0 -1.2,0 -0.5,0 -1,0 -1.5,0 -0.4,0 -0.8,0 -1.2,0 -0.5,0 -0.9,0 -1.4,-0.1 -0.4,0 -0.8,-0.1 -1.3,-0.1 -0.5,0 -0.9,-0.1 -1.3,-0.2 -0.4,-0.1 -0.8,-0.1 -1.2,-0.2 -0.5,-0.1 -1,-0.2 -1.4,-0.2 -0.4,-0.1 -0.8,-0.1 -1.1,-0.2 -0.6,-0.1 -1.1,-0.3 -1.7,-0.4 -0.4,-0.1 -0.7,-0.2 -1.1,-0.3 -0.2,-0.1 -0.4,-0.1 -0.6,-0.2 -0.6,-0.2 -1.1,-0.4 -1.6,-0.6 -0.2,-0.1 -0.3,-0.1 -0.5,-0.2 -0.5,-0.2 -1,-0.4 -1.4,-0.6 -0.2,-0.1 -0.5,-0.2 -0.7,-0.3 -0.7,-0.3 -1.3,-0.7 -2,-1 -3.7,-2.1 -6.1,-4.7 -7.2,-7.4 -0.5,-1.2 -0.8,-2.5 -0.8,-3.8 v 7.6 c 0,4 2.7,8.1 8,11.2 0.6,0.4 1.3,0.7 2,1 0.2,0.1 0.5,0.2 0.7,0.3 0.4,0.2 0.8,0.4 1.2,0.5 0.1,0 0.1,0.1 0.2,0.1 0.2,0.1 0.3,0.1 0.5,0.2 0.5,0.2 1.1,0.4 1.6,0.6 0.2,0.1 0.4,0.1 0.6,0.2 0.1,0 0.3,0.1 0.4,0.1 0.2,0.1 0.5,0.1 0.7,0.2 0.6,0.1 1.1,0.3 1.7,0.4 0.2,0 0.3,0.1 0.4,0.1 0.2,0 0.5,0.1 0.7,0.1 0.5,0.1 1,0.2 1.4,0.2 0.2,0 0.4,0.1 0.6,0.1 0.2,0 0.4,0 0.6,0.1 0.4,0.1 0.9,0.1 1.3,0.2 0.2,0 0.4,0.1 0.6,0.1 0.2,0 0.4,0 0.6,0 0.5,0 0.9,0.1 1.4,0.1 0.2,0 0.5,0 0.7,0 0.2,0 0.4,0 0.6,0 0.5,0 1,0 1.5,0 0.2,0 0.5,0 0.7,0 0.1,0 0.3,0 0.4,0 0.6,0 1.2,-0.1 1.8,-0.1 0.2,0 0.5,0 0.7,0 0.1,0 0.2,0 0.4,0 0.2,0 0.4,0 0.5,-0.1 0.6,-0.1 1.3,-0.2 1.9,-0.3 0.2,0 0.3,0 0.5,-0.1 0.1,0 0.1,0 0.2,0 0.3,-0.1 0.6,-0.1 0.9,-0.2 0.5,-0.1 1,-0.2 1.5,-0.3 0.4,-0.1 0.7,-0.2 1.1,-0.3 0.5,-0.1 0.9,-0.3 1.4,-0.4 0.1,0 0.2,-0.1 0.3,-0.1 0.6,-0.2 1.1,-0.4 1.6,-0.6 0.1,0 0.2,-0.1 0.2,-0.1 0.6,-0.2 1.2,-0.5 1.7,-0.7 0.2,-0.1 0.3,-0.2 0.5,-0.2 0.6,-0.3 1.2,-0.6 1.8,-1 0.1,-0.1 0.2,-0.1 0.3,-0.2 0.1,-0.1 0.2,-0.1 0.3,-0.2 0.2,-0.1 0.3,-0.2 0.5,-0.3 0.1,-0.1 0.3,-0.2 0.4,-0.3 0.2,-0.1 0.3,-0.2 0.5,-0.3 0.1,-0.1 0.3,-0.2 0.4,-0.3 0.1,-0.1 0.3,-0.2 0.4,-0.3 0.1,-0.1 0.3,-0.2 0.4,-0.3 0.1,-0.1 0.3,-0.2 0.4,-0.3 0.1,0 0.1,-0.1 0.2,-0.1 0,0 0.1,-0.1 0.1,-0.1 0.2,-0.2 0.4,-0.4 0.6,-0.6 0.1,-0.1 0.1,-0.1 0.2,-0.2 0.2,-0.3 0.5,-0.5 0.7,-0.8 0,0 0,0 0,0 0.1,-0.1 0.1,-0.1 0.1,-0.2 0.1,-0.2 0.3,-0.3 0.4,-0.5 0.1,-0.1 0.1,-0.2 0.2,-0.3 0.1,-0.2 0.2,-0.3 0.3,-0.5 0,0 0.1,-0.1 0.1,-0.1 0,-0.1 0.1,-0.1 0.1,-0.2 0.1,-0.1 0.1,-0.3 0.2,-0.4 0.1,-0.1 0.1,-0.2 0.2,-0.3 0.1,-0.1 0.1,-0.3 0.2,-0.4 0,-0.1 0.1,-0.1 0.1,-0.2 0,-0.1 0,-0.1 0.1,-0.2 0,-0.1 0.1,-0.3 0.1,-0.4 0,-0.1 0.1,-0.2 0.1,-0.4 0,-0.1 0.1,-0.3 0.1,-0.4 0,-0.1 0,-0.1 0.1,-0.2 0,0 0,-0.1 0,-0.1 0,-0.1 0,-0.3 0.1,-0.4 0,-0.1 0,-0.2 0,-0.4 0,-0.1 0,-0.3 0,-0.4 0,-0.1 0,-0.2 0,-0.2 0,-0.1 0,-0.2 0,-0.2 v -7.6 c 0.2,-0.1 0.2,0 0.2,0.2 z"
   id="path19011"
   inkscape:connector-curvature="0"
   style="fill:#efc100" />
					<g
   id="g19015">
						<path
   d="m 668.2,963.8 c 10.6,6.1 10.6,16 0.1,22.2 -10.5,6.1 -27.7,6.1 -38.3,0 -10.6,-6.1 -10.7,-16 -0.1,-22.2 10.6,-6.2 27.7,-6.2 38.3,0 z"
   id="path19013"
   inkscape:connector-curvature="0"
   style="fill:#fdd400" />
					</g>
					<g
   id="g19019">
						<path
   d="m 658,973.2 c 2.3,1.3 2.7,3.4 0.2,5.5 l 2.7,1.5 -2.6,1.5 -2.5,-1.4 c -1.8,1 -4,1.7 -5.5,1.9 L 648,980 c 1.7,-0.3 3.7,-0.9 5.4,-1.8 1.5,-0.9 1.9,-1.8 0.9,-2.4 -1,-0.6 -2.5,-0.5 -5,0.3 -3.7,1.1 -6.9,1.4 -9.5,0 -2.3,-1.3 -2.5,-3.3 -0.3,-5.2 l -2.5,-1.4 2.6,-1.5 2.3,1.3 c 1.8,-1 3.4,-1.4 4.6,-1.7 l 2.2,2.2 c -1,0.2 -2.8,0.6 -4.6,1.7 -1.7,1 -1.5,1.7 -0.8,2.1 0.9,0.5 2.3,0.3 5.4,-0.5 4.3,-1.3 6.9,-1.2 9.3,0.1 z"
   id="path19017"
   inkscape:connector-curvature="0"
   style="fill:#ec8659" />
					</g>
				</g>
			</g>
			<g
   id="g19037">
				<g
   id="g19035">
					<path
   d="m 691.2,967.1 c 0,0.1 0,0.3 0,0.4 0,0.1 0,0.2 0,0.4 0,0.1 0,0.3 -0.1,0.4 0,0.1 0,0.2 -0.1,0.4 0,0.1 -0.1,0.3 -0.1,0.4 0,0.1 -0.1,0.2 -0.1,0.4 0,0.1 -0.1,0.3 -0.1,0.4 0,0.1 -0.1,0.2 -0.1,0.3 -0.1,0.1 -0.1,0.3 -0.2,0.4 -0.1,0.1 -0.1,0.2 -0.2,0.3 -0.1,0.1 -0.1,0.3 -0.2,0.4 -0.1,0.1 -0.1,0.2 -0.2,0.3 -0.1,0.2 -0.2,0.3 -0.3,0.5 -0.1,0.1 -0.1,0.2 -0.2,0.3 -0.1,0.2 -0.2,0.3 -0.4,0.5 -0.1,0.1 -0.1,0.2 -0.2,0.2 -0.2,0.3 -0.5,0.5 -0.7,0.8 -0.1,0.1 -0.1,0.1 -0.2,0.2 -0.2,0.2 -0.4,0.4 -0.6,0.6 -0.1,0.1 -0.2,0.2 -0.3,0.3 -0.1,0.1 -0.3,0.2 -0.4,0.3 -0.1,0.1 -0.2,0.2 -0.4,0.3 -0.1,0.1 -0.3,0.2 -0.4,0.3 -0.1,0.1 -0.3,0.2 -0.4,0.3 -0.1,0.1 -0.3,0.2 -0.5,0.3 -0.1,0.1 -0.3,0.2 -0.4,0.3 -0.2,0.1 -0.3,0.2 -0.5,0.3 -0.2,0.1 -0.4,0.3 -0.6,0.4 -0.6,0.3 -1.2,0.7 -1.8,1 -0.2,0.1 -0.3,0.2 -0.5,0.2 -0.6,0.3 -1.1,0.5 -1.7,0.7 -0.1,0 -0.2,0.1 -0.2,0.1 -0.6,0.2 -1.3,0.5 -1.9,0.7 -0.5,0.1 -0.9,0.3 -1.4,0.4 -0.4,0.1 -0.7,0.2 -1.1,0.3 -0.5,0.1 -1,0.2 -1.5,0.3 -0.4,0.1 -0.7,0.2 -1.1,0.2 -0.2,0 -0.3,0 -0.5,0.1 -0.6,0.1 -1.2,0.2 -1.9,0.3 -0.2,0 -0.4,0 -0.6,0.1 -0.4,0 -0.7,0.1 -1.1,0.1 -0.6,0.1 -1.2,0.1 -1.8,0.1 -0.4,0 -0.8,0 -1.2,0 -0.5,0 -1,0 -1.5,0 -0.4,0 -0.8,0 -1.2,0 -0.5,0 -0.9,0 -1.4,-0.1 -0.4,0 -0.8,-0.1 -1.3,-0.1 -0.5,0 -0.9,-0.1 -1.3,-0.2 -0.4,-0.1 -0.8,-0.1 -1.2,-0.2 -0.5,-0.1 -1,-0.2 -1.4,-0.2 -0.4,-0.1 -0.8,-0.1 -1.1,-0.2 -0.6,-0.1 -1.1,-0.3 -1.7,-0.4 -0.4,-0.1 -0.7,-0.2 -1.1,-0.3 -0.2,-0.1 -0.4,-0.1 -0.6,-0.2 -0.6,-0.2 -1.1,-0.4 -1.6,-0.6 -0.2,-0.1 -0.3,-0.1 -0.5,-0.2 -0.5,-0.2 -1,-0.4 -1.4,-0.6 -0.2,-0.1 -0.5,-0.2 -0.7,-0.3 -0.7,-0.3 -1.3,-0.7 -2,-1 -3.7,-2.1 -6.1,-4.7 -7.2,-7.4 -0.5,-1.2 -0.8,-2.5 -0.8,-3.8 v 7.6 c 0,4 2.7,8.1 8,11.2 0.6,0.4 1.3,0.7 2,1 0.2,0.1 0.5,0.2 0.7,0.3 0.4,0.2 0.8,0.4 1.2,0.5 0.1,0 0.1,0.1 0.2,0.1 0.2,0.1 0.3,0.1 0.5,0.2 0.5,0.2 1.1,0.4 1.6,0.6 0.2,0.1 0.4,0.1 0.6,0.2 0.1,0 0.3,0.1 0.4,0.1 0.2,0.1 0.5,0.1 0.7,0.2 0.6,0.1 1.1,0.3 1.7,0.4 0.2,0 0.3,0.1 0.4,0.1 0.2,0 0.5,0.1 0.7,0.1 0.5,0.1 1,0.2 1.4,0.2 0.2,0 0.4,0.1 0.6,0.1 0.2,0 0.4,0 0.6,0.1 0.4,0.1 0.9,0.1 1.3,0.2 0.2,0 0.4,0.1 0.6,0.1 0.2,0 0.4,0 0.6,0 0.5,0 0.9,0.1 1.4,0.1 0.2,0 0.5,0 0.7,0 0.2,0 0.4,0 0.6,0 0.5,0 1,0 1.5,0 0.2,0 0.5,0 0.7,0 0.1,0 0.3,0 0.4,0 0.6,0 1.2,-0.1 1.8,-0.1 0.2,0 0.5,0 0.7,0 0.1,0 0.2,0 0.4,0 0.2,0 0.4,0 0.5,-0.1 0.6,-0.1 1.3,-0.2 1.9,-0.3 0.2,0 0.3,0 0.5,-0.1 0.1,0 0.1,0 0.2,0 0.3,-0.1 0.6,-0.1 0.9,-0.2 0.5,-0.1 1,-0.2 1.5,-0.3 0.4,-0.1 0.7,-0.2 1.1,-0.3 0.5,-0.1 0.9,-0.3 1.4,-0.4 0.1,0 0.2,-0.1 0.3,-0.1 0.6,-0.2 1.1,-0.4 1.6,-0.6 0.1,0 0.2,-0.1 0.2,-0.1 0.6,-0.2 1.2,-0.5 1.7,-0.7 0.2,-0.1 0.3,-0.2 0.5,-0.2 0.6,-0.3 1.2,-0.6 1.8,-1 0.1,-0.1 0.2,-0.1 0.3,-0.2 0.1,-0.1 0.2,-0.1 0.3,-0.2 0.2,-0.1 0.3,-0.2 0.5,-0.3 0.1,-0.1 0.3,-0.2 0.4,-0.3 0.2,-0.1 0.3,-0.2 0.5,-0.3 0.1,-0.1 0.3,-0.2 0.4,-0.3 0.1,-0.1 0.3,-0.2 0.4,-0.3 0.1,-0.1 0.3,-0.2 0.4,-0.3 0.1,-0.1 0.3,-0.2 0.4,-0.3 0.1,0 0.1,-0.1 0.2,-0.1 0,0 0.1,-0.1 0.1,-0.1 0.2,-0.2 0.4,-0.4 0.6,-0.6 0.1,-0.1 0.1,-0.1 0.2,-0.2 0.2,-0.3 0.5,-0.5 0.7,-0.8 0,0 0,0 0,0 0.1,-0.1 0.1,-0.1 0.1,-0.2 0.1,-0.2 0.3,-0.3 0.4,-0.5 0.1,-0.1 0.1,-0.2 0.2,-0.3 0.1,-0.2 0.2,-0.3 0.3,-0.5 0,0 0.1,-0.1 0.1,-0.1 0,-0.1 0.1,-0.1 0.1,-0.2 0.1,-0.1 0.1,-0.3 0.2,-0.4 0.1,-0.1 0.1,-0.2 0.2,-0.3 0.1,-0.1 0.1,-0.3 0.2,-0.4 0,-0.1 0.1,-0.1 0.1,-0.2 0,-0.1 0,-0.1 0.1,-0.2 0,-0.1 0.1,-0.3 0.1,-0.4 0,-0.1 0.1,-0.2 0.1,-0.4 0,-0.1 0.1,-0.3 0.1,-0.4 0,-0.1 0,-0.1 0.1,-0.2 0,0 0,-0.1 0,-0.1 0,-0.1 0,-0.3 0.1,-0.4 0,-0.1 0,-0.2 0,-0.4 0,-0.1 0,-0.3 0,-0.4 0,-0.1 0,-0.2 0,-0.2 0,-0.1 0,-0.2 0,-0.2 v -7.6 c 0.2,-0.1 0.2,0 0.2,0.2 z"
   id="path19025"
   inkscape:connector-curvature="0"
   style="fill:#efc100" />
					<g
   id="g19029">
						<path
   d="m 683.3,955.5 c 10.6,6.1 10.6,16 0.1,22.2 -10.5,6.1 -27.7,6.1 -38.3,0 -10.6,-6.1 -10.7,-16 -0.1,-22.2 10.5,-6.1 27.7,-6.1 38.3,0 z"
   id="path19027"
   inkscape:connector-curvature="0"
   style="fill:#fdd400" />
					</g>
					<g
   id="g19033">
						<path
   d="m 673,964.9 c 2.3,1.3 2.7,3.4 0.2,5.5 l 2.7,1.5 -2.6,1.5 -2.5,-1.4 c -1.8,1 -4,1.7 -5.5,1.9 l -2.3,-2.2 c 1.7,-0.3 3.7,-0.9 5.4,-1.8 1.5,-0.9 1.9,-1.8 0.9,-2.4 -1,-0.6 -2.5,-0.5 -5,0.3 -3.7,1.1 -6.9,1.4 -9.5,0 -2.3,-1.3 -2.5,-3.3 -0.3,-5.2 l -2.5,-1.4 2.6,-1.5 2.3,1.3 c 1.8,-1 3.4,-1.4 4.6,-1.7 l 2.2,2.2 c -1,0.2 -2.8,0.6 -4.6,1.7 -1.7,1 -1.5,1.7 -0.8,2.1 0.9,0.5 2.3,0.3 5.4,-0.5 4.3,-1.3 7,-1.2 9.3,0.1 z"
   id="path19031"
   inkscape:connector-curvature="0"
   style="fill:#ec8659" />
					</g>
				</g>
			</g>
			<g
   id="g19051">
				<g
   id="g19049">
					<path
   d="m 683.6,956.6 c 0,0.1 0,0.3 0,0.4 0,0.1 0,0.2 0,0.4 0,0.1 0,0.3 -0.1,0.4 0,0.1 0,0.2 -0.1,0.4 0,0.1 -0.1,0.3 -0.1,0.4 0,0.1 -0.1,0.2 -0.1,0.4 0,0.1 -0.1,0.3 -0.1,0.4 0,0.1 -0.1,0.2 -0.1,0.3 -0.1,0.1 -0.1,0.3 -0.2,0.4 -0.1,0.1 -0.1,0.2 -0.2,0.3 -0.1,0.1 -0.1,0.3 -0.2,0.4 -0.1,0.1 -0.1,0.2 -0.2,0.3 -0.1,0.2 -0.2,0.3 -0.3,0.5 -0.1,0.1 -0.1,0.2 -0.2,0.3 -0.1,0.2 -0.2,0.3 -0.4,0.5 -0.1,0.1 -0.1,0.2 -0.2,0.2 -0.2,0.3 -0.5,0.5 -0.7,0.8 -0.1,0.1 -0.1,0.1 -0.2,0.2 -0.2,0.2 -0.4,0.4 -0.6,0.6 -0.1,0.1 -0.2,0.2 -0.3,0.3 -0.1,0.1 -0.3,0.2 -0.4,0.3 -0.1,0.1 -0.2,0.2 -0.4,0.3 -0.1,0.1 -0.3,0.2 -0.4,0.3 -0.1,0.1 -0.3,0.2 -0.4,0.3 -0.1,0.1 -0.3,0.2 -0.5,0.3 -0.1,0.1 -0.3,0.2 -0.4,0.3 -0.2,0.1 -0.3,0.2 -0.5,0.3 -0.2,0.1 -0.4,0.3 -0.6,0.4 -0.6,0.3 -1.2,0.7 -1.8,1 -0.2,0.1 -0.3,0.2 -0.5,0.2 -0.6,0.3 -1.1,0.5 -1.7,0.7 -0.1,0 -0.2,0.1 -0.2,0.1 -0.6,0.2 -1.3,0.5 -1.9,0.7 -0.5,0.1 -0.9,0.3 -1.4,0.4 -0.4,0.1 -0.7,0.2 -1.1,0.3 -0.5,0.1 -1,0.2 -1.5,0.3 -0.4,0.1 -0.7,0.2 -1.1,0.2 -0.2,0 -0.3,0 -0.5,0.1 -0.6,0.1 -1.2,0.2 -1.9,0.3 -0.2,0 -0.4,0 -0.6,0.1 -0.4,0 -0.7,0.1 -1.1,0.1 -0.6,0.1 -1.2,0.1 -1.8,0.1 -0.4,0 -0.8,0 -1.2,0 -0.5,0 -1,0 -1.5,0 -0.4,0 -0.8,0 -1.2,0 -0.5,0 -0.9,0 -1.4,-0.1 -0.4,0 -0.8,-0.1 -1.3,-0.1 -0.5,0 -0.9,-0.1 -1.3,-0.2 -0.4,-0.1 -0.8,-0.1 -1.2,-0.2 -0.5,-0.1 -1,-0.2 -1.4,-0.2 -0.4,-0.1 -0.8,-0.1 -1.1,-0.2 -0.6,-0.1 -1.1,-0.3 -1.7,-0.4 -0.4,-0.1 -0.7,-0.2 -1.1,-0.3 -0.2,-0.1 -0.4,-0.1 -0.6,-0.2 -0.6,-0.2 -1.1,-0.4 -1.6,-0.6 -0.2,-0.1 -0.3,-0.1 -0.5,-0.2 -0.5,-0.2 -1,-0.4 -1.4,-0.6 -0.2,-0.1 -0.5,-0.2 -0.7,-0.3 -0.7,-0.3 -1.3,-0.7 -2,-1 -3.7,-2.1 -6.1,-4.7 -7.2,-7.4 -0.5,-1.2 -0.8,-2.5 -0.8,-3.8 v 7.6 c 0,4 2.7,8.1 8,11.2 0.6,0.4 1.3,0.7 2,1 0.2,0.1 0.5,0.2 0.7,0.3 0.4,0.2 0.8,0.4 1.2,0.5 0.1,0 0.1,0.1 0.2,0.1 0.2,0.1 0.3,0.1 0.5,0.2 0.5,0.2 1.1,0.4 1.6,0.6 0.2,0.1 0.4,0.1 0.6,0.2 0.1,0 0.3,0.1 0.4,0.1 0.2,0.1 0.5,0.1 0.7,0.2 0.6,0.1 1.1,0.3 1.7,0.4 0.2,0 0.3,0.1 0.4,0.1 0.2,0 0.5,0.1 0.7,0.1 0.5,0.1 1,0.2 1.4,0.2 0.2,0 0.4,0.1 0.6,0.1 0.2,0 0.4,0 0.6,0.1 0.4,0.1 0.9,0.1 1.3,0.2 0.2,0 0.4,0.1 0.6,0.1 0.2,0 0.4,0 0.6,0 0.5,0 0.9,0.1 1.4,0.1 0.2,0 0.5,0 0.7,0 0.2,0 0.4,0 0.6,0 0.5,0 1,0 1.5,0 0.2,0 0.5,0 0.7,0 0.1,0 0.3,0 0.4,0 0.6,0 1.2,-0.1 1.8,-0.1 0.2,0 0.5,0 0.7,0 0.1,0 0.2,0 0.4,0 0.2,0 0.4,0 0.5,-0.1 0.6,-0.1 1.3,-0.2 1.9,-0.3 0.2,0 0.3,0 0.5,-0.1 0.1,0 0.1,0 0.2,0 0.3,-0.1 0.6,-0.1 0.9,-0.2 0.5,-0.1 1,-0.2 1.5,-0.3 0.4,-0.1 0.7,-0.2 1.1,-0.3 0.5,-0.1 0.9,-0.3 1.4,-0.4 0.1,0 0.2,-0.1 0.3,-0.1 0.6,-0.2 1.1,-0.4 1.6,-0.6 0.1,0 0.2,-0.1 0.2,-0.1 0.6,-0.2 1.2,-0.5 1.7,-0.7 0.2,-0.1 0.3,-0.2 0.5,-0.2 0.6,-0.3 1.2,-0.6 1.8,-1 0.1,-0.1 0.2,-0.1 0.3,-0.2 0.1,-0.1 0.2,-0.1 0.3,-0.2 0.2,-0.1 0.3,-0.2 0.5,-0.3 0.1,-0.1 0.3,-0.2 0.4,-0.3 0.2,-0.1 0.3,-0.2 0.5,-0.3 0.1,-0.1 0.3,-0.2 0.4,-0.3 0.1,-0.1 0.3,-0.2 0.4,-0.3 0.1,-0.1 0.3,-0.2 0.4,-0.3 0.1,-0.1 0.3,-0.2 0.4,-0.3 0.1,0 0.1,-0.1 0.2,-0.1 0,0 0.1,-0.1 0.1,-0.1 0.2,-0.2 0.4,-0.4 0.6,-0.6 0.1,-0.1 0.1,-0.1 0.2,-0.2 0.2,-0.3 0.5,-0.5 0.7,-0.8 0,0 0,0 0,0 0.1,-0.1 0.1,-0.1 0.1,-0.2 0.1,-0.2 0.3,-0.3 0.4,-0.5 0.1,-0.1 0.1,-0.2 0.2,-0.3 0.1,-0.2 0.2,-0.3 0.3,-0.5 0,0 0.1,-0.1 0.1,-0.1 0,-0.1 0.1,-0.1 0.1,-0.2 0.1,-0.1 0.1,-0.3 0.2,-0.4 0.1,-0.1 0.1,-0.2 0.2,-0.3 0.1,-0.1 0.1,-0.3 0.2,-0.4 0,-0.1 0.1,-0.1 0.1,-0.2 0,-0.1 0,-0.1 0.1,-0.2 0,-0.1 0.1,-0.3 0.1,-0.4 0,-0.1 0.1,-0.2 0.1,-0.4 0,-0.1 0.1,-0.3 0.1,-0.4 0,-0.1 0,-0.1 0.1,-0.2 0,0 0,-0.1 0,-0.1 0,-0.1 0,-0.3 0.1,-0.4 0,-0.1 0,-0.2 0,-0.4 0,-0.1 0,-0.3 0,-0.4 0,-0.1 0,-0.2 0,-0.2 0,-0.1 0,-0.2 0,-0.2 v -7.6 c 0.2,-0.1 0.2,0 0.2,0.2 z"
   id="path19039"
   inkscape:connector-curvature="0"
   style="fill:#efc100" />
					<g
   id="g19043">
						<path
   d="m 675.6,944.9 c 10.6,6.1 10.6,16 0.1,22.2 -10.5,6.1 -27.7,6.1 -38.3,0 -10.6,-6.1 -10.7,-16 -0.1,-22.2 10.6,-6.1 27.7,-6.1 38.3,0 z"
   id="path19041"
   inkscape:connector-curvature="0"
   style="fill:#fdd400" />
					</g>
					<g
   id="g19047">
						<path
   d="m 665.4,954.4 c 2.3,1.3 2.7,3.4 0.2,5.5 l 2.7,1.5 -2.6,1.5 -2.5,-1.4 c -1.8,1 -4,1.7 -5.5,1.9 l -2.3,-2.2 c 1.7,-0.3 3.7,-0.9 5.4,-1.8 1.5,-0.9 1.9,-1.8 0.9,-2.4 -1,-0.6 -2.5,-0.5 -5,0.3 -3.7,1.1 -6.9,1.4 -9.5,0 -2.3,-1.3 -2.5,-3.3 -0.3,-5.2 l -2.5,-1.4 2.6,-1.5 2.3,1.3 c 1.8,-1 3.4,-1.4 4.6,-1.7 l 2.2,2.2 c -1,0.2 -2.8,0.6 -4.6,1.7 -1.7,1 -1.5,1.7 -0.8,2.1 0.9,0.5 2.3,0.3 5.4,-0.5 4.2,-1.4 6.9,-1.3 9.3,0.1 z"
   id="path19045"
   inkscape:connector-curvature="0"
   style="fill:#ec8659" />
					</g>
				</g>
			</g>
			<g
   id="g19065">
				<g
   id="g19063">
					<path
   d="m 752.9,1019.9 c 0,0.1 0,0.3 0,0.4 0,0.1 0,0.2 0,0.4 0,0.1 0,0.3 -0.1,0.4 0,0.1 0,0.2 -0.1,0.4 0,0.1 -0.1,0.3 -0.1,0.4 0,0.1 -0.1,0.2 -0.1,0.4 0,0.1 -0.1,0.3 -0.1,0.4 0,0.1 -0.1,0.2 -0.1,0.3 -0.1,0.1 -0.1,0.3 -0.2,0.4 -0.1,0.1 -0.1,0.2 -0.2,0.3 -0.1,0.1 -0.1,0.3 -0.2,0.4 -0.1,0.1 -0.1,0.2 -0.2,0.3 -0.1,0.2 -0.2,0.3 -0.3,0.5 -0.1,0.1 -0.1,0.2 -0.2,0.3 -0.1,0.2 -0.2,0.3 -0.4,0.5 -0.1,0.1 -0.1,0.2 -0.2,0.2 -0.2,0.3 -0.5,0.5 -0.7,0.8 -0.1,0.1 -0.1,0.1 -0.2,0.2 -0.2,0.2 -0.4,0.4 -0.6,0.6 -0.1,0.1 -0.2,0.2 -0.3,0.3 -0.1,0.1 -0.3,0.2 -0.4,0.3 -0.1,0.1 -0.2,0.2 -0.4,0.3 -0.1,0.1 -0.3,0.2 -0.4,0.3 -0.1,0.1 -0.3,0.2 -0.4,0.3 -0.1,0.1 -0.3,0.2 -0.5,0.3 -0.1,0.1 -0.3,0.2 -0.4,0.3 -0.2,0.1 -0.3,0.2 -0.5,0.3 -0.2,0.1 -0.4,0.3 -0.6,0.4 -0.6,0.3 -1.2,0.7 -1.8,1 -0.2,0.1 -0.3,0.2 -0.5,0.2 -0.6,0.3 -1.1,0.5 -1.7,0.7 -0.1,0 -0.2,0.1 -0.2,0.1 -0.6,0.2 -1.3,0.5 -1.9,0.7 -0.5,0.1 -0.9,0.3 -1.4,0.4 -0.4,0.1 -0.7,0.2 -1.1,0.3 -0.5,0.1 -1,0.2 -1.5,0.3 -0.4,0.1 -0.7,0.2 -1.1,0.2 -0.2,0 -0.3,0 -0.5,0.1 -0.6,0.1 -1.2,0.2 -1.9,0.3 -0.2,0 -0.4,0 -0.6,0.1 -0.4,0 -0.7,0.1 -1.1,0.1 -0.6,0.1 -1.2,0.1 -1.8,0.1 -0.4,0 -0.8,0 -1.2,0 -0.5,0 -1,0 -1.5,0 -0.4,0 -0.8,0 -1.2,0 -0.5,0 -0.9,0 -1.4,-0.1 -0.4,0 -0.8,-0.1 -1.3,-0.1 -0.5,0 -0.9,-0.1 -1.3,-0.2 -0.4,-0.1 -0.8,-0.1 -1.2,-0.2 -0.5,-0.1 -1,-0.2 -1.4,-0.2 -0.4,-0.1 -0.8,-0.1 -1.1,-0.2 -0.6,-0.1 -1.1,-0.3 -1.7,-0.4 -0.4,-0.1 -0.7,-0.2 -1.1,-0.3 -0.2,-0.1 -0.4,-0.1 -0.6,-0.2 -0.6,-0.2 -1.1,-0.4 -1.6,-0.6 -0.2,-0.1 -0.3,-0.1 -0.5,-0.2 -0.5,-0.2 -1,-0.4 -1.4,-0.6 -0.2,-0.1 -0.5,-0.2 -0.7,-0.3 -0.7,-0.3 -1.3,-0.7 -2,-1 -3.7,-2.1 -6.1,-4.7 -7.2,-7.4 -0.5,-1.2 -0.8,-2.5 -0.8,-3.8 v 7.6 c 0,4 2.7,8.1 8,11.2 0.6,0.4 1.3,0.7 2,1 0.2,0.1 0.5,0.2 0.7,0.3 0.4,0.2 0.8,0.4 1.2,0.5 0.1,0 0.1,0.1 0.2,0.1 0.2,0.1 0.3,0.1 0.5,0.2 0.5,0.2 1.1,0.4 1.6,0.6 0.2,0.1 0.4,0.1 0.6,0.2 0.1,0 0.3,0.1 0.4,0.1 0.2,0.1 0.5,0.1 0.7,0.2 0.6,0.1 1.1,0.3 1.7,0.4 0.2,0 0.3,0.1 0.4,0.1 0.2,0 0.5,0.1 0.7,0.1 0.5,0.1 1,0.2 1.4,0.2 0.2,0 0.4,0.1 0.6,0.1 0.2,0 0.4,0 0.6,0.1 0.4,0.1 0.9,0.1 1.3,0.2 0.2,0 0.4,0.1 0.6,0.1 0.2,0 0.4,0 0.6,0 0.5,0 0.9,0.1 1.4,0.1 0.2,0 0.5,0 0.7,0 0.2,0 0.4,0 0.6,0 0.5,0 1,0 1.5,0 0.2,0 0.5,0 0.7,0 0.1,0 0.3,0 0.4,0 0.6,0 1.2,-0.1 1.8,-0.1 0.2,0 0.5,0 0.7,0 0.1,0 0.2,0 0.4,0 0.2,0 0.4,0 0.5,-0.1 0.6,-0.1 1.3,-0.2 1.9,-0.3 0.2,0 0.3,0 0.5,-0.1 0.1,0 0.1,0 0.2,0 0.3,-0.1 0.6,-0.1 0.9,-0.2 0.5,-0.1 1,-0.2 1.5,-0.3 0.4,-0.1 0.7,-0.2 1.1,-0.3 0.5,-0.1 0.9,-0.3 1.4,-0.4 0.1,0 0.2,-0.1 0.3,-0.1 0.6,-0.2 1.1,-0.4 1.6,-0.6 0.1,0 0.2,-0.1 0.2,-0.1 0.6,-0.2 1.2,-0.5 1.7,-0.7 0.2,-0.1 0.3,-0.2 0.5,-0.2 0.6,-0.3 1.2,-0.6 1.8,-1 0.1,-0.1 0.2,-0.1 0.3,-0.2 0.1,-0.1 0.2,-0.1 0.3,-0.2 0.2,-0.1 0.3,-0.2 0.5,-0.3 0.1,-0.1 0.3,-0.2 0.4,-0.3 0.2,-0.1 0.3,-0.2 0.5,-0.3 0.1,-0.1 0.3,-0.2 0.4,-0.3 0.1,-0.1 0.3,-0.2 0.4,-0.3 0.1,-0.1 0.3,-0.2 0.4,-0.3 0.1,-0.1 0.3,-0.2 0.4,-0.3 0.1,0 0.1,-0.1 0.2,-0.1 0,0 0.1,-0.1 0.1,-0.1 0.2,-0.2 0.4,-0.4 0.6,-0.6 0.1,-0.1 0.1,-0.1 0.2,-0.2 0.2,-0.3 0.5,-0.5 0.7,-0.8 0,0 0,0 0,0 0.1,-0.1 0.1,-0.1 0.1,-0.2 0.1,-0.2 0.3,-0.3 0.4,-0.5 0.1,-0.1 0.1,-0.2 0.2,-0.3 0.1,-0.2 0.2,-0.3 0.3,-0.5 0,0 0.1,-0.1 0.1,-0.1 0,-0.1 0.1,-0.1 0.1,-0.2 0.1,-0.1 0.1,-0.3 0.2,-0.4 0.1,-0.1 0.1,-0.2 0.2,-0.3 0.1,-0.1 0.1,-0.3 0.2,-0.4 0,-0.1 0.1,-0.1 0.1,-0.2 0,-0.1 0,-0.1 0.1,-0.2 0,-0.1 0.1,-0.3 0.1,-0.4 0,-0.1 0.1,-0.2 0.1,-0.4 0,-0.1 0.1,-0.3 0.1,-0.4 0,-0.1 0,-0.1 0.1,-0.2 0,0 0,-0.1 0,-0.1 0,-0.1 0,-0.3 0.1,-0.4 0,-0.1 0,-0.2 0,-0.4 0,-0.1 0,-0.3 0,-0.4 0,-0.1 0,-0.2 0,-0.2 0,-0.1 0,-0.2 0,-0.2 v -7.6 c 0.2,-0.1 0.2,0 0.2,0.2 z"
   id="path19053"
   inkscape:connector-curvature="0"
   style="fill:#efc100" />
					<g
   id="g19057">
						<path
   d="m 744.9,1008.3 c 10.6,6.1 10.6,16 0.1,22.2 -10.5,6.2 -27.7,6.1 -38.3,0 -10.6,-6.1 -10.7,-16 -0.1,-22.2 10.6,-6.1 27.7,-6.1 38.3,0 z"
   id="path19055"
   inkscape:connector-curvature="0"
   style="fill:#fdd400" />
					</g>
					<g
   id="g19061">
						<path
   d="m 734.7,1017.7 c 2.3,1.3 2.7,3.4 0.2,5.5 l 2.7,1.5 -2.6,1.5 -2.5,-1.4 c -1.8,1 -4,1.7 -5.5,1.9 l -2.3,-2.2 c 1.7,-0.3 3.7,-0.9 5.4,-1.8 1.5,-0.9 1.9,-1.8 0.9,-2.4 -1,-0.6 -2.5,-0.5 -5,0.3 -3.7,1.1 -6.9,1.4 -9.5,0 -2.3,-1.3 -2.5,-3.3 -0.3,-5.2 l -2.5,-1.4 2.6,-1.5 2.3,1.3 c 1.8,-1 3.4,-1.4 4.6,-1.7 l 2.2,2.2 c -1,0.2 -2.8,0.6 -4.6,1.7 -1.7,1 -1.5,1.7 -0.8,2.1 0.9,0.5 2.3,0.3 5.4,-0.5 4.2,-1.3 6.9,-1.2 9.3,0.1 z"
   id="path19059"
   inkscape:connector-curvature="0"
   style="fill:#ec8659" />
					</g>
				</g>
			</g>
			<g
   id="g19079">
				<g
   id="g19077">
					<path
   d="m 710.6,1051.7 c 0,0.1 0,0.3 0,0.4 0,0.1 0,0.2 0,0.4 0,0.1 0,0.3 -0.1,0.4 0,0.1 0,0.2 -0.1,0.4 0,0.1 -0.1,0.3 -0.1,0.4 0,0.1 -0.1,0.2 -0.1,0.4 0,0.1 -0.1,0.3 -0.1,0.4 0,0.1 -0.1,0.2 -0.1,0.3 -0.1,0.1 -0.1,0.3 -0.2,0.4 -0.1,0.1 -0.1,0.2 -0.2,0.3 -0.1,0.1 -0.1,0.3 -0.2,0.4 -0.1,0.1 -0.1,0.2 -0.2,0.3 -0.1,0.2 -0.2,0.3 -0.3,0.5 -0.1,0.1 -0.1,0.2 -0.2,0.3 -0.1,0.2 -0.2,0.3 -0.4,0.5 -0.1,0.1 -0.1,0.2 -0.2,0.2 -0.2,0.3 -0.5,0.5 -0.7,0.8 -0.1,0.1 -0.1,0.1 -0.2,0.2 -0.2,0.2 -0.4,0.4 -0.6,0.6 -0.1,0.1 -0.2,0.2 -0.3,0.3 -0.1,0.1 -0.3,0.2 -0.4,0.3 -0.1,0.1 -0.2,0.2 -0.4,0.3 -0.1,0.1 -0.3,0.2 -0.4,0.3 -0.1,0.1 -0.3,0.2 -0.4,0.3 -0.1,0.1 -0.3,0.2 -0.5,0.3 -0.1,0.1 -0.3,0.2 -0.4,0.3 -0.2,0.1 -0.3,0.2 -0.5,0.3 -0.2,0.1 -0.4,0.3 -0.6,0.4 -0.6,0.3 -1.2,0.7 -1.8,1 -0.2,0.1 -0.3,0.2 -0.5,0.2 -0.6,0.3 -1.1,0.5 -1.7,0.7 -0.1,0 -0.2,0.1 -0.2,0.1 -0.6,0.2 -1.3,0.5 -1.9,0.7 -0.5,0.1 -0.9,0.3 -1.4,0.4 -0.4,0.1 -0.7,0.2 -1.1,0.3 -0.5,0.1 -1,0.2 -1.5,0.3 -0.4,0.1 -0.7,0.2 -1.1,0.2 -0.2,0 -0.3,0 -0.5,0.1 -0.6,0.1 -1.2,0.2 -1.9,0.3 -0.2,0 -0.4,0 -0.6,0.1 -0.4,0 -0.7,0.1 -1.1,0.1 -0.6,0.1 -1.2,0.1 -1.8,0.1 -0.4,0 -0.8,0 -1.2,0 -0.5,0 -1,0 -1.5,0 -0.4,0 -0.8,0 -1.2,0 -0.5,0 -0.9,0 -1.4,-0.1 -0.4,0 -0.8,-0.1 -1.3,-0.1 -0.5,0 -0.9,-0.1 -1.3,-0.2 -0.4,-0.1 -0.8,-0.1 -1.2,-0.2 -0.5,-0.1 -1,-0.2 -1.4,-0.2 -0.4,-0.1 -0.8,-0.1 -1.1,-0.2 -0.6,-0.1 -1.1,-0.3 -1.7,-0.4 -0.4,-0.1 -0.7,-0.2 -1.1,-0.3 -0.2,-0.1 -0.4,-0.1 -0.6,-0.2 -0.6,-0.2 -1.1,-0.4 -1.6,-0.6 -0.2,-0.1 -0.3,-0.1 -0.5,-0.2 -0.5,-0.2 -1,-0.4 -1.4,-0.6 -0.2,-0.1 -0.5,-0.2 -0.7,-0.3 -0.7,-0.3 -1.3,-0.7 -2,-1 -3.7,-2.1 -6.1,-4.7 -7.2,-7.4 -0.5,-1.2 -0.8,-2.5 -0.8,-3.8 v 7.6 c 0,4 2.7,8.1 8,11.2 0.6,0.4 1.3,0.7 2,1 0.2,0.1 0.5,0.2 0.7,0.3 0.4,0.2 0.8,0.4 1.2,0.5 0.1,0 0.1,0.1 0.2,0.1 0.2,0.1 0.3,0.1 0.5,0.2 0.5,0.2 1.1,0.4 1.6,0.6 0.2,0.1 0.4,0.1 0.6,0.2 0.1,0 0.3,0.1 0.4,0.1 0.2,0.1 0.5,0.1 0.7,0.2 0.6,0.1 1.1,0.3 1.7,0.4 0.2,0 0.3,0.1 0.4,0.1 0.2,0 0.5,0.1 0.7,0.1 0.5,0.1 1,0.2 1.4,0.2 0.2,0 0.4,0.1 0.6,0.1 0.2,0 0.4,0 0.6,0.1 0.4,0.1 0.9,0.1 1.3,0.2 0.2,0 0.4,0.1 0.6,0.1 0.2,0 0.4,0 0.6,0 0.5,0 0.9,0.1 1.4,0.1 0.2,0 0.5,0 0.7,0 0.2,0 0.4,0 0.6,0 0.5,0 1,0 1.5,0 0.2,0 0.5,0 0.7,0 0.1,0 0.3,0 0.4,0 0.6,0 1.2,-0.1 1.8,-0.1 0.2,0 0.5,0 0.7,0 0.1,0 0.2,0 0.4,0 0.2,0 0.4,0 0.5,-0.1 0.6,-0.1 1.3,-0.2 1.9,-0.3 0.2,0 0.3,0 0.5,-0.1 0.1,0 0.1,0 0.2,0 0.3,-0.1 0.6,-0.1 0.9,-0.2 0.5,-0.1 1,-0.2 1.5,-0.3 0.4,-0.1 0.7,-0.2 1.1,-0.3 0.5,-0.1 0.9,-0.3 1.4,-0.4 0.1,0 0.2,-0.1 0.3,-0.1 0.6,-0.2 1.1,-0.4 1.6,-0.6 0.1,0 0.2,-0.1 0.2,-0.1 0.6,-0.2 1.2,-0.5 1.7,-0.7 0.2,-0.1 0.3,-0.2 0.5,-0.2 0.6,-0.3 1.2,-0.6 1.8,-1 0.1,-0.1 0.2,-0.1 0.3,-0.2 0.1,-0.1 0.2,-0.1 0.3,-0.2 0.2,-0.1 0.3,-0.2 0.5,-0.3 0.1,-0.1 0.3,-0.2 0.4,-0.3 0.2,-0.1 0.3,-0.2 0.5,-0.3 0.1,-0.1 0.3,-0.2 0.4,-0.3 0.1,-0.1 0.3,-0.2 0.4,-0.3 0.1,-0.1 0.3,-0.2 0.4,-0.3 0.1,-0.1 0.3,-0.2 0.4,-0.3 0.1,0 0.1,-0.1 0.2,-0.1 0,0 0.1,-0.1 0.1,-0.1 0.2,-0.2 0.4,-0.4 0.6,-0.6 0.1,-0.1 0.1,-0.1 0.2,-0.2 0.2,-0.3 0.5,-0.5 0.7,-0.8 0,0 0,0 0,0 0.1,-0.1 0.1,-0.1 0.1,-0.2 0.1,-0.2 0.3,-0.3 0.4,-0.5 0.1,-0.1 0.1,-0.2 0.2,-0.3 0.1,-0.2 0.2,-0.3 0.3,-0.5 0,0 0.1,-0.1 0.1,-0.1 0,-0.1 0.1,-0.1 0.1,-0.2 0.1,-0.1 0.1,-0.3 0.2,-0.4 0.1,-0.1 0.1,-0.2 0.2,-0.3 0.1,-0.1 0.1,-0.3 0.2,-0.4 0,-0.1 0.1,-0.1 0.1,-0.2 0,-0.1 0,-0.1 0.1,-0.2 0,-0.1 0.1,-0.3 0.1,-0.4 0,-0.1 0.1,-0.2 0.1,-0.4 0,-0.1 0.1,-0.3 0.1,-0.4 0,-0.1 0,-0.1 0.1,-0.2 0,0 0,-0.1 0,-0.1 0,-0.1 0,-0.3 0.1,-0.4 0,-0.1 0,-0.2 0,-0.4 0,-0.1 0,-0.3 0,-0.4 0,-0.1 0,-0.2 0,-0.2 0,-0.1 0,-0.2 0,-0.2 v -7.6 c 0.2,-0.1 0.2,0 0.2,0.2 z"
   id="path19067"
   inkscape:connector-curvature="0"
   style="fill:#efc100" />
					<g
   id="g19071">
						<path
   d="m 702.6,1040 c 10.6,6.1 10.6,16 0.1,22.2 -10.5,6.2 -27.7,6.1 -38.3,0 -10.6,-6.1 -10.7,-16 -0.1,-22.2 10.6,-6.1 27.7,-6.1 38.3,0 z"
   id="path19069"
   inkscape:connector-curvature="0"
   style="fill:#fdd400" />
					</g>
					<g
   id="g19075">
						<path
   d="m 692.4,1049.5 c 2.3,1.3 2.7,3.4 0.2,5.5 l 2.7,1.5 -2.6,1.5 -2.5,-1.4 c -1.8,1 -4,1.7 -5.5,1.9 l -2.3,-2.2 c 1.7,-0.3 3.7,-0.9 5.4,-1.8 1.5,-0.9 1.9,-1.8 0.9,-2.4 -1,-0.6 -2.5,-0.5 -5,0.3 -3.7,1.1 -6.9,1.4 -9.5,0 -2.3,-1.3 -2.5,-3.3 -0.3,-5.2 l -2.5,-1.4 2.6,-1.5 2.3,1.3 c 1.8,-1 3.4,-1.4 4.6,-1.7 l 2.2,2.2 c -1,0.2 -2.8,0.6 -4.6,1.7 -1.7,1 -1.5,1.7 -0.8,2.1 0.9,0.5 2.3,0.3 5.4,-0.5 4.3,-1.4 7,-1.3 9.3,0.1 z"
   id="path19073"
   inkscape:connector-curvature="0"
   style="fill:#ec8659" />
					</g>
				</g>
			</g>
			<g
   id="g19093">
				<g
   id="g19091">
					<path
   d="m 759.4,1012.1 c 0,0.1 0,0.3 0,0.4 0,0.1 0,0.2 0,0.4 0,0.1 0,0.3 -0.1,0.4 0,0.1 0,0.2 -0.1,0.4 0,0.1 -0.1,0.3 -0.1,0.4 0,0.1 -0.1,0.2 -0.1,0.4 0,0.1 -0.1,0.3 -0.1,0.4 0,0.1 -0.1,0.2 -0.1,0.3 -0.1,0.1 -0.1,0.3 -0.2,0.4 -0.1,0.1 -0.1,0.2 -0.2,0.3 -0.1,0.1 -0.1,0.3 -0.2,0.4 -0.1,0.1 -0.1,0.2 -0.2,0.3 -0.1,0.2 -0.2,0.3 -0.3,0.5 -0.1,0.1 -0.1,0.2 -0.2,0.3 -0.1,0.2 -0.2,0.3 -0.4,0.5 -0.1,0.1 -0.1,0.2 -0.2,0.2 -0.2,0.3 -0.5,0.5 -0.7,0.8 -0.1,0.1 -0.1,0.1 -0.2,0.2 -0.2,0.2 -0.4,0.4 -0.6,0.6 -0.1,0.1 -0.2,0.2 -0.3,0.3 -0.1,0.1 -0.3,0.2 -0.4,0.3 -0.1,0.1 -0.2,0.2 -0.4,0.3 -0.1,0.1 -0.3,0.2 -0.4,0.3 -0.1,0.1 -0.3,0.2 -0.4,0.3 -0.1,0.1 -0.3,0.2 -0.5,0.3 -0.1,0.1 -0.3,0.2 -0.4,0.3 -0.2,0.1 -0.3,0.2 -0.5,0.3 -0.2,0.1 -0.4,0.3 -0.6,0.4 -0.6,0.3 -1.2,0.7 -1.8,1 -0.2,0.1 -0.3,0.2 -0.5,0.2 -0.6,0.3 -1.1,0.5 -1.7,0.7 -0.1,0 -0.2,0.1 -0.2,0.1 -0.6,0.2 -1.3,0.5 -1.9,0.7 -0.5,0.1 -0.9,0.3 -1.4,0.4 -0.4,0.1 -0.7,0.2 -1.1,0.3 -0.5,0.1 -1,0.2 -1.5,0.3 -0.4,0.1 -0.7,0.2 -1.1,0.2 -0.2,0 -0.3,0 -0.5,0.1 -0.6,0.1 -1.2,0.2 -1.9,0.3 -0.2,0 -0.4,0 -0.6,0.1 -0.4,0 -0.7,0.1 -1.1,0.1 -0.6,0.1 -1.2,0.1 -1.8,0.1 -0.4,0 -0.8,0 -1.2,0 -0.5,0 -1,0 -1.5,0 -0.4,0 -0.8,0 -1.2,0 -0.5,0 -0.9,0 -1.4,-0.1 -0.4,0 -0.8,-0.1 -1.3,-0.1 -0.5,0 -0.9,-0.1 -1.3,-0.2 -0.4,-0.1 -0.8,-0.1 -1.2,-0.2 -0.5,-0.1 -1,-0.2 -1.4,-0.2 -0.4,-0.1 -0.8,-0.1 -1.1,-0.2 -0.6,-0.1 -1.1,-0.3 -1.7,-0.4 -0.4,-0.1 -0.7,-0.2 -1.1,-0.3 -0.2,-0.1 -0.4,-0.1 -0.6,-0.2 -0.6,-0.2 -1.1,-0.4 -1.6,-0.6 -0.2,-0.1 -0.3,-0.1 -0.5,-0.2 -0.5,-0.2 -1,-0.4 -1.4,-0.6 -0.2,-0.1 -0.5,-0.2 -0.7,-0.3 -0.7,-0.3 -1.3,-0.7 -2,-1 -3.7,-2.1 -6.1,-4.7 -7.2,-7.4 -0.5,-1.2 -0.8,-2.5 -0.8,-3.8 v 7.6 c 0,4 2.7,8.1 8,11.2 0.6,0.4 1.3,0.7 2,1 0.2,0.1 0.5,0.2 0.7,0.3 0.4,0.2 0.8,0.4 1.2,0.5 0.1,0 0.1,0.1 0.2,0.1 0.2,0.1 0.3,0.1 0.5,0.2 0.5,0.2 1.1,0.4 1.6,0.6 0.2,0.1 0.4,0.1 0.6,0.2 0.1,0 0.3,0.1 0.4,0.1 0.2,0.1 0.5,0.1 0.7,0.2 0.6,0.1 1.1,0.3 1.7,0.4 0.2,0 0.3,0.1 0.4,0.1 0.2,0 0.5,0.1 0.7,0.1 0.5,0.1 1,0.2 1.4,0.2 0.2,0 0.4,0.1 0.6,0.1 0.2,0 0.4,0 0.6,0.1 0.4,0.1 0.9,0.1 1.3,0.2 0.2,0 0.4,0.1 0.6,0.1 0.2,0 0.4,0 0.6,0 0.5,0 0.9,0.1 1.4,0.1 0.2,0 0.5,0 0.7,0 0.2,0 0.4,0 0.6,0 0.5,0 1,0 1.5,0 0.2,0 0.5,0 0.7,0 0.1,0 0.3,0 0.4,0 0.6,0 1.2,-0.1 1.8,-0.1 0.2,0 0.5,0 0.7,0 0.1,0 0.2,0 0.4,0 0.2,0 0.4,0 0.5,-0.1 0.6,-0.1 1.3,-0.2 1.9,-0.3 0.2,0 0.3,0 0.5,-0.1 0.1,0 0.1,0 0.2,0 0.3,-0.1 0.6,-0.1 0.9,-0.2 0.5,-0.1 1,-0.2 1.5,-0.3 0.4,-0.1 0.7,-0.2 1.1,-0.3 0.5,-0.1 0.9,-0.3 1.4,-0.4 0.1,0 0.2,-0.1 0.3,-0.1 0.6,-0.2 1.1,-0.4 1.6,-0.6 0.1,0 0.2,-0.1 0.2,-0.1 0.6,-0.2 1.2,-0.5 1.7,-0.7 0.2,-0.1 0.3,-0.2 0.5,-0.2 0.6,-0.3 1.2,-0.6 1.8,-1 0.1,-0.1 0.2,-0.1 0.3,-0.2 0.1,-0.1 0.2,-0.1 0.3,-0.2 0.2,-0.1 0.3,-0.2 0.5,-0.3 0.1,-0.1 0.3,-0.2 0.4,-0.3 0.2,-0.1 0.3,-0.2 0.5,-0.3 0.1,-0.1 0.3,-0.2 0.4,-0.3 0.1,-0.1 0.3,-0.2 0.4,-0.3 0.1,-0.1 0.3,-0.2 0.4,-0.3 0.1,-0.1 0.3,-0.2 0.4,-0.3 0.1,0 0.1,-0.1 0.2,-0.1 0,0 0.1,-0.1 0.1,-0.1 0.2,-0.2 0.4,-0.4 0.6,-0.6 0.1,-0.1 0.1,-0.1 0.2,-0.2 0.2,-0.3 0.5,-0.5 0.7,-0.8 0,0 0,0 0,0 0.1,-0.1 0.1,-0.1 0.1,-0.2 0.1,-0.2 0.3,-0.3 0.4,-0.5 0.1,-0.1 0.1,-0.2 0.2,-0.3 0.1,-0.2 0.2,-0.3 0.3,-0.5 0,0 0.1,-0.1 0.1,-0.1 0,-0.1 0.1,-0.1 0.1,-0.2 0.1,-0.1 0.1,-0.3 0.2,-0.4 0.1,-0.1 0.1,-0.2 0.2,-0.3 0.1,-0.1 0.1,-0.3 0.2,-0.4 0,-0.1 0.1,-0.1 0.1,-0.2 0,-0.1 0,-0.1 0.1,-0.2 0,-0.1 0.1,-0.3 0.1,-0.4 0,-0.1 0.1,-0.2 0.1,-0.4 0,-0.1 0.1,-0.3 0.1,-0.4 0,-0.1 0,-0.1 0.1,-0.2 0,0 0,-0.1 0,-0.1 0,-0.1 0,-0.3 0.1,-0.4 0,-0.1 0,-0.2 0,-0.4 0,-0.1 0,-0.3 0,-0.4 0,-0.1 0,-0.2 0,-0.2 0,-0.1 0,-0.2 0,-0.2 v -7.6 c 0.2,-0.1 0.2,0 0.2,0.2 z"
   id="path19081"
   inkscape:connector-curvature="0"
   style="fill:#efc100" />
					<g
   id="g19085">
						<path
   d="m 751.4,1000.5 c 10.6,6.1 10.6,16 0.1,22.2 -10.5,6.1 -27.7,6.1 -38.3,0 -10.6,-6.1 -10.7,-16 -0.1,-22.2 10.6,-6.2 27.7,-6.2 38.3,0 z"
   id="path19083"
   inkscape:connector-curvature="0"
   style="fill:#fdd400" />
					</g>
					<g
   id="g19089">
						<path
   d="m 741.2,1009.9 c 2.3,1.3 2.7,3.4 0.2,5.5 l 2.7,1.5 -2.6,1.5 -2.5,-1.4 c -1.8,1 -4,1.7 -5.5,1.9 l -2.3,-2.2 c 1.7,-0.3 3.7,-0.9 5.4,-1.8 1.5,-0.9 1.9,-1.8 0.9,-2.4 -1,-0.6 -2.5,-0.5 -5,0.3 -3.7,1.1 -6.9,1.4 -9.5,0 -2.3,-1.3 -2.5,-3.3 -0.3,-5.2 l -2.5,-1.4 2.6,-1.5 2.3,1.3 c 1.8,-1 3.4,-1.4 4.6,-1.7 l 2.2,2.2 c -1,0.2 -2.8,0.6 -4.6,1.7 -1.7,1 -1.5,1.7 -0.8,2.1 0.9,0.5 2.3,0.3 5.4,-0.5 4.3,-1.3 6.9,-1.2 9.3,0.1 z"
   id="path19087"
   inkscape:connector-curvature="0"
   style="fill:#ec8659" />
					</g>
				</g>
			</g>
		</g>
		<g
   id="g19109">
			<g
   id="g19105">
				<polygon
   points="960.6,997.4 970.3,991.8 970.3,963.1 960.7,968.7 "
   id="polygon19097"
   style="fill:#58bfbf" />
				<polygon
   points="839.2,991.8 849,997.4 849,968.7 839.3,963.1 "
   id="polygon19099"
   style="fill:#58bfbf" />
				<path
   d="m 877,1017 c 0,-0.1 0,-0.2 0,-0.4 0,-0.1 0,-0.3 0.1,-0.4 0,-0.1 0,-0.2 0.1,-0.4 0,-0.1 0.1,-0.3 0.1,-0.4 0,-0.1 0.1,-0.2 0.1,-0.4 0,-0.1 0.1,-0.3 0.1,-0.4 0,-0.1 0.1,-0.2 0.1,-0.4 0.1,-0.1 0.1,-0.3 0.2,-0.4 0.1,-0.1 0.1,-0.2 0.2,-0.4 0.1,-0.1 0.1,-0.3 0.2,-0.4 0.1,-0.1 0.1,-0.2 0.2,-0.3 0.1,-0.2 0.2,-0.3 0.3,-0.5 0.1,-0.1 0.1,-0.2 0.2,-0.3 0.1,-0.2 0.3,-0.4 0.4,-0.5 0.1,-0.1 0.1,-0.2 0.2,-0.2 0.2,-0.3 0.5,-0.6 0.7,-0.8 0.1,-0.1 0.1,-0.1 0.2,-0.2 0.2,-0.2 0.4,-0.4 0.6,-0.6 0.1,-0.1 0.2,-0.2 0.3,-0.3 0.1,-0.1 0.3,-0.2 0.4,-0.4 0.1,-0.1 0.3,-0.2 0.4,-0.3 0.1,-0.1 0.3,-0.2 0.4,-0.3 0.1,-0.1 0.3,-0.2 0.4,-0.3 0.2,-0.1 0.3,-0.2 0.5,-0.3 0.1,-0.1 0.3,-0.2 0.4,-0.3 0.2,-0.1 0.3,-0.2 0.5,-0.3 0.2,-0.1 0.4,-0.3 0.6,-0.4 0.4,-0.2 0.8,-0.5 1.3,-0.7 0.1,-0.1 0.3,-0.1 0.4,-0.2 0.3,-0.2 0.7,-0.3 1,-0.5 0.1,-0.1 0.2,-0.1 0.4,-0.2 0.5,-0.2 0.9,-0.4 1.4,-0.6 0.1,0 0.2,-0.1 0.3,-0.1 0.4,-0.1 0.8,-0.3 1.2,-0.4 0.2,-0.1 0.3,-0.1 0.5,-0.2 0.2,-0.1 0.5,-0.1 0.7,-0.2 0.2,-0.1 0.4,-0.1 0.6,-0.2 0.2,-0.1 0.5,-0.1 0.7,-0.2 0.2,-0.1 0.4,-0.1 0.6,-0.1 0.2,-0.1 0.5,-0.1 0.7,-0.2 0.2,0 0.4,-0.1 0.6,-0.1 0.2,-0.1 0.5,-0.1 0.7,-0.1 0.2,0 0.4,-0.1 0.6,-0.1 0.5,-0.1 1.1,-0.2 1.6,-0.3 0.1,0 0.1,0 0.2,0 0.5,-0.1 0.9,-0.1 1.4,-0.2 0.2,0 0.4,0 0.5,-0.1 0.3,0 0.6,-0.1 0.9,-0.1 0.2,0 0.4,0 0.6,0 0.3,0 0.6,0 0.9,0 0.2,0 0.4,0 0.5,0 0.3,0 0.5,0 0.8,0 0.2,0 0.4,0 0.6,0 0.3,0 0.6,0 0.9,0 0.2,0 0.3,0 0.5,0 0.9,0 1.8,0.1 2.7,0.1 0,0 0,0 0.1,0 0.9,0.1 1.8,0.2 2.7,0.3 0.1,0 0.1,0 0.2,0 0.4,0.1 0.8,0.1 1.1,0.2 0.2,0 0.3,0.1 0.5,0.1 0.3,0.1 0.6,0.1 0.9,0.2 0.2,0 0.3,0.1 0.4,0.1 0.3,0.1 0.6,0.1 0.9,0.2 0.2,0 0.3,0.1 0.5,0.1 0.3,0.1 0.6,0.1 0.8,0.2 0.2,0 0.3,0.1 0.5,0.1 0.4,0.1 0.9,0.3 1.3,0.4 0.1,0 0.2,0 0.2,0.1 0.5,0.2 1,0.4 1.5,0.5 0.1,0 0.2,0.1 0.3,0.1 0.6,0.3 1.3,0.5 1.9,0.8 0.1,0 0.1,0.1 0.2,0.1 0.6,0.3 1.2,0.6 1.8,1 5.5,3.2 8.3,7.4 8.3,11.5 l 0.1,-28.7 c 0,-4.2 -2.7,-8.4 -8.3,-11.5 -0.6,-0.3 -1.2,-0.7 -1.8,-1 -0.1,0 -0.1,-0.1 -0.2,-0.1 -0.6,-0.3 -1.2,-0.6 -1.9,-0.8 -0.1,0 -0.1,0 -0.2,-0.1 0,0 -0.1,0 -0.1,-0.1 -0.5,-0.2 -1,-0.4 -1.5,-0.5 -0.1,0 -0.2,0 -0.2,-0.1 -0.4,-0.1 -0.9,-0.3 -1.3,-0.4 -0.1,0 -0.1,0 -0.2,-0.1 -0.1,0 -0.2,0 -0.3,-0.1 -0.3,-0.1 -0.6,-0.2 -0.8,-0.2 -0.2,0 -0.3,-0.1 -0.5,-0.1 -0.3,-0.1 -0.6,-0.1 -0.9,-0.2 -0.1,0 -0.2,-0.1 -0.4,-0.1 0,0 -0.1,0 -0.1,0 -0.3,-0.1 -0.6,-0.1 -0.9,-0.2 -0.2,0 -0.3,-0.1 -0.5,-0.1 -0.4,-0.1 -0.7,-0.1 -1.1,-0.2 -0.1,0 -0.1,0 -0.2,0 0,0 0,0 0,0 -0.9,-0.1 -1.8,-0.2 -2.7,-0.3 0,0 0,0 0,0 0,0 0,0 0,0 -0.9,-0.1 -1.8,-0.1 -2.7,-0.1 0,0 0,0 0,0 -0.1,0 -0.3,0 -0.4,0 -0.3,0 -0.6,0 -0.9,0 -0.2,0 -0.4,0 -0.6,0 -0.3,0 -0.5,0 -0.8,0 -0.1,0 -0.1,0 -0.2,0 -0.1,0 -0.3,0 -0.4,0 -0.3,0 -0.6,0 -0.9,0 -0.2,0 -0.4,0 -0.6,0 -0.3,0 -0.6,0 -0.9,0.1 -0.1,0 -0.2,0 -0.3,0 -0.1,0 -0.1,0 -0.2,0 -0.5,0 -0.9,0.1 -1.4,0.2 -0.1,0 -0.1,0 -0.2,0 -0.5,0.1 -1.1,0.2 -1.6,0.3 0,0 -0.1,0 -0.1,0 -0.1,0 -0.3,0.1 -0.4,0.1 -0.2,0 -0.5,0.1 -0.7,0.1 -0.2,0 -0.4,0.1 -0.6,0.1 -0.2,0.1 -0.5,0.1 -0.7,0.2 -0.2,0 -0.4,0.1 -0.6,0.1 -0.2,0.1 -0.5,0.1 -0.7,0.2 -0.2,0.1 -0.4,0.1 -0.6,0.2 -0.2,0.1 -0.5,0.1 -0.7,0.2 -0.1,0 -0.2,0.1 -0.3,0.1 -0.1,0 -0.1,0 -0.2,0.1 -0.2,0.1 -0.5,0.2 -0.7,0.2 l 0.1,-23.6 v -7.9 l -0.1,28.7 v 2.8 c -0.2,0.1 -0.3,0.1 -0.5,0.2 -0.1,0 -0.2,0.1 -0.3,0.1 -0.5,0.2 -0.9,0.4 -1.4,0.6 -0.1,0.1 -0.2,0.1 -0.4,0.2 -0.4,0.2 -0.7,0.3 -1,0.5 -0.1,0.1 -0.3,0.1 -0.4,0.2 -0.4,0.2 -0.9,0.5 -1.3,0.7 -0.1,0.1 -0.2,0.1 -0.3,0.2 -0.1,0.1 -0.2,0.1 -0.3,0.2 -0.2,0.1 -0.3,0.2 -0.5,0.3 -0.2,0.1 -0.3,0.2 -0.4,0.3 -0.2,0.1 -0.3,0.2 -0.5,0.3 -0.1,0.1 -0.3,0.2 -0.4,0.3 -0.1,0.1 -0.3,0.2 -0.4,0.3 -0.1,0.1 -0.3,0.2 -0.4,0.3 -0.1,0.1 -0.3,0.2 -0.4,0.4 -0.1,0 -0.1,0.1 -0.2,0.1 0,0 -0.1,0.1 -0.1,0.1 -0.2,0.2 -0.4,0.4 -0.6,0.6 -0.1,0.1 -0.1,0.1 -0.2,0.2 -0.3,0.3 -0.5,0.6 -0.7,0.8 0,0 0,0 0,0 -0.1,0.1 -0.1,0.1 -0.1,0.2 -0.1,0.2 -0.3,0.4 -0.4,0.5 -0.1,0.1 -0.1,0.2 -0.2,0.3 -0.1,0.2 -0.2,0.3 -0.3,0.5 0,0 -0.1,0.1 -0.1,0.1 0,0.1 -0.1,0.1 -0.1,0.2 -0.1,0.1 -0.1,0.3 -0.2,0.4 -0.1,0.1 -0.1,0.2 -0.2,0.4 -0.1,0.1 -0.1,0.3 -0.2,0.4 0,0.1 -0.1,0.1 -0.1,0.2 0,0.1 0,0.1 -0.1,0.2 0,0.1 -0.1,0.3 -0.1,0.4 0,0.1 -0.1,0.2 -0.1,0.4 0,0.1 -0.1,0.3 -0.1,0.4 0,0.1 0,0.1 -0.1,0.2 0,0 0,0.1 0,0.1 0,0.1 0,0.3 -0.1,0.4 0,0.1 0,0.2 0,0.4 0,0.1 0,0.3 0,0.4 0,0.1 0,0.2 0,0.2 0,0.1 0,0.2 0,0.2 l -0.1,28.7 c 0,-0.2 0,-0.3 0,-0.5 -0.2,0.5 -0.1,0.4 -0.1,0.2 z"
   id="path19101"
   inkscape:connector-curvature="0"
   style="fill:#58bfbf" />
				<path
   d="m 983.3,997.6 h -13.7 c -0.2,0.5 -0.4,1 -0.6,1.5 0,0.1 -0.1,0.2 -0.1,0.2 -0.2,0.5 -0.4,0.9 -0.7,1.4 0,0.1 -0.1,0.2 -0.1,0.3 -0.3,0.5 -0.5,0.9 -0.8,1.4 0,0 0,0 0,0.1 -0.3,0.5 -0.6,0.9 -0.9,1.3 -0.1,0.1 -0.1,0.2 -0.2,0.3 -0.3,0.4 -0.6,0.9 -1,1.3 -0.1,0.1 -0.2,0.2 -0.2,0.3 -0.3,0.4 -0.6,0.7 -0.9,1.1 -0.1,0.1 -0.2,0.3 -0.4,0.4 -0.3,0.4 -0.7,0.7 -1,1.1 -0.1,0.1 -0.2,0.2 -0.3,0.3 -0.5,0.5 -0.9,0.9 -1.4,1.4 v 11.3 l -10.5,6.1 -9.7,-5.6 c -1,0.4 -2.1,0.7 -3.2,1.1 -0.3,0.1 -0.7,0.2 -1,0.3 -0.6,0.2 -1.1,0.4 -1.7,0.5 -0.4,0.1 -0.7,0.2 -1.1,0.3 -0.6,0.2 -1.2,0.3 -1.8,0.5 -0.4,0.1 -0.7,0.2 -1.1,0.3 -0.7,0.2 -1.4,0.3 -2.1,0.5 -0.3,0.1 -0.5,0.1 -0.8,0.2 -1,0.2 -2,0.4 -2.9,0.6 -0.6,0.1 -1.2,0.2 -1.8,0.3 -0.3,0 -0.6,0.1 -0.9,0.2 -0.9,0.1 -1.8,0.3 -2.7,0.4 v 7.9 h -28.6 v -7.9 c -0.7,-0.1 -1.4,-0.2 -2,-0.3 -0.7,-0.1 -1.3,-0.2 -2,-0.3 -0.4,-0.1 -0.7,-0.1 -1.1,-0.2 -0.8,-0.1 -1.5,-0.3 -2.3,-0.4 -0.2,0 -0.5,-0.1 -0.7,-0.1 -1.1,-0.2 -2.1,-0.5 -3.2,-0.7 -0.3,-0.1 -0.6,-0.1 -0.8,-0.2 -0.8,-0.2 -1.5,-0.4 -2.3,-0.6 -0.3,-0.1 -0.7,-0.2 -1,-0.3 -0.7,-0.2 -1.4,-0.4 -2.1,-0.6 -0.3,-0.1 -0.6,-0.2 -0.9,-0.3 -1,-0.3 -1.9,-0.6 -2.9,-1 l -9.6,5.6 -10.7,-6.2 v -11.2 c -3.2,-2.9 -5.6,-5.9 -7.4,-9.1 -0.6,-1.1 -1.1,-2.1 -1.5,-3.2 v 0 0 0 h -13.7 l -0.1,-16.6 -0.1,28.7 0.1,16.6 h 13 l -0.1,17.9 20.3,11.7 9.6,-5.6 c 0.9,0.3 1.9,0.7 2.9,1 0.3,0.1 0.6,0.2 0.9,0.3 0.7,0.2 1.4,0.4 2,0.6 0.2,0 0.3,0.1 0.5,0.2 0.2,0 0.3,0.1 0.5,0.1 0.8,0.2 1.5,0.4 2.3,0.6 0.3,0.1 0.6,0.1 0.8,0.2 1,0.3 2.1,0.5 3.2,0.7 0,0 0.1,0 0.1,0 0.2,0 0.4,0.1 0.6,0.1 0.8,0.2 1.5,0.3 2.3,0.4 0.4,0.1 0.7,0.1 1.1,0.2 0.7,0.1 1.3,0.2 2,0.3 0.2,0 0.4,0.1 0.5,0.1 0.5,0.1 1,0.1 1.5,0.2 v 7.9 h 28.7 v -7.9 c 0.9,-0.1 1.8,-0.2 2.7,-0.4 0.3,0 0.6,-0.1 0.9,-0.2 0.6,-0.1 1.2,-0.2 1.7,-0.3 0,0 0,0 0.1,0 1,-0.2 2,-0.4 2.9,-0.6 0.3,-0.1 0.5,-0.1 0.8,-0.2 0.7,-0.2 1.4,-0.3 2.1,-0.5 0.4,-0.1 0.7,-0.2 1.1,-0.3 0.6,-0.2 1.2,-0.3 1.8,-0.5 0.4,-0.1 0.7,-0.2 1.1,-0.3 0.6,-0.2 1.2,-0.3 1.7,-0.5 0.2,-0.1 0.4,-0.1 0.6,-0.2 0.1,0 0.3,-0.1 0.4,-0.1 1.1,-0.4 2.1,-0.7 3.2,-1.1 l 9.7,5.6 20.2,-11.7 0.1,-17.9 h 12.7 z"
   id="path19103"
   inkscape:connector-curvature="0"
   style="fill:#58bfbf" />
			</g>
			<path
   d="m 969.6,997.6 h 13.7 L 983.2,981 h -13.7 c -1.7,-4.3 -4.6,-8.5 -8.9,-12.3 l 9.6,-5.6 -20.2,-11.7 -9.6,5.6 c -6.6,-2.4 -13.8,-4.1 -21.3,-5.1 V 944 h -28.7 v 7.9 c -7.4,0.9 -14.6,2.6 -21.2,5.1 l -9.7,-5.6 -20.2,11.7 9.7,5.6 c -4.2,3.8 -7.1,8 -8.7,12.3 h -13.7 l 0.1,16.6 h 13.7 c 1.7,4.3 4.6,8.5 8.9,12.3 l -9.6,5.6 20.3,11.7 9.6,-5.6 c 6.6,2.4 13.8,4.1 21.3,5.1 v 7.9 h 28.7 v -7.9 c 7.4,-0.9 14.6,-2.6 21.2,-5.1 l 9.7,5.6 20.2,-11.7 -9.7,-5.6 c 4.1,-3.8 7,-8 8.6,-12.3 z m -44.8,3.2 c -10.9,6.3 -28.6,6.3 -39.6,0 -11,-6.3 -11,-16.6 -0.1,-22.9 10.9,-6.3 28.6,-6.3 39.6,0 11,6.3 11,16.6 0.1,22.9 z"
   id="path19107"
   inkscape:connector-curvature="0"
   style="fill:#77d9dc" />
		</g>
		<g
   id="g19113">
			<polygon
   points="880.8,664.3 691.9,773.3 692.4,920.1 881.2,811 "
   id="polygon19111"
   style="fill:#e8f9ff" />
		</g>
		<polygon
   points="880.9,705 692.1,814.1 691.9,773.3 880.8,664.3 "
   id="polygon19115"
   style="fill:#73d9fe" />
		<g
   id="g19119">
			<polygon
   points="712.8,830.5 793.4,783.9 793.4,790.7 712.8,837.3 "
   id="polygon19117"
   style="fill:#dcdcdb" />
		</g>
		<g
   id="g19123">
			<polygon
   points="712.8,845.9 793.4,799.3 793.4,806.2 712.8,852.7 "
   id="polygon19121"
   style="fill:#dcdcdb" />
		</g>
		<g
   id="g19127">
			<polygon
   points="712.8,861.3 793.4,814.7 793.4,821.6 712.8,868.1 "
   id="polygon19125"
   style="fill:#dcdcdb" />
		</g>
		<g
   id="g19131">
			<polygon
   points="712.8,876.7 793.4,830.2 793.4,837 712.8,883.5 "
   id="polygon19129"
   style="fill:#dcdcdb" />
		</g>
		<g
   id="g19149">
			<g
   id="g19135">
				<polygon
   points="822.7,818.9 822.5,782.3 829.2,778.5 829.4,815.1 "
   id="polygon19133"
   style="fill:#fa6b5c" />
			</g>
			<g
   id="g19139">
				<polygon
   points="834.5,812.1 834.3,748.4 840.6,744.8 840.8,808.4 "
   id="polygon19137"
   style="fill:#fed22c" />
			</g>
			<g
   id="g19143">
				<polygon
   points="847.4,804.6 847.2,750.7 854.6,746.4 854.8,800.4 "
   id="polygon19141"
   style="fill:#efa6ff" />
			</g>
			<g
   id="g19147">
				<polygon
   points="859,797.9 859,778.1 865.7,774.3 865.7,794 "
   id="polygon19145"
   style="fill:#4367c7" />
			</g>
		</g>
		<g
   id="g19165">
			<g
   enable-background="new    "
   id="g19163">
				<g
   id="g19153">
					<polygon
   points="1053.4,531.9 758.8,361.8 759.4,146.2 1054.1,316.3 "
   id="polygon19151"
   style="fill:#f7f8f8" />
				</g>
				<g
   id="g19157">
					<polygon
   points="1064.2,310.4 1063.6,526 1053.4,531.9 1054.1,316.3 "
   id="polygon19155"
   style="fill:#fedb59" />
				</g>
				<g
   id="g19161">
					<polygon
   points="769.6,140.3 1064.2,310.4 1054.1,316.3 759.4,146.2 "
   id="polygon19159"
   style="fill:#fedb59" />
				</g>
			</g>
		</g>
		<g
   id="g19261">
			<g
   enable-background="new    "
   id="g19243">
				<g
   id="g19169">
					<polygon
   points="838.2,380 820.1,369.5 820.1,343.1 838.3,353.5 "
   id="polygon19167"
   style="fill:#91b9ff" />
				</g>
				<g
   id="g19173">
					<polygon
   points="845.9,347.3 864,357.7 863.9,394.9 845.8,384.4 "
   id="polygon19171"
   style="fill:#91b9ff" />
				</g>
				<g
   id="g19177">
					<polygon
   points="864.1,337.9 864,355.2 845.9,344.7 845.9,327.4 "
   id="polygon19175"
   style="fill:#91b9ff" />
				</g>
				<g
   id="g19181">
					<polygon
   points="889.6,409.7 871.5,399.2 871.6,381.7 889.7,392.2 "
   id="polygon19179"
   style="fill:#91b9ff" />
				</g>
				<g
   id="g19185">
					<polygon
   points="897.3,376.9 915.4,387.4 915.3,424.5 897.2,414.1 "
   id="polygon19183"
   style="fill:#91b9ff" />
				</g>
				<g
   id="g19189">
					<polygon
   points="915.5,358.5 915.4,384.8 897.3,374.4 897.4,348 "
   id="polygon19187"
   style="fill:#91b9ff" />
				</g>
				<g
   id="g19193">
					<polygon
   points="923,391.8 941.1,402.3 941,439.4 922.9,428.9 "
   id="polygon19191"
   style="fill:#91b9ff" />
				</g>
				<g
   id="g19197">
					<polygon
   points="948.7,406.6 966.9,417.1 966.7,454.2 948.6,443.8 "
   id="polygon19195"
   style="fill:#91b9ff" />
				</g>
				<g
   id="g19201">
					<polygon
   points="923.1,352.1 941.3,362.5 941.2,399.7 923,389.2 "
   id="polygon19199"
   style="fill:#91b9ff" />
				</g>
				<g
   id="g19205">
					<polygon
   points="992.5,469.1 1018.8,484.3 1018.8,486.9 793.7,356.9 793.7,354.3 820.1,369.5 838.2,380 845.8,384.4 863.9,394.9 871.5,399.2 889.6,409.7 897.2,414.1 915.3,424.5 922.9,428.9 941,439.4 948.6,443.8 966.7,454.2 974.3,458.6 "
   id="polygon19203"
   style="fill:#91b9ff" />
				</g>
				<g
   id="g19209">
					<polygon
   points="966.9,394.4 966.9,414.5 948.7,404 948.8,383.9 "
   id="polygon19207"
   style="fill:#91b9ff" />
				</g>
				<g
   id="g19213">
					<polygon
   points="941.3,345.1 941.3,360 923.1,349.5 923.2,334.6 "
   id="polygon19211"
   style="fill:#91b9ff" />
				</g>
				<g
   id="g19217">
					<polygon
   points="974.4,421.5 992.6,431.9 992.5,469.1 974.3,458.6 "
   id="polygon19215"
   style="fill:#91b9ff" />
				</g>
				<g
   id="g19221">
					<polygon
   points="992.6,404.5 992.6,429.4 974.4,418.9 974.4,394 "
   id="polygon19219"
   style="fill:#91b9ff" />
				</g>
				<g
   id="g19225">
					<polygon
   points="948.7,406.6 941.1,402.3 923,391.8 915.4,387.4 897.3,376.9 864,357.7 845.9,347.3 793.8,317.2 793.9,314.6 845.9,344.7 864,355.2 897.3,374.4 915.4,384.8 923,389.2 941.2,399.7 948.7,404 966.9,414.5 974.4,418.9 992.6,429.4 1018.9,444.6 1018.9,447.1 992.6,431.9 974.4,421.5 966.9,417.1 "
   id="polygon19223"
   style="fill:#91b9ff" />
				</g>
				<g
   id="g19229">
					<polygon
   points="933.4,287.2 882.5,257.8 882.5,252.7 933.4,282.1 "
   id="polygon19227"
   style="fill:#91b9ff" />
				</g>
				<g
   id="g19233">
					<polygon
   points="949,306.9 882.4,268.5 882.5,263.4 949,301.8 "
   id="polygon19231"
   style="fill:#91b9ff" />
				</g>
				<g
   id="g19237">
					<polygon
   points="794,274.9 923.1,349.5 941.3,360 1019,404.8 1019,407.4 941.3,362.5 923.1,352.1 794,277.5 "
   id="polygon19235"
   style="fill:#91b9ff" />
				</g>
				<g
   id="g19241">
					<polygon
   points="1019.1,367.7 794.1,237.8 794.1,235.2 1019.1,365.1 "
   id="polygon19239"
   style="fill:#91b9ff" />
				</g>
			</g>
			<g
   id="g19247">
				<polygon
   points="794.2,206.8 794.2,201.7 845.1,231.1 845.1,236.2 "
   id="polygon19245"
   style="fill:#91b9ff" />
			</g>
			<g
   id="g19251">
				<polygon
   points="794.1,217.5 794.1,212.4 860.7,250.9 860.7,255.9 "
   id="polygon19249"
   style="fill:#91b9ff" />
			</g>
			<g
   id="g19255">
				<polygon
   points="794.2,196.5 794.2,191.2 823.8,208.3 823.8,213.5 "
   id="polygon19253"
   style="fill:#91b9ff" />
			</g>
			<g
   id="g19259">
				<polygon
   points="882.5,247.4 882.5,242.2 912.1,259.3 912.1,264.5 "
   id="polygon19257"
   style="fill:#91b9ff" />
			</g>
		</g>
		<g
   id="g19277">
			<path
   d="m 645.5,325.3 c 0,0 -12.9,-8.6 -24.2,-20.7 0,0 -7.6,-0.5 -12.3,-3.9 -4.6,-3.5 -4.6,-3.7 -5.3,-5.3 -0.7,-1.6 -1.9,-5.8 -1.9,-5.8 0,0 -5.6,-1.9 -7.2,-4.4 -1.6,-2.5 3,-2.3 6.5,-0.9 3.5,1.4 11.6,5.6 11.6,5.6 0,0 9.3,3.7 12,5.6 2.8,1.9 26.4,14.8 26.4,14.8 z"
   id="path19263"
   inkscape:connector-curvature="0"
   style="fill:#f0c7ad" />
			<path
   d="m 677.9,470.6 c 0,0 -10.1,-1 -16.1,-1.6 0,0 -5,-0.8 -5.4,3.8 -0.3,4.7 2.6,8.1 10.7,12.2 l 10.7,4.7 c 0,0 4.1,2.8 7.8,2.8 3.8,0 6.6,-1.3 6.9,-4.1 v -24.2 z"
   id="path19265"
   inkscape:connector-curvature="0"
   style="fill:#fefbf0" />
			<path
   d="m 698.2,456.4 c 0,0 -10.1,-1 -16.1,-1.6 0,0 -5,-0.8 -5.4,3.8 -0.3,4.7 2.6,8.1 10.7,12.2 l 10.7,4.7 c 0,0 4.1,2.8 7.8,2.8 3.7,0 6.6,-1.3 6.9,-4.1 V 450 Z"
   id="path19267"
   inkscape:connector-curvature="0"
   style="fill:#fefbf0" />
			<path
   d="m 667.2,355.1 -3.1,-0.6 c 0,0 -0.9,21.4 1.6,37.1 2.5,15.7 4.1,30.2 7.9,48.2 3.8,17.9 1.9,33 1.9,33 0,0 -0.3,6 6,7.9 6.3,1.9 11.3,-4.1 11.3,-4.1 0,0 -0.9,-49.4 -1.3,-55.7 -0.3,-6.3 -3.5,-17 -3.5,-17 0,0 4.4,8.8 6,18.3 v 39.7 c 0,0 0.6,5 8.5,6 7.9,0.9 10.5,-6.3 10.5,-6.3 v -33.7 c 0,0 -1.2,-10.8 -2.5,-20.6 -1.1,-8.2 -1.1,-16.6 0.1,-24.8 1.6,-11.2 3.5,-27.2 2.4,-36.4 -1.7,-0.5 -45.8,9 -45.8,9 z"
   id="path19269"
   inkscape:connector-curvature="0"
   style="fill:#fedb59" />
			<path
   d="m 670.7,240.8 v 12 c 0,0 -1.3,11 5.7,11 v 9.4 h 17.3 v -10.4 l -14.8,-24.5 -8.3,-2.2 z"
   id="path19271"
   inkscape:connector-curvature="0"
   style="fill:#f0c7ad" />
			<path
   d="m 670.7,240.8 c 0,0 0.9,0 2.2,1.9 1.3,1.9 2.2,5.7 2.2,5.7 0,0 1.9,-0.3 2.8,2.5 0.9,2.8 0.9,2.8 0.9,2.8 0,0 5.4,1.6 6.9,5 1.6,3.5 4.1,4.7 7.9,4.1 0,0 3.8,-0.6 6.3,-6.6 2.5,-6 4.1,-14.8 -1.6,-21.4 -5.7,-6.6 -9.1,-7.6 -18.3,-7.6 -9,0.1 -12.5,9.9 -9.3,13.6 z"
   id="path19273"
   inkscape:connector-curvature="0"
   style="fill:#713d22" />
			<path
   d="m 682.1,270.7 c 0,0 -7.4,1.9 -17.7,10.7 -10.4,8.8 -18.9,28.6 -18.9,28.6 0,0 -4.1,7.9 -1.9,12.6 0,0 2.5,4.7 6,4.7 3.5,0 10.8,-8.2 12.9,-11 2.2,-2.8 3.7,-4.7 3.7,-4.7 0,0 0.6,9.4 0,15.7 -0.6,6.3 -2.2,27.1 -2.2,27.1 0,0 0.1,14.2 6.5,20.1 6.4,6 16.8,0.3 25,-3.1 8.2,-3.5 13.8,-9.1 15.7,-12.3 1.9,-3.1 2.5,-18.9 0,-27.7 -2.5,-8.8 -4.4,-19.5 -2.5,-29.3 1.9,-9.8 6.3,-21.4 1.9,-31.5 -4.4,-10.1 -16.5,-6.1 -28.5,0.1 z"
   id="path19275"
   inkscape:connector-curvature="0"
   style="fill:#4b4b4b" />
		</g>
		<g
   id="g19281">
			<polygon
   points="768.9,570.2 853.3,618.9 769.5,667.7 685.1,618.9 "
   id="polygon19279"
   style="fill:#cbaf46" />
		</g>
		<g
   id="g19285">
			<polygon
   points="769.5,667.7 853.3,618.9 852.5,642.3 768.7,691.1 "
   id="polygon19283"
   style="fill:#fedb59" />
		</g>
		<g
   id="g19289">
			<polygon
   points="685.1,618.9 769.5,667.7 768.7,691.1 684.3,642.3 "
   id="polygon19287"
   style="fill:#b89030" />
		</g>
		<path
   d="m 774,610.3 c 3.6,2.1 9.3,2.1 12.9,0 3.5,-2.1 3.5,-5.4 0,-7.5 -3.6,-2.1 -9.3,-2.1 -12.9,0 -3.6,2.1 -3.6,5.4 0,7.5 z"
   id="path19291"
   inkscape:connector-curvature="0"
   style="fill:#e8f9ff" />
		<polygon
   points="791.2,644.9 805.2,636.7 803.5,619.9 758.6,619.9 758.9,601.6 730.2,601.2 700.5,618.4 768.9,657.8 "
   id="polygon19293"
   style="fill:#e8f9ff" />
	</g>
	<g
   id="g19299"
   transform="translate(560)">
		<polygon
   points="838.3,1124.1 771.8,1162.8 704.9,1124.1 771.4,1085.5 "
   id="polygon19297"
   style="fill:#91b9ff" />
	</g>
	<g
   id="g19303"
   transform="translate(560)">
		<polygon
   points="838.3,1124.1 837.7,1143.4 771.2,1182.1 771.8,1162.8 "
   id="polygon19301"
   style="fill:#5678b5" />
	</g>
	<g
   id="g19307"
   transform="translate(560)">
		<polygon
   points="771.8,1162.8 771.2,1182.1 704.3,1143.4 704.9,1124.1 "
   id="polygon19305"
   style="fill:#668ed6" />
	</g>
	<g
   id="g19311"
   transform="translate(560)">
		<polygon
   points="901.3,1108.7 834.9,1147.3 768,1108.7 834.4,1070.1 "
   id="polygon19309"
   style="fill:#fedb59" />
	</g>
	<g
   id="g19315"
   transform="translate(560)">
		<polygon
   points="901.3,1108.7 900.7,1128 834.2,1166.6 834.9,1147.3 "
   id="polygon19313"
   style="fill:#b89030" />
	</g>
	<g
   id="g19319"
   transform="translate(560)">
		<polygon
   points="834.9,1147.3 834.2,1166.6 767.3,1128 768,1108.7 "
   id="polygon19317"
   style="fill:#cbaf46" />
	</g>
</g>
<rect
   style="fill:#dde2e6;fill-opacity:1;fill-rule:evenodd"
   id="rect20016"
   width="286.22882"
   height="207.62712"
   x="1755.9323"
   y="1236.8644" /></svg>