<?xml version="1.0" encoding="UTF-8" standalone="no"?>
<!-- Generator: Adobe Illustrator 19.0.0, SVG Export Plug-In . SVG Version: 6.00 Build 0)  -->

<svg
   xmlns:dc="http://purl.org/dc/elements/1.1/"
   xmlns:cc="http://creativecommons.org/ns#"
   xmlns:rdf="http://www.w3.org/1999/02/22-rdf-syntax-ns#"
   xmlns:svg="http://www.w3.org/2000/svg"
   xmlns="http://www.w3.org/2000/svg"
   xmlns:sodipodi="http://sodipodi.sourceforge.net/DTD/sodipodi-0.dtd"
   xmlns:inkscape="http://www.inkscape.org/namespaces/inkscape"
   version="1.1"
   id="Layer_1"
   x="0px"
   y="0px"
   width="1400px"
   height="978px"
   viewBox="0 0 1400 978"
   enable-background="new 0 0 1400 978"
   xml:space="preserve"
   sodipodi:docname="hero3.svg"
   inkscape:version="0.92.4 (5da689c313, 2019-01-14)"><metadata
   id="metadata17208"><rdf:RDF><cc:Work
       rdf:about=""><dc:format>image/svg+xml</dc:format><dc:type
         rdf:resource="http://purl.org/dc/dcmitype/StillImage" /><dc:title></dc:title></cc:Work></rdf:RDF></metadata><defs
   id="defs17206" /><sodipodi:namedview
   pagecolor="#ffffff"
   bordercolor="#666666"
   borderopacity="1"
   objecttolerance="10"
   gridtolerance="10"
   guidetolerance="10"
   inkscape:pageopacity="0"
   inkscape:pageshadow="2"
   inkscape:window-width="4096"
   inkscape:window-height="2230"
   id="namedview17204"
   showgrid="false"
   inkscape:zoom="1.3650487"
   inkscape:cx="928.46665"
   inkscape:cy="489"
   inkscape:window-x="2736"
   inkscape:window-y="0"
   inkscape:window-maximized="1"
   inkscape:current-layer="g17200" />
<g
   id="XMLID_1_">
	<rect
   id="XMLID_199_"
   x="0.30000001"
   width="1400"
   height="980"
   y="0"
   style="clip-rule:evenodd;fill:none;fill-rule:evenodd" />
	<g
   id="g17200">
		
		
		
		
		<path
   d="m 523.4,708.3 -17.1,-7.9 c -3,-1.4 -3,-5.6 0,-7 l 212,-122.9 c 0.5,-0.2 1,-0.3 1.6,-0.3 0.5,0 1.1,0.1 1.6,0.4 l 5.7,2.9 -201.3,116.4 c -0.1,0.1 -0.3,0.1 -0.4,0.2 -4.3,1.3 -6.9,5.6 -6.2,10.7 0.5,2.9 2,5.5 4.1,7.5 m 81.7,37.6 -74.1,-34.2 c 0.2,0 0.5,0 0.7,0 0,0 0,0 0,0 1.4,0 2.7,-0.3 3.8,-0.8 v 0 l 8.3,-3.8 z m 4.3,1.6 c -0.5,0 -0.9,-0.1 -1.3,-0.2 0.5,0.1 1,0.2 1.6,0.2 0.2,0 0.5,0 0.7,0 -0.3,0 -0.6,0 -1,0 z"
   id="path17102"
   inkscape:connector-curvature="0"
   style="clip-rule:evenodd;fill:#b8bbbb;fill-rule:evenodd" />
		<polygon
   id="XMLID_191_"
   points="563.2,689.1 529.4,704.6 535.5,711 569.3,695.6 "
   style="clip-rule:evenodd;fill:#9c9791;fill-rule:evenodd" />
		<path
   id="XMLID_190_"
   d="M 727.1,576.1 525.9,690.6 c -1.5,0.7 -1.5,4.7 0,5.4 l 80.4,50.7 c 2.1,1 4.5,1 6.6,0 L 812.4,631 c 1.5,-0.7 1.8,-4.6 0.3,-5.2 l -82.3,-49.7 c -1,-0.5 -2.2,-0.5 -3.3,0"
   inkscape:connector-curvature="0"
   style="clip-rule:evenodd;fill:#f0f1f1;fill-rule:evenodd" />
		<path
   id="XMLID_189_"
   d="M 727.1,573.5 525.9,689.9 c -1.5,0.7 -1.5,2.7 0,3.4 l 80.4,50.7 c 2.1,1 4.5,1 6.6,0 L 812.4,628.3 c 1.5,-0.7 1.5,-2.8 0,-3.4 l -82.1,-51.5 c -0.9,-0.4 -2.1,-0.4 -3.2,0.1"
   inkscape:connector-curvature="0"
   style="clip-rule:evenodd;fill:#cacdcd;fill-rule:evenodd" />
		<path
   d="m 561.2,710.5 c -1.3,-0.8 -2.6,-1.6 -3.8,-2.3 1.3,0.7 2.6,1.6 3.8,2.3 m 200.1,-71 c -1.1,0.6 -1.3,1.5 -0.5,2.1 0.3,0.2 0.6,0.4 0.9,0.6 0.9,0.6 2.6,0.5 3.7,-0.2 2.2,-1.2 4.4,-2.5 6.7,-3.7 1,-0.6 1.2,-1.4 0.5,-1.9 -0.4,-0.2 -0.7,-0.5 -1,-0.7 -0.9,-0.6 -2.6,-0.5 -3.8,0.1 -2.2,1.3 -4.4,2.5 -6.5,3.7 z m -103.9,52 c -1.1,0.6 -1.3,1.6 -0.4,2.1 2.2,1.4 4.4,2.8 6.7,4.2 0.8,0.5 2.4,0.5 3.5,-0.1 19.7,-11 39.6,-22.1 59.8,-33.4 1.2,-0.6 1.4,-1.6 0.6,-2.2 -2.3,-1.5 -4.5,-2.9 -6.7,-4.4 -0.9,-0.6 -2.5,-0.5 -3.6,0.1 -20.3,11.4 -40.2,22.6 -59.9,33.7 z m 84.8,-47.7 c -1.2,0.6 -1.4,1.6 -0.5,2.2 2.2,1.5 4.4,3 6.7,4.4 0.8,0.6 2.5,0.5 3.6,-0.1 2.5,-1.4 5,-2.8 7.5,-4.2 1.1,-0.7 1.4,-1.6 0.5,-2.2 -2.2,-1.5 -4.5,-3 -6.7,-4.5 -0.9,-0.6 -2.5,-0.5 -3.7,0.1 -2.4,1.5 -4.9,2.9 -7.4,4.3 z m -100.9,56.7 c -1.1,0.6 -1.3,1.5 -0.4,2.1 2.2,1.4 4.4,2.8 6.6,4.2 0.9,0.5 2.4,0.5 3.5,-0.1 2.9,-1.6 5.9,-3.3 8.9,-5 1.1,-0.6 1.3,-1.6 0.5,-2.1 -2.3,-1.4 -4.5,-2.8 -6.7,-4.2 -0.8,-0.6 -2.5,-0.5 -3.5,0.1 -3,1.7 -6,3.3 -8.9,5 z m 83.5,-46.9 c -1.1,0.6 -1.4,1.6 -0.5,2.2 2.2,1.5 4.5,3 6.7,4.4 0.9,0.6 2.5,0.5 3.6,-0.1 3.3,-1.8 6.5,-3.6 9.8,-5.4 1.2,-0.7 1.4,-1.7 0.6,-2.2 -2.2,-1.4 -4.4,-2.9 -6.6,-4.4 -0.9,-0.6 -2.5,-0.5 -3.7,0.1 -3.4,1.8 -6.6,3.6 -9.9,5.4 z m -121.1,56.7 c -0.8,-0.5 -2.4,-0.5 -3.5,0.1 -4.8,2.7 -9.6,5.4 -14.3,8.1 -1.1,0.6 -1.2,1.5 -0.4,2 1.8,1.1 3.6,2.2 5.4,3.3 0.8,0.5 2.4,0.5 3.5,-0.1 4.7,-2.6 9.4,-5.3 14.1,-8 1.1,-0.6 1.2,-1.5 0.4,-2 -1.7,-1.1 -3.4,-2.2 -5.2,-3.4 z m 22.8,-1.5 c -1.1,0.6 -1.2,1.5 -0.4,2.1 2.2,1.4 4.4,2.8 6.6,4.2 0.8,0.5 2.4,0.5 3.5,-0.1 2.6,-1.4 5.1,-2.8 7.7,-4.3 1,-0.6 1.2,-1.5 0.4,-2.1 -2.2,-1.4 -4.5,-2.8 -6.7,-4.2 -0.8,-0.5 -2.4,-0.5 -3.5,0.1 -2.5,1.5 -5.1,2.9 -7.6,4.3 z m -13.7,7.7 c -1.1,0.6 -1.2,1.5 -0.4,2 2.2,1.4 4.4,2.8 6.6,4.1 0.8,0.5 2.4,0.5 3.5,-0.1 2.2,-1.2 4.4,-2.5 6.6,-3.7 1.1,-0.6 1.2,-1.5 0.4,-2 -2.2,-1.4 -4.4,-2.8 -6.6,-4.1 -0.8,-0.5 -2.4,-0.5 -3.5,0.1 -2.2,1.3 -4.4,2.5 -6.6,3.7 z m -15.8,8.9 c -1,0.6 -1.2,1.5 -0.3,2 2.2,1.4 4.4,2.7 6.6,4.1 0.8,0.5 2.4,0.5 3.4,-0.1 3,-1.6 5.9,-3.2 8.8,-4.9 1,-0.6 1.2,-1.5 0.3,-2 -2.2,-1.4 -4.4,-2.8 -6.6,-4.1 -0.8,-0.5 -2.4,-0.5 -3.5,0.1 -2.9,1.6 -5.8,3.2 -8.7,4.9 z m 94.7,-91.9 c -0.7,0 -1.2,0 -2.3,0.6 -2.6,1.5 -5.2,3 -7.8,4.5 -1.1,0.7 -1.4,1.7 -0.5,2.2 1.3,0.8 2.5,1.7 3.8,2.5 0.9,0.6 1.7,0.7 1.7,0.7 0,0 1,0 2.1,-0.6 2.6,-1.5 5.2,-2.9 7.8,-4.4 1.1,-0.7 1.3,-1.7 0.5,-2.2 -1.3,-0.8 -2.5,-1.7 -3.8,-2.5 -0.8,-0.6 -0.8,-0.8 -1.5,-0.8 z m 81.1,-0.4 c -0.9,0.5 -1.1,1.3 -0.4,1.7 0.4,0.3 0.8,0.5 1.1,0.8 0.9,0.6 2.7,0.5 4,-0.2 2.3,-1.3 4.7,-2.6 7,-3.9 0.8,-0.5 1.1,-1.2 0.4,-1.7 -0.4,-0.2 -0.7,-0.5 -1.1,-0.8 -0.9,-0.6 -2.7,-0.6 -4,0.2 -2.3,1.3 -4.7,2.6 -7,3.9 z m -106.9,14.5 c -1.1,0.6 -1.4,1.6 -0.5,2.2 1.4,0.9 2.8,1.8 4.1,2.7 0.9,0.6 1.7,0.5 1.7,0.6 0,0 0.8,0 1.9,-0.7 2.7,-1.6 5.5,-3.1 8.2,-4.7 1.1,-0.6 1.3,-1.6 0.5,-2.2 -1.4,-0.9 -2.7,-1.8 -4.1,-2.7 -0.9,-0.6 -2.5,-0.5 -3.6,0.1 -2.7,1.6 -5.5,3.2 -8.2,4.7 z m -5.4,3.6 c 0,0 -0.8,0.1 -2,0.7 -2.7,1.6 -5.4,3.1 -8.1,4.7 -1.1,0.6 -1.3,1.6 -0.4,2.2 1.3,0.9 2.7,1.8 4.1,2.7 0.9,0.6 2.5,0.5 3.6,-0.1 2.7,-1.5 5.4,-3.1 8.1,-4.6 1.1,-0.6 1.3,-1.6 0.4,-2.2 -1.3,-0.9 -2.7,-1.7 -4,-2.6 -0.8,-0.7 -1.7,-0.8 -1.7,-0.8 z m 68.8,-30.9 c 1.2,-0.7 1.4,-1.7 0.5,-2.3 -1.4,-0.9 -2.8,-1.9 -4.1,-2.8 -0.9,-0.6 -2.5,-0.5 -3.7,0.1 -2.8,1.6 -5.6,3.2 -8.5,4.8 -1.2,0.7 -1.4,1.7 -0.5,2.3 1.4,0.9 2.8,1.9 4.2,2.8 0.8,0.6 2.5,0.5 3.7,-0.1 2.8,-1.5 5.6,-3.2 8.4,-4.8 z m -20.9,3.7 c -0.5,-0.1 -1.2,-0.1 -2.3,0.6 -3.1,1.8 -6.1,3.5 -9.1,5.3 -1.2,0.6 -1.4,1.7 -0.5,2.2 1.3,0.9 2.7,1.8 4.1,2.7 0.8,0.5 1.7,0.5 1.8,0.5 0,0 0,0 0,0 0,0 0.7,0.1 1.8,-0.6 3,-1.7 6,-3.4 9,-5.1 1.2,-0.7 1.4,-1.7 0.5,-2.3 -1.3,-0.8 -2.5,-1.6 -3.7,-2.5 -0.8,-0.6 -1.2,-0.7 -1.6,-0.8 z m 78,4.6 c 0.9,0.6 2.6,0.5 3.8,-0.2 2.1,-1.2 4.3,-2.4 6.5,-3.7 0.8,-0.4 0.9,-1 0.4,-1.4 -0.5,-0.3 -0.9,-0.6 -1.4,-1 -0.8,-0.6 -2.6,-0.6 -3.8,0.1 -2.3,1.3 -4.5,2.5 -6.7,3.8 -0.6,0.3 -0.8,0.9 -0.3,1.2 0.4,0.5 0.9,0.9 1.5,1.2 z m -59.7,-3.5 c -1.2,0.7 -1.4,1.7 -0.5,2.3 1.8,1.2 3.6,2.4 5.4,3.6 0.9,0.6 2.5,0.5 3.7,-0.2 3.1,-1.8 6.2,-3.5 9.3,-5.3 1.1,-0.7 1.4,-1.7 0.5,-2.3 -1.8,-1.2 -3.6,-2.4 -5.4,-3.6 -0.9,-0.6 -2.6,-0.5 -3.7,0.2 -3.1,1.8 -6.2,3.5 -9.3,5.3 z m -69.1,11.4 c 1.1,-0.7 1.3,-1.7 0.4,-2.2 -0.6,-0.4 -1.2,-0.8 -1.9,-1.2 -0.9,-0.6 -2.6,-0.5 -3.7,0.1 -3.4,2 -6.7,3.9 -10.1,5.9 -1.1,0.6 -1.3,1.6 -0.4,2.2 0.6,0.4 1.2,0.8 1.9,1.2 0.9,0.6 2.5,0.5 3.7,-0.1 3.4,-2 6.7,-3.9 10.1,-5.9 z m 50.7,-29.4 c 1.2,-0.7 1.4,-1.7 0.5,-2.3 -0.6,-0.4 -1.3,-0.8 -1.9,-1.3 -0.8,-0.6 -2.5,-0.5 -3.7,0.1 -3.5,2.1 -7.1,4.1 -10.6,6.2 -1.2,0.7 -1.4,1.7 -0.5,2.3 0.6,0.4 1.2,0.8 1.9,1.3 0.9,0.6 2.6,0.5 3.7,-0.1 3.5,-2.1 7.1,-4.1 10.6,-6.2 z M 742,587.5 c 1.2,-0.7 1.4,-1.8 0.5,-2.4 -0.6,-0.4 -1.3,-0.8 -1.9,-1.3 -0.9,-0.6 -2.5,-0.6 -3.8,0.2 -3.3,1.9 -6.5,3.8 -9.8,5.7 -1.2,0.7 -1.4,1.7 -0.5,2.3 0.6,0.4 1.2,0.9 1.9,1.3 0.8,0.6 2.5,0.5 3.7,-0.1 3.4,-1.8 6.6,-3.7 9.9,-5.7 z m -17.6,10.3 c 1.2,-0.7 1.4,-1.7 0.5,-2.4 -0.7,-0.4 -1.2,-0.8 -1.9,-1.3 -0.9,-0.6 -2.6,-0.6 -3.7,0.1 -2.8,1.6 -5.6,3.3 -8.4,4.9 -1.2,0.7 -1.4,1.7 -0.5,2.3 0.6,0.5 1.2,0.8 1.9,1.3 0.9,0.6 2.6,0.6 3.7,-0.1 2.8,-1.5 5.6,-3.2 8.4,-4.8 z m -34.3,19.9 c 1.1,-0.7 1.3,-1.7 0.5,-2.3 -0.7,-0.4 -1.3,-0.8 -1.9,-1.3 -0.9,-0.6 -2.6,-0.5 -3.7,0.1 -3,1.7 -5.9,3.5 -8.9,5.2 -1.1,0.7 -1.3,1.7 -0.5,2.3 0.6,0.4 1.2,0.9 1.9,1.3 0.9,0.6 2.6,0.5 3.7,-0.1 2.9,-1.8 5.9,-3.5 8.9,-5.2 z m -16.5,9.5 c 1.1,-0.7 1.4,-1.7 0.4,-2.3 -0.6,-0.4 -1.2,-0.8 -1.8,-1.2 -0.9,-0.6 -2.5,-0.5 -3.7,0.1 -2.9,1.7 -5.7,3.3 -8.6,5 -1.2,0.7 -1.3,1.7 -0.4,2.3 0.6,0.4 1.2,0.8 1.9,1.2 0.9,0.6 2.6,0.5 3.7,-0.1 2.8,-1.6 5.7,-3.3 8.5,-5 z m 77.8,6.1 c 0.9,0.6 1.8,0.5 1.9,0.5 0,0 0.8,0.1 2,-0.6 9.7,-5.5 19.5,-11 29.3,-16.5 1.2,-0.7 1.5,-1.7 0.6,-2.3 -1.8,-1.2 -3.6,-2.5 -5.4,-3.7 -0.9,-0.6 -2.5,-0.5 -3.7,0.1 -9.9,5.6 -19.7,11.1 -29.3,16.6 -1.2,0.7 -1.4,1.7 -0.5,2.3 1.6,1.2 3.4,2.4 5.1,3.6 z m -147.3,71.9 c 1.1,-0.6 1.3,-1.5 0.4,-2.1 -1.8,-1.1 -3.6,-2.2 -5.3,-3.4 -0.9,-0.5 -2.4,-0.5 -3.5,0.1 -6.9,4 -13.9,7.9 -20.7,11.9 -1.1,0.6 -1.2,1.5 -0.4,2 1.8,1.1 3.6,2.2 5.4,3.3 0.9,0.5 1.6,0.5 1.6,0.5 0,0 1,-0.1 2,-0.7 6.8,-3.8 13.6,-7.7 20.5,-11.6 z m 124.6,-99 c 0.9,0.6 2.6,0.6 3.7,-0.1 6.5,-3.8 13.2,-7.6 19.9,-11.5 1.2,-0.7 1.4,-1.7 0.6,-2.3 -1.5,-1 -3,-2 -4.5,-3.1 -0.9,-0.6 -2.6,-0.5 -3.7,0.2 -6.6,3.8 -13.1,7.6 -19.6,11.4 -1.1,0.7 -1.4,1.7 -0.5,2.4 1.3,0.9 2.7,2 4.1,3 z m 20.8,0.3 c 0.8,0.6 1,0.6 1.7,0.7 0.7,0.1 2.4,-0.8 2.4,-0.8 1.1,-0.7 1.9,-1.3 2.6,-1.5 0.7,-0.2 1.7,0.5 2.5,1.1 2.5,1.7 5.1,3.5 7.6,5.2 0.9,0.6 2.6,0.5 3.8,-0.1 1.1,-0.6 2.3,-1.3 3.4,-1.9 1.2,-0.7 1.5,-1.7 0.6,-2.3 -5.1,-3.5 -10.2,-7 -15.3,-10.5 -0.9,-0.6 -2.6,-0.5 -3.8,0.2 -3,1.7 -6,3.4 -8.9,5.1 -1.2,0.7 -1.4,1.7 -0.6,2.3 1.3,0.8 2.6,1.7 4,2.5 z m -172,76.4 c 1.1,-0.6 1.2,-1.6 0.4,-2.1 -0.6,-0.4 -1.3,-0.8 -1.9,-1.2 -0.8,-0.5 -2.4,-0.5 -3.5,0.1 -2.7,1.6 -5.5,3.2 -8.2,4.8 -1.1,0.6 -1.2,1.6 -0.3,2.1 0.6,0.4 1.2,0.8 1.9,1.2 0.9,0.5 2.5,0.5 3.5,-0.1 2.6,-1.5 5.4,-3.1 8.1,-4.8 z m -11.2,11.6 c -0.9,-0.5 -2.4,-0.5 -3.5,0.1 -2.7,1.6 -5.3,3.1 -8,4.6 -1,0.6 -1.2,1.5 -0.3,2.1 1.5,0.9 3,1.8 4.4,2.7 0.9,0.5 2.4,0.5 3.5,-0.1 2.7,-1.5 5.3,-3.1 8,-4.6 1,-0.6 1.2,-1.6 0.3,-2.1 -1.4,-0.8 -2.9,-1.7 -4.4,-2.7 z M 593,674 c 1.1,-0.6 1.2,-1.6 0.3,-2.1 -0.6,-0.4 -1.2,-0.8 -1.8,-1.2 -0.9,-0.5 -2.5,-0.5 -3.6,0.1 -2.8,1.6 -5.6,3.2 -8.4,4.8 -1.1,0.6 -1.2,1.6 -0.3,2.1 0.6,0.4 1.2,0.8 1.9,1.2 0.9,0.6 2.5,0.5 3.5,-0.1 2.8,-1.6 5.6,-3.2 8.4,-4.8 z m 42,-8.6 c -1.1,0.6 -1.3,1.6 -0.4,2.2 1.4,0.9 2.8,1.8 4.2,2.6 0.8,0.6 2.4,0.5 3.5,-0.1 2.7,-1.5 5.4,-3.1 8.1,-4.6 1.1,-0.6 1.3,-1.6 0.4,-2.2 -1.4,-0.9 -2.7,-1.8 -4.2,-2.7 -0.8,-0.6 -2.4,-0.5 -3.6,0.1 -2.6,1.6 -5.3,3.2 -8,4.7 z m -49,30 c -0.8,-0.5 -2.5,-0.5 -3.5,0.1 -5.9,3.4 -11.7,6.7 -17.5,10 -1.1,0.6 -1.2,1.5 -0.3,2.1 1.3,0.8 2.7,1.7 4.1,2.5 0.9,0.5 2.4,0.5 3.5,-0.1 5.8,-3.3 11.6,-6.6 17.5,-10 1,-0.6 1.2,-1.5 0.3,-2.1 -1.3,-0.7 -2.7,-1.6 -4.1,-2.5 z m 54.1,-48.8 c 1.1,-0.6 1.3,-1.6 0.4,-2.2 -0.6,-0.4 -1.3,-0.8 -1.9,-1.2 -0.9,-0.6 -2.5,-0.5 -3.7,0.1 -2.8,1.6 -5.7,3.3 -8.5,5 -1.1,0.6 -1.3,1.6 -0.4,2.2 0.6,0.4 1.3,0.8 1.9,1.2 0.9,0.6 2.5,0.5 3.6,-0.1 3,-1.6 5.8,-3.3 8.6,-5 z M 608.6,665 c 1.1,-0.6 1.2,-1.6 0.3,-2.2 -0.6,-0.4 -1.2,-0.8 -1.9,-1.2 -0.9,-0.6 -2.5,-0.5 -3.6,0.1 -2.8,1.7 -5.6,3.3 -8.4,4.9 -1.1,0.7 -1.2,1.6 -0.4,2.2 0.6,0.4 1.2,0.8 1.9,1.2 0.9,0.5 2.5,0.5 3.6,-0.1 2.8,-1.7 5.6,-3.3 8.5,-4.9 z m 15.7,-9.2 c 1.1,-0.6 1.2,-1.6 0.4,-2.2 -0.6,-0.4 -1.2,-0.8 -1.9,-1.2 -0.9,-0.6 -2.5,-0.5 -3.6,0.1 -2.8,1.7 -5.7,3.3 -8.5,4.9 -1.1,0.6 -1.3,1.6 -0.3,2.2 0.6,0.4 1.2,0.8 1.9,1.2 0.9,0.6 2.5,0.5 3.6,-0.1 2.7,-1.6 5.5,-3.2 8.4,-4.9 z m -61,34.9 c 0,0 0.1,-0.5 -0.7,-1 -0.6,-0.4 -1.2,-0.8 -1.9,-1.2 -0.9,-0.5 -2.5,-0.5 -3.5,0.1 -3.4,2 -6.8,3.9 -10.1,5.9 -1,0.6 -1.1,1.6 -0.3,2.1 0.6,0.4 1.2,0.8 1.9,1.1 0.9,0.5 2.5,0.5 3.5,-0.1 3.3,-1.9 6.7,-3.9 10,-5.8 1.1,-0.6 1.1,-1.1 1.1,-1.1 z m 53.5,10.8 c 0,0 -0.9,0.1 -1.9,0.7 -2.6,1.5 -5.2,2.9 -7.7,4.4 -1.1,0.6 -1.2,1.5 -0.4,2.1 1.8,1.1 3.6,2.2 5.4,3.4 0.9,0.5 2.4,0.5 3.5,-0.1 2.5,-1.4 5.1,-2.9 7.7,-4.3 1.1,-0.6 1.2,-1.6 0.4,-2.1 -1.7,-1.1 -3.5,-2.1 -5.2,-3.2 -0.9,-0.7 -1.8,-0.8 -1.8,-0.9 z m 2.1,-4.7 c 1.1,-0.6 1.3,-1.6 0.4,-2.1 -1.8,-1.1 -3.6,-2.2 -5.4,-3.4 -0.9,-0.5 -2.5,-0.5 -3.5,0.1 -2.6,1.5 -5.2,3 -7.7,4.4 -1.1,0.6 -1.3,1.5 -0.4,2.1 1.8,1.1 3.5,2.2 5.3,3.3 0.9,0.5 2.5,0.5 3.5,-0.1 2.7,-1.4 5.2,-2.8 7.8,-4.3 z M 601.3,687 c -0.9,-0.5 -1.7,-0.7 -1.7,-0.7 0,0 -1,0 -2,0.6 -2.6,1.5 -5.3,3 -7.9,4.5 -1.1,0.6 -1.2,1.5 -0.4,2.1 1.4,0.9 2.8,1.7 4.1,2.6 0.8,0.6 2.4,0.5 3.5,-0.1 2.6,-1.5 5.2,-3 7.8,-4.5 1.1,-0.6 1.2,-1.6 0.4,-2.1 -1.2,-0.8 -2.5,-1.6 -3.8,-2.4 z m 20.6,11.2 c -1.1,0.6 -1.2,1.6 -0.4,2.1 1.8,1.1 3.6,2.3 5.4,3.4 0.8,0.5 1.4,0.5 1.4,0.5 0,0 1,-0.1 2,-0.7 2.6,-1.5 5.3,-2.9 7.9,-4.4 1.1,-0.6 1.2,-1.5 0.4,-2.1 -1.8,-1.1 -3.6,-2.3 -5.4,-3.4 -0.9,-0.6 -2.4,-0.5 -3.5,0.1 -2.5,1.5 -5.1,3 -7.8,4.5 z m -42.5,-12.8 c 0,0 -0.8,0 -1.9,0.6 -2.6,1.5 -5.2,3 -7.8,4.5 -1.1,0.6 -1.2,1.6 -0.3,2.1 1.5,0.9 2.9,1.9 4.4,2.8 0.9,0.5 2.4,0.5 3.5,-0.1 2.6,-1.5 5.2,-3 7.8,-4.5 1,-0.6 1.2,-1.6 0.3,-2.1 -1.4,-0.9 -2.9,-1.8 -4.3,-2.7 -0.7,-0.5 -1.7,-0.5 -1.7,-0.6 z m 35.8,-11.8 c 1.1,-0.6 1.3,-1.6 0.4,-2.2 -1.5,-0.9 -3,-1.9 -4.5,-2.8 -0.9,-0.5 -2.5,-0.5 -3.6,0.1 -2.6,1.5 -5.3,3.1 -7.9,4.6 -1.1,0.6 -1.2,1.6 -0.4,2.2 1.4,1 2.8,1.9 4.3,2.9 0.9,0.6 2.4,0.5 3.5,-0.1 2.8,-1.6 5.5,-3.2 8.2,-4.7 z m -24.7,13.9 c 0,0 0.8,0 1.8,-0.6 2.6,-1.5 5.2,-3 7.8,-4.5 1.1,-0.6 1.2,-1.6 0.4,-2.1 -1.5,-0.9 -3,-1.9 -4.4,-2.8 -0.9,-0.6 -2.5,-0.5 -3.6,0.1 -2.6,1.5 -5.2,3 -7.8,4.5 -1.1,0.6 -1.2,1.6 -0.3,2.1 1.5,0.9 2.9,1.8 4.4,2.8 0.8,0.5 1.7,0.5 1.7,0.5 z m 46.5,2.1 c -1.1,0.6 -1.3,1.6 -0.4,2.1 1.8,1.1 3.6,2.3 5.4,3.4 0.8,0.5 2.4,0.5 3.5,-0.1 2.6,-1.5 5.3,-3 7.9,-4.5 1.1,-0.6 1.3,-1.6 0.4,-2.1 -1.8,-1.1 -3.6,-2.3 -5.4,-3.4 -0.9,-0.6 -2.5,-0.5 -3.6,0.1 -2.5,1.5 -5.2,3 -7.8,4.5 z m 77.6,-43.9 c -1.1,0.6 -1.4,1.6 -0.5,2.2 1.8,1.2 3.6,2.4 5.4,3.6 0.8,0.6 2.5,0.5 3.6,-0.1 2.7,-1.6 5.5,-3.1 8.3,-4.7 1.1,-0.6 1.4,-1.6 0.5,-2.2 -1.8,-1.2 -3.6,-2.4 -5.4,-3.6 -0.9,-0.6 -2.5,-0.5 -3.7,0.1 -2.7,1.6 -5.4,3.1 -8.2,4.7 z m 16,-9 c -1.1,0.7 -1.4,1.7 -0.5,2.2 1.8,1.2 3.6,2.4 5.4,3.6 0.8,0.6 2.5,0.5 3.7,-0.1 2.8,-1.6 5.6,-3.2 8.4,-4.8 1.2,-0.6 1.4,-1.7 0.6,-2.2 -1.8,-1.2 -3.6,-2.4 -5.4,-3.6 -0.9,-0.6 -2.5,-0.5 -3.7,0.1 -2.9,1.6 -5.8,3.2 -8.5,4.8 z m 38.4,-7.3 c -1.3,0.7 -1.5,1.8 -0.6,2.4 0.5,0.3 1.1,0.7 1.6,1.1 0.7,0.5 2,0.4 3,-0.1 2.4,-1.3 4.7,-2.6 7.1,-3.9 1.2,-0.7 1.4,-1.7 0.6,-2.3 -0.7,-0.5 -1.4,-1 -2.1,-1.5 -0.5,-0.3 -1.3,-0.3 -1.8,0.1 -2.7,1.3 -5.3,2.8 -7.8,4.2 z m -148.4,40.7 c 0,0 0.8,0 1.9,-0.7 2.6,-1.5 5.3,-3.1 8,-4.6 1.1,-0.6 1.3,-1.7 0.4,-2.2 -1.5,-0.9 -3,-1.9 -4.4,-2.9 -0.9,-0.6 -2.5,-0.5 -3.6,0.1 -2.7,1.6 -5.3,3.1 -8,4.6 -1.1,0.7 -1.3,1.6 -0.4,2.2 1.5,0.9 3,1.9 4.5,2.8 0.7,0.7 1.6,0.7 1.6,0.7 z m 31.7,10.9 c -1.1,0.6 -1.3,1.6 -0.4,2.1 1.8,1.2 3.6,2.3 5.4,3.4 0.9,0.6 2.4,0.5 3.6,-0.1 2.7,-1.5 5.3,-3 7.9,-4.5 1.1,-0.6 1.3,-1.6 0.5,-2.1 -1.8,-1.1 -3.6,-2.3 -5.4,-3.5 -0.9,-0.6 -2.5,-0.5 -3.6,0.1 -2.7,1.6 -5.4,3.1 -8,4.6 z m 15.3,-8.6 c -1.1,0.6 -1.3,1.6 -0.4,2.1 1.8,1.2 3.6,2.3 5.4,3.5 0.9,0.5 2.5,0.5 3.6,-0.1 2.7,-1.5 5.4,-3 8.1,-4.6 1.1,-0.6 1.3,-1.6 0.4,-2.2 -1.8,-1.2 -3.6,-2.3 -5.4,-3.5 -0.8,-0.6 -2.4,-0.5 -3.6,0.1 -2.8,1.6 -5.4,3.1 -8.1,4.7 z m 25,-13.8 c 0,0 -0.8,0 -1.9,0.7 -2.6,1.5 -5.1,2.9 -7.6,4.3 -1.1,0.6 -1.3,1.6 -0.5,2.2 1.7,1.1 3.4,2.2 5.1,3.3 0.9,0.6 1.7,0.5 1.8,0.5 0,0 0.9,0.1 2,-0.5 2.5,-1.4 5.1,-2.8 7.6,-4.3 1.2,-0.7 1.4,-1.6 0.5,-2.2 -1.8,-1.2 -3.6,-2.3 -5.4,-3.5 -0.7,-0.5 -1.6,-0.5 -1.6,-0.5 z m 16.4,-9.2 c 0,0 -0.8,-0.1 -1.9,0.6 -3,1.7 -6,3.4 -8.9,5.1 -1.2,0.6 -1.4,1.6 -0.5,2.2 1.8,1.2 3.6,2.4 5.4,3.5 0.8,0.6 2.5,0.5 3.6,-0.1 2.9,-1.7 5.9,-3.3 8.9,-5 1.1,-0.7 1.4,-1.6 0.5,-2.2 -1.8,-1.1 -3.5,-2.3 -5.3,-3.5 -0.8,-0.6 -1.8,-0.6 -1.8,-0.6 z m -79.2,19.4 c 0,0 -0.9,0.1 -2,0.7 -2.7,1.5 -5.4,3.1 -8,4.6 -1.1,0.6 -1.2,1.6 -0.3,2.1 1.3,0.9 2.7,1.7 4,2.6 0.9,0.6 1.1,0.5 1.7,0.5 0.5,0 0.9,0 2,-0.6 2.6,-1.5 5.3,-3 8,-4.6 1.1,-0.6 1.3,-1.6 0.4,-2.1 -1.3,-0.8 -2.7,-1.7 -4,-2.6 -1,-0.4 -1.8,-0.5 -1.8,-0.6 z m 40,-1.4 c 0.6,0 0.9,0 2,-0.6 2.7,-1.5 5.5,-3.1 8.2,-4.7 1.1,-0.6 1.3,-1.6 0.5,-2.2 -1.8,-1.2 -3.6,-2.3 -5.4,-3.5 -0.9,-0.6 -2.5,-0.5 -3.6,0.1 -2.7,1.6 -5.4,3.1 -8.2,4.7 -1.1,0.6 -1.3,1.6 -0.4,2.2 1.7,1.1 3.4,2.2 5,3.3 1,0.5 1.2,0.7 1.9,0.7 z m 25.3,-13.8 c 1.2,-0.7 1.4,-1.6 0.5,-2.2 -1.8,-1.2 -3.6,-2.4 -5.4,-3.5 -0.9,-0.6 -2.5,-0.5 -3.7,0.1 -2.5,1.4 -5.1,2.9 -7.6,4.4 -1.1,0.6 -1.3,1.6 -0.5,2.2 1.8,1.2 3.5,2.3 5.4,3.5 0.9,0.6 2.5,0.5 3.6,-0.2 2.6,-1.4 5.2,-2.9 7.7,-4.3 z m 32.4,-18.4 c 1.2,-0.7 1.4,-1.7 0.5,-2.3 -1.8,-1.2 -3.6,-2.4 -5.4,-3.6 -0.9,-0.6 -2.5,-0.5 -3.7,0.1 -2.8,1.6 -5.6,3.2 -8.4,4.8 -1.1,0.6 -1.3,1.7 -0.5,2.2 1.8,1.2 3.6,2.4 5.4,3.6 0.9,0.6 2.5,0.5 3.7,-0.1 2.8,-1.5 5.6,-3.1 8.4,-4.7 z m -62.9,35.7 c 1.1,-0.6 1.3,-1.6 0.4,-2.1 -1.8,-1.2 -3.6,-2.3 -5.4,-3.5 -0.9,-0.5 -2.5,-0.5 -3.6,0.1 -2.7,1.5 -5.3,3 -8,4.5 -1.1,0.6 -1.3,1.6 -0.4,2.2 1.8,1.2 3.6,2.3 5.4,3.4 0.8,0.6 2.5,0.5 3.5,-0.1 2.7,-1.5 5.4,-3 8.1,-4.5 z m 47,-26.7 c 1.1,-0.6 1.4,-1.6 0.5,-2.2 -1.8,-1.2 -3.6,-2.4 -5.4,-3.6 -0.9,-0.6 -2.5,-0.5 -3.7,0.1 -3,1.7 -6,3.4 -9,5.1 -1.1,0.6 -1.3,1.7 -0.5,2.2 1.7,1.1 3.3,2.2 5,3.3 0.9,0.6 2.5,0.6 3.7,-0.1 3.2,-1.5 6.3,-3.1 9.4,-4.8 z m -62.4,35.4 c 1.1,-0.6 1.3,-1.6 0.4,-2.2 -1.6,-1 -3.2,-2 -4.8,-3 -0.9,-0.6 -1.2,-0.9 -1.8,-0.9 -0.6,-0.1 -1.1,-0.1 -2.2,0.5 -2.7,1.6 -5.5,3.1 -8.2,4.7 -1.1,0.6 -1.3,1.6 -0.4,2.1 1.8,1.1 3.6,2.3 5.3,3.4 0.9,0.6 2.5,0.5 3.6,-0.1 2.8,-1.5 5.5,-3 8.1,-4.5 z m -44.6,3.2 c -1.1,0.6 -1.2,1.6 -0.4,2.1 1.4,0.9 2.7,1.7 4.1,2.6 0.9,0.5 2.5,0.5 3.5,-0.1 2.6,-1.5 5.3,-3 8,-4.5 1.1,-0.6 1.2,-1.6 0.4,-2.1 -1.4,-0.9 -2.8,-1.8 -4.1,-2.6 -0.9,-0.6 -2.5,-0.5 -3.6,0.1 -2.6,1.5 -5.2,3 -7.9,4.5 z m 19.3,10.5 c 0,0.1 1,0.1 2,-0.5 2.7,-1.5 5.3,-3.1 8,-4.6 1.1,-0.6 1.3,-1.6 0.4,-2.1 -1.8,-1.1 -3.6,-2.3 -5.4,-3.4 -0.9,-0.6 -2.4,-0.5 -3.5,0.1 -2.6,1.5 -5.3,3 -7.9,4.5 -1.1,0.6 -1.2,1.6 -0.4,2.1 1.7,1 3.3,2.1 5,3.1 0.9,0.6 1.8,0.8 1.8,0.8 z m 90.5,-76.8 c 0,0 1,-0.5 2.1,-1.2 2.8,-1.6 5.6,-3.3 8.5,-4.9 1.1,-0.7 1.4,-1.7 0.5,-2.3 -1.5,-1 -3,-2 -4.5,-3 -0.8,-0.6 -2.5,-0.5 -3.7,0.1 -2.8,1.7 -5.7,3.3 -8.5,4.9 -1.1,0.7 -1.4,1.7 -0.5,2.3 1.5,1 3,2 4.5,3 0.9,0.6 1.6,1.1 1.6,1.1 z m -53.1,30.6 c 1.1,-0.7 1.3,-1.6 0.4,-2.2 -1.5,-1 -3,-1.9 -4.5,-2.9 -0.9,-0.6 -2.5,-0.5 -3.6,0.1 -2.8,1.6 -5.5,3.1 -8.2,4.7 -1.1,0.7 -1.3,1.6 -0.4,2.2 1.5,1 3,1.9 4.5,2.9 0.9,0.6 2.5,0.5 3.6,-0.1 2.7,-1.6 5.5,-3.2 8.2,-4.7 z m 87.3,-25.8 c 0.8,0.6 2.5,0.5 3.7,-0.1 3.3,-1.9 6.6,-3.8 9.9,-5.6 1.1,-0.7 1.4,-1.7 0.5,-2.3 -1.8,-1.2 -3.6,-2.5 -5.4,-3.7 -0.9,-0.6 -2.5,-0.5 -3.7,0.1 -3.3,1.9 -6.7,3.8 -9.9,5.7 -1.2,0.6 -1.4,1.7 -0.6,2.3 1.9,1.2 3.7,2.4 5.5,3.6 z m -55.8,7.6 c 1.1,-0.7 1.4,-1.7 0.5,-2.3 -1.4,-0.9 -2.8,-1.8 -4.2,-2.8 -0.9,-0.6 -1.8,-0.7 -1.8,-0.7 0,0 -1,0 -2.1,0.6 -3,1.8 -6.1,3.5 -9.1,5.2 -1.1,0.6 -1.3,1.7 -0.4,2.2 1.5,1 3,2 4.5,3 0.8,0.6 2.5,0.5 3.7,-0.1 3,-1.6 5.9,-3.4 8.9,-5.1 z m -16.4,9.5 c 1.1,-0.7 1.4,-1.7 0.4,-2.2 -1.4,-0.9 -2.8,-1.9 -4.2,-2.8 -0.9,-0.6 -1.6,-0.6 -1.7,-0.7 0,0 -1,0 -2.2,0.6 -2.6,1.5 -5.1,3 -7.7,4.4 -1.1,0.7 -1.3,1.7 -0.4,2.2 1.5,1 3,2 4.5,2.9 0.9,0.6 2.5,0.5 3.6,-0.1 2.5,-1.4 5.1,-2.8 7.7,-4.3 z m -40.6,22.9 c 0,0 0.8,0 1.9,-0.7 2.7,-1.5 5.3,-3.1 8,-4.6 1.1,-0.6 1.3,-1.6 0.4,-2.2 -1.5,-0.9 -3,-1.9 -4.5,-2.9 -0.9,-0.6 -2.5,-0.5 -3.6,0.1 -2.7,1.6 -5.3,3.1 -8,4.6 -1.1,0.6 -1.3,1.6 -0.4,2.2 1.4,1 2.9,1.9 4.4,2.8 0.9,0.7 1.8,0.7 1.8,0.7 z m 73,-41.6 c 1.1,-0.7 1.4,-1.7 0.5,-2.3 -1.5,-1 -3,-2 -4.5,-3 -0.9,-0.6 -2.5,-0.5 -3.7,0.1 -2.8,1.6 -5.6,3.3 -8.4,4.8 -1.1,0.7 -1.4,1.7 -0.5,2.3 1.5,1 3,2 4.5,3 0.9,0.6 2.5,0.5 3.7,-0.2 2.8,-1.5 5.6,-3.1 8.4,-4.7 z m 36.8,-8.7 c 1.1,-0.7 1.4,-1.7 0.5,-2.3 -1.4,-0.9 -2.8,-1.9 -4.1,-2.8 -0.9,-0.6 -2.6,-0.5 -3.8,0.1 -2.9,1.6 -5.7,3.3 -8.5,4.9 -1.1,0.7 -1.4,1.7 -0.5,2.3 1.3,0.9 2.8,1.9 4.1,2.8 0.9,0.6 2.5,0.5 3.7,-0.1 2.9,-1.6 5.7,-3.2 8.6,-4.9 z M 605.7,736.8 c -0.2,0 -0.5,0 -0.8,0 0.2,0 0.5,0 0.8,0 0.9,-0.1 1.9,-0.4 2.8,-0.8 15.5,-8.6 31.2,-17.3 47.1,-26.2 15.9,-8.9 32,-17.8 48.3,-26.8 16.5,-9.2 33.2,-18.5 50.1,-27.9 17,-9.4 34.1,-19 51.5,-28.6 -17.4,9.6 -34.5,19.2 -51.5,28.6 -16.9,9.4 -33.6,18.7 -50.1,27.9 -16.3,9 -32.4,18 -48.3,26.8 -15.9,8.8 -31.5,17.5 -47.1,26.2 -0.9,0.4 -1.9,0.7 -2.8,0.8 z"
   id="path17107"
   inkscape:connector-curvature="0"
   style="clip-rule:evenodd;fill:#f0ebe6;fill-rule:evenodd" />
		<path
   id="XMLID_117_"
   d="m 540.6,700.7 c 0.9,6.1 -3.1,11 -9,11.1 -5.9,0 -11.4,-4.9 -12.3,-11 -0.9,-6.1 3.1,-11 9,-11.1 5.9,0 11.4,4.9 12.3,11"
   inkscape:connector-curvature="0"
   style="clip-rule:evenodd;fill:#cacdcd;fill-rule:evenodd" />
		<path
   id="XMLID_116_"
   d="m 535.4,701.9 c 0.6,4.2 -2.1,7.6 -6.1,7.6 -4,0 -7.8,-3.4 -8.4,-7.5 -0.6,-4.2 2.1,-7.6 6.1,-7.6 4,-0.1 7.8,3.3 8.4,7.5"
   inkscape:connector-curvature="0"
   style="clip-rule:evenodd;fill:#e5dfda;fill-rule:evenodd" />
		<path
   id="XMLID_115_"
   d="m 520.7,700.8 c 0,-3.6 2.5,-6.3 6.1,-6.4 -3.5,0 -6.1,2.8 -6.1,6.4"
   inkscape:connector-curvature="0"
   style="clip-rule:evenodd;fill:#e7e2dd;fill-rule:evenodd" />
		<path
   id="XMLID_114_"
   d="m 525.9,708.7 c -2.6,-1.2 -4.6,-3.8 -5,-6.7 -0.1,-0.4 -0.1,-0.8 -0.1,-1.2 0,-3.6 2.5,-6.3 6.1,-6.4 0,0 0.1,0 0.1,0 0,0 0,0 0,0 1,0 2,0.2 3,0.6 -1.3,4.1 -2.8,9.3 -4.1,13.7"
   inkscape:connector-curvature="0"
   style="clip-rule:evenodd;fill:#ede8e5;fill-rule:evenodd" />
		<path
   id="XMLID_113_"
   d="m 744,462.8 c 3.7,2.1 44.3,20.5 47.5,21.3 3.1,0.7 8.1,0.6 16.6,-4 8.5,-4.6 5.8,-8.7 5.8,-8.7 l -23,-9.7 -38.5,-5.8 c 0,0 -5.8,1.6 -8.3,3.6 -1.3,1.1 -1.3,2.6 -0.1,3.3"
   inkscape:connector-curvature="0"
   style="clip-rule:evenodd;fill:#b8bbbb;fill-rule:evenodd" />
		<path
   id="XMLID_112_"
   d="m 812.9,474.8 c 1.8,-1.7 1.7,-4.6 -0.2,-6.1 -22.2,-18.1 -44.5,-18.8 -45.4,-18.8 0,0 -6.4,-0.4 -14.9,4 -4.8,2.5 -7.5,4.6 -9,6 -0.7,0.7 -0.3,1.8 0.6,2 7,1.1 25.3,3.4 44.4,19.5 1.3,1.1 3,1.6 4.7,1.5 2.7,-0.2 7.1,-1 12.5,-3.3 3.5,-1.7 5.8,-3.4 7.3,-4.8"
   inkscape:connector-curvature="0"
   style="clip-rule:evenodd;fill:#b8bbbb;fill-rule:evenodd" />
		<path
   id="XMLID_111_"
   d="m 743.1,461.1 c -0.2,-0.4 -0.1,-0.9 0.2,-1.3 -0.3,0.4 -0.4,0.9 -0.2,1.3 z"
   inkscape:connector-curvature="0"
   style="clip-rule:evenodd;fill:#b8bbbb;fill-rule:evenodd" />
		<path
   id="XMLID_110_"
   d="m 745.6,462.1 c -0.6,-0.1 -1.1,-0.2 -1.6,-0.3 -0.4,-0.1 -0.7,-0.3 -0.9,-0.7 v 0 c 0.1,0.3 0.4,0.6 0.9,0.7 0.5,0.1 1,0.2 1.6,0.3"
   inkscape:connector-curvature="0"
   style="clip-rule:evenodd;fill:#b8bbbb;fill-rule:evenodd" />
		<path
   id="XMLID_109_"
   d="m 752.4,453.8 c 7.2,-3.7 12.9,-4 14.4,-4 0.3,0 0.4,0 0.4,0 0.1,0 0.3,0 0.6,0 -0.3,0 -0.6,0 -0.6,0 0,0 -0.1,0 -0.4,0 -1.5,0.1 -7.2,0.3 -14.4,4"
   inkscape:connector-curvature="0"
   style="clip-rule:evenodd;fill:#b8bbbb;fill-rule:evenodd" />
		<path
   d="m 812.1,468.2 c 0,0 0,0 0,0 0,0 0,0 0,0 m 0.2,0.1 c 0,0 0,0 0,0 0,0 0,0 0,0 z m 0,0.1 c 0,0 0,0 0,0 0,0 0,0 0,0 z m 0.1,0 c 0,0 0,0 0,0 0,0 0,0 0,0 z m 0.1,0.1 c 0,0 -0.1,0 0,0 -0.1,0 0,0 0,0 z m 0,0 c 0,0 0,0 0,0 0,0 0,0 0,0 z m 0.1,0.1 c 0,0 0,0 0,0 0,0 0,0 0,0 z m 0.1,0.1 c 0,-0.1 -0.1,-0.1 0,0 -0.1,-0.1 0,-0.1 0,0 z"
   id="path17118"
   inkscape:connector-curvature="0"
   style="clip-rule:evenodd;fill:#b8bbbb;fill-rule:evenodd" />
		<path
   id="XMLID_100_"
   d="m 760.3,457.1 c 0.6,0 1.1,-0.1 1.6,-0.4 l 2.1,-1.2 c 0.8,-0.4 0.6,-1.3 -0.3,-1.6 l -2.7,-0.8 c -0.2,-0.1 -0.4,-0.1 -0.5,-0.1 -0.3,0 -0.6,0.1 -0.9,0.2 l -2.6,1.5 c -0.8,0.4 -0.6,1.3 0.3,1.6 l 2,0.6 c 0.3,0.2 0.7,0.2 1,0.2"
   inkscape:connector-curvature="0"
   style="clip-rule:evenodd;fill:#b8bbbb;fill-rule:evenodd" />
		<path
   id="XMLID_99_"
   d="m 750.6,465.9 c 3.7,2.1 44.3,20.5 47.5,21.3 3.1,0.7 8.1,0.6 16.6,-4 8.5,-4.6 5.8,-8.7 5.8,-8.7 l -23,-9.7 L 759,459 c 0,0 -5.8,1.6 -8.3,3.6 -1.4,1.1 -1.4,2.6 -0.1,3.3"
   inkscape:connector-curvature="0"
   style="clip-rule:evenodd;fill:#cacdcd;fill-rule:evenodd" />
		<path
   id="XMLID_98_"
   d="m 819.4,477.9 c 1.8,-1.7 1.7,-4.6 -0.2,-6.1 C 797,453.7 774.7,453 773.8,453 c 0,0 -6.4,-0.4 -14.9,4 -4.8,2.5 -7.5,4.6 -9,6 -0.7,0.7 -0.3,1.8 0.6,2 7,1.1 25.3,3.4 44.4,19.5 1.3,1.1 3,1.6 4.7,1.5 2.7,-0.2 7.1,-1 12.5,-3.3 3.5,-1.8 5.8,-3.4 7.3,-4.8"
   inkscape:connector-curvature="0"
   style="clip-rule:evenodd;fill:#f0f1f1;fill-rule:evenodd" />
		<path
   id="XMLID_97_"
   d="m 749.6,464.2 c -0.2,-0.4 -0.1,-0.9 0.2,-1.3 -0.3,0.4 -0.4,0.9 -0.2,1.3 z"
   inkscape:connector-curvature="0"
   style="clip-rule:evenodd;fill:#d3d1ce;fill-rule:evenodd" />
		<path
   id="XMLID_96_"
   d="m 752.1,465.1 c -0.6,-0.1 -1.1,-0.2 -1.6,-0.3 -0.4,-0.1 -0.7,-0.3 -0.9,-0.7 v 0 c 0.1,0.3 0.4,0.6 0.9,0.7 0.5,0.1 1,0.2 1.6,0.3"
   inkscape:connector-curvature="0"
   style="clip-rule:evenodd;fill:#cacdcd;fill-rule:evenodd" />
		<path
   id="XMLID_95_"
   d="m 758.9,456.9 c 7.2,-3.7 12.9,-4 14.4,-4 0.3,0 0.4,0 0.4,0 0.1,0 0.3,0 0.6,0 -0.3,0 -0.6,0 -0.6,0 0,0 -0.1,0 -0.4,0 -1.5,0 -7.2,0.3 -14.4,4"
   inkscape:connector-curvature="0"
   style="clip-rule:evenodd;fill:#d3d1ce;fill-rule:evenodd" />
		<path
   d="m 818.6,471.3 c 0,0 0,0 0,0 0,0 0,0 0,0 m 0.2,0.1 c 0,0 0,0 0,0 0,0 0,0 0,0 z m 0,0.1 c 0,-0.1 0,-0.1 0,0 0,-0.1 0,-0.1 0,0 z m 0.1,0 c 0,0 0,0 0,0 0,0 0,0 0,0 z m 0.1,0.1 c 0,0 0,-0.1 0,0 0,-0.1 0,0 0,0 z m 0.1,0 c -0.1,0 -0.1,0 0,0 -0.1,0 -0.1,0 0,0 z m 0,0.1 c 0,0 0,-0.1 0,0 0,-0.1 0,0 0,0 z m 0.1,0 c 0,0 0,0 0,0 0,0 0,0 0,0 z"
   id="path17126"
   inkscape:connector-curvature="0"
   style="clip-rule:evenodd;fill:#fffdfd;fill-rule:evenodd" />
		<path
   id="XMLID_86_"
   d="m 766.8,460.2 c 0.6,0 1.1,-0.1 1.6,-0.4 l 2.1,-1.2 c 0.8,-0.4 0.6,-1.3 -0.3,-1.6 l -2.7,-0.8 c -0.2,-0.1 -0.4,-0.1 -0.5,-0.1 -0.3,0 -0.6,0.1 -0.9,0.2 l -2.6,1.5 c -0.8,0.4 -0.6,1.3 0.3,1.6 l 2,0.6 c 0.3,0.1 0.7,0.2 1,0.2"
   inkscape:connector-curvature="0"
   style="clip-rule:evenodd;fill:#ded7d3;fill-rule:evenodd" />
		<polygon
   id="XMLID_85_"
   points="861.8,616.5 740.9,547.4 766.6,532.5 792.2,517.8 913,586.9 887.4,601.7 "
   style="clip-rule:evenodd;fill:#b8bbbb;fill-rule:evenodd" />
		<path
   id="XMLID_84_"
   d="m 756.9,540.4 v 0 c 0.1,0.3 0.2,0.5 0.3,0.7 l 0.1,0.1 c 0.1,0.2 0.3,0.4 0.5,0.6 l 0.5,0.4 0.4,0.3 L 866,602 c 0.3,0.2 0.6,0.3 1,0.5 l 0.3,0.1 c 0.2,0.1 0.4,0.1 0.6,0.2 0.2,0.1 0.5,0.1 0.7,0.2 0.3,0.1 0.6,0.1 0.8,0.1 h 0.2 c 0.4,0 0.8,0.1 1.2,0.1 h 0.2 c 0.4,0 0.8,0 1.1,-0.1 h 0.2 c 0.4,0 0.7,-0.1 1.1,-0.2 h 0.2 c 0.3,-0.1 0.6,-0.2 1,-0.3 l 0.2,-0.1 c 0.4,-0.1 0.7,-0.3 1,-0.5 l 175.5,-98.5 c 1.4,-0.8 2,-1.8 2,-2.8 v 3.9 c 0,1 -0.7,2.1 -2,2.8 L 875.8,608.7 c -0.3,0.2 -0.6,0.3 -1,0.5 h -0.1 l -0.2,0.1 c -0.2,0.1 -0.4,0.1 -0.6,0.2 l -0.3,0.1 h -0.2 -0.2 c -0.2,0 -0.5,0.1 -0.7,0.1 h -0.2 -0.2 -0.3 c -0.2,0 -0.5,0 -0.7,0 h -0.1 -0.2 -0.3 c -0.3,0 -0.5,0 -0.8,-0.1 h -0.1 -0.2 c -0.2,0 -0.4,0 -0.6,-0.1 l -0.2,-0.1 c -0.2,0 -0.5,-0.1 -0.7,-0.2 l -0.4,-0.1 -0.3,-0.1 -0.3,-0.1 c -0.3,-0.1 -0.7,-0.3 -1,-0.5 L 758.6,546 h -0.1 l -0.3,-0.3 -0.5,-0.4 v 0 l -0.4,-0.5 -0.1,-0.1 -0.1,-0.1 -0.1,-0.2 -0.2,-0.4 v -0.1 -0.1 l -0.1,-0.3 v -0.4 -0.1 -3.8 c 0,0.7 0.1,1 0.2,1.2"
   inkscape:connector-curvature="0"
   style="clip-rule:evenodd;fill:#2d3534;fill-rule:evenodd" />
		<path
   id="XMLID_83_"
   d="m 758.8,537.1 c -2.7,1.6 -2.7,4.1 0,5.6 L 866,605 c 2.7,1.6 7,1.6 9.7,0 l 175.5,-101.3 c 2.7,-1.6 2.7,-4.1 0,-5.6 L 944,435.7 c -2.7,-1.6 -7,-1.6 -9.7,0 z"
   inkscape:connector-curvature="0"
   style="clip-rule:evenodd;fill:#3e5969;fill-rule:evenodd" />
		<path
   id="XMLID_82_"
   d="m 758.8,537.1 c -2.7,1.6 -2.7,4.1 0,5.6 L 866,605 c 2.7,1.6 7,1.6 9.7,0 l 175.5,-101.3 c 2.7,-1.6 2.7,-4.1 0,-5.6 L 944,435.7 c -2.7,-1.6 -7,-1.6 -9.7,0 z"
   inkscape:connector-curvature="0"
   style="clip-rule:evenodd;fill:#484e4d;fill-rule:evenodd" />
		<path
   id="XMLID_81_"
   d="m 859.2,601.1 6.8,3.9 c 2.7,1.6 7,1.6 9.7,0 l 175.5,-101.3 c 2.7,-1.6 2.7,-4.1 0,-5.6 l -6,-3.5 z"
   inkscape:connector-curvature="0"
   style="clip-rule:evenodd;fill:#3e4443;fill-rule:evenodd" />
		<path
   id="XMLID_80_"
   d="m 758.8,537.1 c -2.7,1.6 -2.7,4.1 0,5.6 l 10.5,6.1 186.1,-106.5 -11.3,-6.6 c -2.7,-1.6 -7,-1.6 -9.7,0 z"
   inkscape:connector-curvature="0"
   style="clip-rule:evenodd;fill:#3e4443;fill-rule:evenodd" />
		<path
   id="XMLID_79_"
   d="m 802.9,520.9 c -2.4,1.4 -2.4,3.6 0,4.9 l 93.7,54.5 c 2.3,1.4 6.1,1.4 8.5,0 l 132,-76.7 c 2.4,-1.4 2.4,-3.6 0,-4.9 l -93.7,-54.5 c -2.3,-1.4 -6.1,-1.4 -8.5,0 z"
   inkscape:connector-curvature="0"
   style="clip-rule:evenodd;fill:#2f3635;fill-rule:evenodd" />
		<path
   id="XMLID_78_"
   d="m 809.3,562.7 0.1,0.5 0.1,0.5 c 0.1,0.2 0.2,0.5 0.3,0.7 l 0.1,0.1 c 0.1,0.3 0.3,0.5 0.5,0.8 l 0.1,0.1 c 0.2,0.2 0.3,0.5 0.5,0.7 l 0.1,0.1 c 0.2,0.2 0.4,0.5 0.7,0.7 l 0.5,0.4 0.5,0.4 c 0.2,0.1 0.4,0.3 0.6,0.4 0.2,0.1 0.4,0.3 0.6,0.4 0.4,0.2 0.7,0.4 1.1,0.6 l 0.3,0.1 c 0.3,0.2 0.7,0.3 1,0.4 l 0.1,0.1 c 0.4,0.1 0.8,0.3 1.2,0.4 0.3,0.1 0.6,0.2 0.8,0.2 0.2,0.1 0.4,0.1 0.6,0.2 0.3,0.1 0.6,0.1 0.9,0.2 0.2,0 0.4,0.1 0.7,0.1 h 0.3 c 0.4,0.1 0.8,0.1 1.1,0.2 h 0.3 c 0.2,0 0.4,0 0.7,0.1 0.4,0 0.7,0.1 1.1,0.1 0.2,0 0.5,0 0.7,0 0.3,0 0.6,0 0.9,0 0.2,0 0.5,0 0.7,0 0.3,0 0.6,0 0.8,0 0.3,0 0.5,0 0.8,-0.1 0.3,0 0.5,-0.1 0.8,-0.1 0.2,0 0.5,-0.1 0.7,-0.1 0.3,0 0.6,-0.1 0.9,-0.2 0.2,0 0.5,-0.1 0.7,-0.1 0.3,-0.1 0.7,-0.2 1,-0.2 0.2,-0.1 0.4,-0.1 0.7,-0.2 l 0.3,-0.1 c 0.3,-0.1 0.7,-0.2 1,-0.3 l 0.3,-0.1 c 0.3,-0.1 0.6,-0.2 0.9,-0.4 l 0.4,-0.2 c 0.4,-0.2 0.8,-0.4 1.2,-0.6 3.2,-1.9 4.8,-4.3 4.8,-6.7 v 2.3 c 0,2.4 -1.6,4.9 -4.8,6.7 -0.4,0.2 -0.8,0.4 -1.2,0.6 l -0.4,0.2 c -0.2,0.1 -0.5,0.2 -0.7,0.3 h -0.1 l -0.3,0.1 c -0.3,0.1 -0.7,0.2 -1,0.3 l -0.3,0.1 -0.2,0.1 -0.4,0.1 c -0.3,0.1 -0.7,0.2 -1,0.3 l -0.3,0.1 -0.4,0.1 c -0.3,0.1 -0.6,0.1 -0.9,0.2 l -0.3,0.1 h -0.4 c -0.3,0 -0.5,0.1 -0.8,0.1 h -0.4 -0.4 c -0.3,0 -0.6,0 -0.8,0 h -0.4 -0.3 c -0.3,0 -0.6,0 -0.9,0 h -0.4 -0.3 c -0.4,0 -0.7,0 -1.1,-0.1 h -0.4 -0.2 -0.3 c -0.4,0 -0.8,-0.1 -1.1,-0.2 h -0.3 -0.1 l -0.5,-0.1 c -0.3,-0.1 -0.6,-0.1 -0.9,-0.2 -0.2,-0.1 -0.4,-0.1 -0.6,-0.2 -0.3,-0.1 -0.6,-0.2 -0.8,-0.2 l -0.2,-0.1 c -0.3,-0.1 -0.7,-0.2 -1,-0.4 l -0.1,-0.1 c -0.4,-0.1 -0.7,-0.3 -1,-0.4 l -0.3,-0.1 c -0.4,-0.2 -0.7,-0.4 -1.1,-0.6 l -0.2,-0.1 -0.4,-0.3 c -0.2,-0.1 -0.4,-0.3 -0.6,-0.4 l -0.5,-0.4 -0.5,-0.4 -0.1,-0.1 c -0.2,-0.2 -0.4,-0.4 -0.6,-0.6 l -0.1,-0.1 -0.3,-0.4 -0.2,-0.3 -0.1,-0.1 c -0.1,-0.2 -0.3,-0.4 -0.4,-0.6 l -0.1,-0.2 -0.1,-0.1 c -0.1,-0.2 -0.2,-0.4 -0.3,-0.6 V 566 l -0.1,-0.5 -0.1,-0.3 v -0.1 -0.1 c 0,-0.2 -0.1,-0.5 -0.1,-0.7 v -0.1 -2.3 c 0,0.3 0,0.6 0.1,0.8 z"
   inkscape:connector-curvature="0"
   style="clip-rule:evenodd;fill:#2d3534;fill-rule:evenodd" />
		<path
   id="XMLID_77_"
   d="m 814.1,555 c -6.4,3.7 -6.4,9.7 -0.1,13.4 6.4,3.7 16.7,3.7 23.1,0 6.4,-3.7 6.4,-9.7 0.1,-13.4 -6.4,-3.7 -16.7,-3.7 -23.1,0"
   inkscape:connector-curvature="0"
   style="clip-rule:evenodd;fill:#3e4443;fill-rule:evenodd" />
		<path
   id="XMLID_76_"
   d="m 816.2,569.5 c 6.4,2.6 15.2,2.3 21,-1.1 5.8,-3.3 6.4,-8.5 1.8,-12.2 -6.4,-2.6 -15.3,-2.3 -21,1 -5.9,3.4 -6.4,8.6 -1.8,12.3"
   inkscape:connector-curvature="0"
   style="clip-rule:evenodd;fill:#484e4d;fill-rule:evenodd" />
		<path
   id="XMLID_75_"
   d="m 1020.1,496.7 0.3,-0.6 5.8,3.4 c 0.7,0.4 0.7,1.5 0,1.9 l -6.2,3.6 -0.3,-0.6 5.2,-3 c 0.7,-0.4 0.7,-1.5 0,-1.9 z"
   inkscape:connector-curvature="0"
   style="clip-rule:evenodd;fill:#595857;fill-rule:evenodd" />
		<path
   id="XMLID_74_"
   d="m 900.2,572.3 c 0.6,0.4 1.4,0.4 2,0 l 3.5,-2 0.3,0.6 -3.9,2.2 c -0.6,0.4 -1.4,0.4 -2,0 l -3.6,-2.1 0.3,-0.6 z"
   inkscape:connector-curvature="0"
   style="clip-rule:evenodd;fill:#595857;fill-rule:evenodd" />
		<path
   id="XMLID_73_"
   d="m 816.8,520.4 0.3,0.6 -4,2.3 c -0.3,0.2 -0.3,0.6 0,0.8 l 2.4,1.4 -0.3,0.6 -3.5,-2 c -0.3,-0.2 -0.3,-0.6 0,-0.8 z"
   inkscape:connector-curvature="0"
   style="clip-rule:evenodd;fill:#595857;fill-rule:evenodd" />
		<path
   id="XMLID_72_"
   d="m 943.1,453.7 -0.3,0.6 -4,-2.3 c -0.6,-0.4 -1.4,-0.4 -2,0 l -4,2.3 -0.3,-0.6 4.3,-2.5 c 0.6,-0.4 1.4,-0.4 2,0 z"
   inkscape:connector-curvature="0"
   style="clip-rule:evenodd;fill:#595857;fill-rule:evenodd" />
		<path
   d="m 805.4,545.6 c 0.9,0.4 0.9,1.6 0,2 l -6.1,3.6 v 0 c -0.3,0.1 -0.6,0.1 -0.9,0 v 0 l -3.1,-1.8 c -0.9,-0.4 -0.9,-1.6 0,-2 l 6.1,-3.6 v 0 c 0.3,-0.1 0.6,-0.1 0.9,0 v 0 z m -5.4,-3.1 c 0.9,0.4 0.9,1.6 0,2 l -6.1,3.6 v 0 c -0.3,0.1 -0.6,0.1 -0.9,0 v 0 l -3.1,-1.8 c -0.9,-0.4 -0.9,-1.6 0,-2 l 6.1,-3.6 v 0 c 0.3,-0.1 0.6,-0.1 0.9,0 v 0 z m -5.5,-3.1 c 0.9,0.4 0.9,1.6 0,2 l -6.1,3.6 v 0 c -0.3,0.1 -0.6,0.1 -0.9,0 v 0 l -3.1,-1.8 c -0.9,-0.4 -0.9,-1.6 0,-2 l 6.1,-3.6 v 0 c 0.3,-0.1 0.6,-0.1 0.9,0 v 0 z m -5.5,-3.2 c 0.9,0.4 0.9,1.6 0,2 l -6.1,3.6 v 0 c -0.3,0.1 -0.6,0.1 -0.9,0 v 0 l -3.1,-1.8 c -0.9,-0.4 -0.9,-1.6 0,-2 l 6.1,-3.6 v 0 c 0.3,-0.1 0.6,-0.1 0.9,0 v 0 z"
   id="path17143"
   inkscape:connector-curvature="0"
   style="clip-rule:evenodd;fill:#2d3534;fill-rule:evenodd" />
		<path
   id="XMLID_67_"
   d="m 785.1,534.8 -6.1,3.6 c -0.6,0.3 -0.6,1.1 0,1.4 l 3.1,1.8 c 0.2,0.1 0.4,0.1 0.6,0 l 6.1,-3.6 c 0.6,-0.3 0.6,-1.1 0,-1.4 l -3.1,-1.8 c -0.2,-0.1 -0.4,-0.1 -0.6,0"
   inkscape:connector-curvature="0"
   style="clip-rule:evenodd;fill:#3e4443;fill-rule:evenodd" />
		<path
   id="XMLID_66_"
   d="m 790.5,537.9 -6.1,3.6 c -0.6,0.3 -0.6,1.1 0,1.4 l 3.1,1.8 c 0.2,0.1 0.4,0.1 0.6,0 l 6.1,-3.6 c 0.6,-0.3 0.6,-1.1 0,-1.4 l -3.1,-1.8 c -0.1,-0.1 -0.4,-0.1 -0.6,0"
   inkscape:connector-curvature="0"
   style="clip-rule:evenodd;fill:#3e4443;fill-rule:evenodd" />
		<path
   id="XMLID_65_"
   d="m 796,541 -6.1,3.6 c -0.6,0.3 -0.6,1.1 0,1.4 l 3.1,1.8 c 0.2,0.1 0.4,0.1 0.6,0 l 6.1,-3.6 c 0.6,-0.3 0.6,-1.1 0,-1.4 l -3.1,-1.8 c -0.1,-0.1 -0.4,-0.1 -0.6,0"
   inkscape:connector-curvature="0"
   style="clip-rule:evenodd;fill:#3e4443;fill-rule:evenodd" />
		<path
   id="XMLID_64_"
   d="m 801.5,544.1 -6.1,3.6 c -0.6,0.3 -0.6,1.1 0,1.4 l 3.1,1.8 c 0.2,0.1 0.4,0.1 0.6,0 l 6.1,-3.6 c 0.6,-0.3 0.6,-1.1 0,-1.4 l -3.1,-1.8 c -0.2,0 -0.4,0 -0.6,0"
   inkscape:connector-curvature="0"
   style="clip-rule:evenodd;fill:#3e4443;fill-rule:evenodd" />
		<path
   id="XMLID_63_"
   d="m 819.6,558.3 c -3.3,1.9 -3.3,5 0,7 3.3,1.9 8.7,1.9 12,0 3.3,-1.9 3.3,-5 0,-7 -3.3,-2 -8.6,-2 -12,0"
   inkscape:connector-curvature="0"
   style="clip-rule:evenodd;fill:#302f2f;fill-rule:evenodd" />
		<path
   d="m 874.9,586.3 c 0.9,0.4 0.9,1.6 0,2 l -6.1,3.6 v 0 c -0.3,0.1 -0.6,0.1 -0.9,0 v 0 l -3.1,-1.8 c -0.9,-0.4 -0.9,-1.6 0,-2 l 6.1,-3.6 v 0 c 0.3,-0.1 0.6,-0.1 0.9,0 v 0 z m -5.5,-3.2 c 0.9,0.4 0.9,1.6 0,2 l -6.1,3.6 v 0 c -0.3,0.1 -0.6,0.1 -0.9,0 v 0 l -3.1,-1.8 c -0.9,-0.4 -0.9,-1.6 0,-2 l 6.1,-3.6 v 0 c 0.3,-0.1 0.6,-0.1 0.9,0 v 0 z M 864,580 c 0.9,0.4 0.9,1.6 0,2 l -6.1,3.6 v 0 c -0.3,0.1 -0.6,0.1 -0.9,0 v 0 l -3.1,-1.8 c -0.9,-0.4 -0.9,-1.6 0,-2 l 6.1,-3.6 v 0 c 0.3,-0.1 0.6,-0.1 0.9,0 v 0 z m -5.5,-3.1 c 0.9,0.4 0.9,1.6 0,2 l -6.1,3.6 v 0 c -0.3,0.1 -0.6,0.1 -0.9,0 v 0 l -3.1,-1.8 c -0.9,-0.4 -0.9,-1.6 0,-2 l 6.1,-3.6 v 0 c 0.3,-0.1 0.6,-0.1 0.9,0 v 0 z"
   id="path17150"
   inkscape:connector-curvature="0"
   style="clip-rule:evenodd;fill:#2d3534;fill-rule:evenodd" />
		<path
   id="XMLID_58_"
   d="m 854.5,575.4 -6.1,3.6 c -0.6,0.3 -0.6,1.1 0,1.4 l 3.1,1.8 c 0.2,0.1 0.4,0.1 0.6,0 l 6.1,-3.6 c 0.6,-0.3 0.6,-1.1 0,-1.4 l -3.1,-1.8 c -0.1,-0.1 -0.4,-0.1 -0.6,0"
   inkscape:connector-curvature="0"
   style="clip-rule:evenodd;fill:#3e4443;fill-rule:evenodd" />
		<path
   id="XMLID_57_"
   d="m 860,578.6 -6.1,3.6 c -0.6,0.3 -0.6,1.1 0,1.4 l 3.1,1.8 c 0.2,0.1 0.4,0.1 0.6,0 l 6.1,-3.6 c 0.6,-0.3 0.6,-1.1 0,-1.4 l -3.1,-1.8 c -0.1,-0.1 -0.4,-0.1 -0.6,0"
   inkscape:connector-curvature="0"
   style="clip-rule:evenodd;fill:#3e4443;fill-rule:evenodd" />
		<path
   id="XMLID_56_"
   d="m 865.5,581.7 -6.1,3.6 c -0.6,0.3 -0.6,1.1 0,1.4 l 3.1,1.8 c 0.2,0.1 0.4,0.1 0.6,0 l 6.1,-3.6 c 0.6,-0.3 0.6,-1.1 0,-1.4 l -3.1,-1.8 c -0.2,-0.1 -0.4,-0.1 -0.6,0"
   inkscape:connector-curvature="0"
   style="clip-rule:evenodd;fill:#3e4443;fill-rule:evenodd" />
		<path
   id="XMLID_55_"
   d="m 871,584.8 -6.1,3.6 c -0.6,0.3 -0.6,1.1 0,1.4 l 3.1,1.8 c 0.2,0.1 0.4,0.1 0.6,0 l 6.1,-3.6 c 0.6,-0.3 0.6,-1.1 0,-1.4 l -3.1,-1.8 c -0.2,-0.1 -0.4,-0.1 -0.6,0"
   inkscape:connector-curvature="0"
   style="clip-rule:evenodd;fill:#3e4443;fill-rule:evenodd" />
		<path
   id="XMLID_54_"
   d="m 820.1,558.5 c -3.1,1.8 -3.1,4.6 0,6.4 3,1.8 8,1.8 11.1,0 3.1,-1.8 3.1,-4.6 0,-6.4 -3.1,-1.7 -8,-1.7 -11.1,0"
   inkscape:connector-curvature="0"
   style="clip-rule:evenodd;fill:#5d6261;fill-rule:evenodd" />
		<polygon
   id="XMLID_53_"
   points="902.9,406.3 752.2,319.6 763.8,312.9 775.3,306.3 926,393 914.4,399.6 "
   style="clip-rule:evenodd;fill:#b8bbbb;fill-rule:evenodd" />
		<polygon
   id="XMLID_52_"
   points="1004.9,343.6 862.4,260.7 765.1,316.9 907.7,399.7 "
   style="clip-rule:evenodd;fill:#484e4d;fill-rule:evenodd" />
		<polygon
   id="XMLID_51_"
   points="998.6,328.3 1001.8,326.5 1001.8,345.4 998.6,343.7 "
   style="clip-rule:evenodd;fill:#484e4d;fill-rule:evenodd" />
		<polygon
   id="XMLID_50_"
   points="1004.9,324.7 862.4,241.8 765.1,298 907.7,380.8 "
   style="clip-rule:evenodd;fill:#484e4d;fill-rule:evenodd" />
		<polygon
   id="XMLID_49_"
   points="1004.9,324.7 907.7,380.8 907.7,384.6 1004.9,328.3 "
   style="clip-rule:evenodd;fill:#2d3534;fill-rule:evenodd" />
		<polygon
   id="XMLID_48_"
   points="907.7,380.8 907.7,384.6 765.1,301.8 765.1,298 "
   style="clip-rule:evenodd;fill:#2d3534;fill-rule:evenodd" />
		<polygon
   id="XMLID_47_"
   points="1004.9,343.5 907.7,399.7 907.7,403.5 1004.9,347.2 "
   style="clip-rule:evenodd;fill:#2d3534;fill-rule:evenodd" />
		<polygon
   id="XMLID_46_"
   points="907.7,399.7 907.7,403.5 765.1,320.7 765.1,316.8 "
   style="clip-rule:evenodd;fill:#2d3534;fill-rule:evenodd" />
		<polygon
   id="XMLID_45_"
   points="1004.9,324.7 1001.8,326.5 1001.8,349 1004.9,347.2 "
   style="clip-rule:evenodd;fill:#2d3534;fill-rule:evenodd" />
		<polygon
   id="XMLID_44_"
   points="998.6,331.9 907.7,384.6 907.7,396.2 998.6,343.7 "
   style="clip-rule:evenodd;fill:#dbd2d1;fill-rule:evenodd" />
		<polygon
   id="XMLID_43_"
   points="770.4,304.8 907.8,384.6 907.8,396.2 770.4,316.6 "
   style="clip-rule:evenodd;fill:#d2c8c6;fill-rule:evenodd" />
		<polygon
   id="XMLID_42_"
   points="988.9,333.9 988.9,337.7 992.3,335.7 992.3,331.9 "
   style="clip-rule:evenodd;fill:#72190a;fill-rule:evenodd" />
		<polygon
   id="XMLID_41_"
   points="846.3,251.1 988.9,333.9 992.3,331.9 849.7,249.1 "
   style="clip-rule:evenodd;fill:#8c200c;fill-rule:evenodd" />
		<path
   id="XMLID_40_"
   d="m 399,622.9 c 24,0 43.4,9 43.4,20.2 0,11.2 -19.4,20.2 -43.4,20.2 -24,0 -43.4,-9 -43.4,-20.2 0,-11.1 19.4,-20.2 43.4,-20.2"
   inkscape:connector-curvature="0"
   style="clip-rule:evenodd;fill:#b8bbbb;fill-rule:evenodd" />
		<path
   id="XMLID_39_"
   d="m 441.1,588.8 v -1.6 0.1 -0.1 c 0,0 -63.8,0.2 -63.4,-0.2 v 59.1 0 c 0.3,4.5 3.4,9 9.3,12.4 12.4,7.2 32.5,7.2 44.8,0 5.9,-3.4 9,-7.9 9.2,-12.4 v 0 -57.3 z"
   inkscape:connector-curvature="0"
   style="clip-rule:evenodd;fill:#bcbebd;fill-rule:evenodd" />
		<path
   id="XMLID_38_"
   d="m 416.8,587.2 c -18,0 -39.3,0 -39,-0.2 v 59.1 0 c 0.3,4.5 3.4,9 9.3,12.4 8.1,4.7 19.4,6.3 29.7,4.9 z"
   inkscape:connector-curvature="0"
   style="clip-rule:evenodd;fill:#cdcfca;fill-rule:evenodd" />
		<path
   id="XMLID_37_"
   d="m 431.8,574.1 c 12.4,7.2 12.5,18.8 0.1,26 -12.3,7.2 -32.4,7.2 -44.8,0 -12.4,-7.2 -12.5,-18.8 -0.1,-26 12.3,-7.1 32.3,-7.1 44.8,0"
   inkscape:connector-curvature="0"
   style="clip-rule:evenodd;fill:#fcfaff;fill-rule:evenodd" />
		<path
   id="XMLID_36_"
   d="m 428.6,576 c 10.6,6.1 10.7,16.1 0.1,22.2 -10.6,6.1 -27.8,6.1 -38.4,0 -10.6,-6.1 -10.7,-16.1 -0.1,-22.2 10.5,-6.1 27.7,-6.2 38.4,0"
   inkscape:connector-curvature="0"
   style="clip-rule:evenodd;fill:#cdcfca;fill-rule:evenodd" />
		<path
   id="XMLID_35_"
   d="m 428.6,585.9 c -10.6,-6.1 -27.8,-6.1 -38.4,0 -3.1,1.8 -5.2,3.9 -6.5,6.1 1.3,2.3 3.5,4.4 6.6,6.2 10.6,6.1 27.8,6.1 38.4,0 3.1,-1.8 5.2,-3.9 6.5,-6.1 -1.3,-2.3 -3.5,-4.4 -6.6,-6.2"
   inkscape:connector-curvature="0"
   style="clip-rule:evenodd;fill:#412f25;fill-rule:evenodd" />
		<path
   id="XMLID_34_"
   d="m 384.7,593.6 c 1.3,1.7 3.2,3.3 5.6,4.7 10.6,6.1 27.8,6.1 38.4,0 2.4,-1.4 4.2,-2.9 5.5,-4.6 -1.3,-1.7 -3.2,-3.3 -5.6,-4.7 -10.6,-6.1 -27.8,-6.1 -38.4,0 -2.4,1.3 -4.2,2.9 -5.5,4.6"
   inkscape:connector-curvature="0"
   style="clip-rule:evenodd;fill:#523c2e;fill-rule:evenodd" />
		<path
   id="XMLID_33_"
   d="m 450.7,643.6 v 0 c -0.1,0 -0.3,0 -0.4,0 v 0 c -0.1,0 -0.3,0 -0.5,-0.1 v 0 c -0.2,-0.1 -0.3,-0.1 -0.5,-0.2 l -14.5,-8.4 -5.6,3.2 14.5,8.4 h 0.1 l 0.1,0.1 h 0.1 0.1 0.1 v 0 0 h 0.1 0.1 0.1 0.1 0.1 v 0 0 h 0.1 0.1 0.1 v 0 0 h 0.2 l 0.2,-0.1 5.6,-3.2 z"
   inkscape:connector-curvature="0"
   style="clip-rule:evenodd;fill:#dadcda;fill-rule:evenodd" />
		<path
   id="XMLID_32_"
   d="m 443.8,617.1 c 3.9,2.2 7,7.6 6.9,12 l -0.1,18.6 c 0,4.4 -3.1,6.2 -7,4 l -14.5,-8.4 v -5.2 l 14.5,8.4 c 1.4,0.8 2.5,0.2 2.5,-1.4 l 0.1,-18.6 c 0,-1.6 -1.1,-3.5 -2.5,-4.3 l -14.5,-8.4 v -5.2 z"
   inkscape:connector-curvature="0"
   style="clip-rule:evenodd;fill:#cdcfca;fill-rule:evenodd" />
		<path
   id="XMLID_31_"
   d="m 456.3,625.6 v -0.3 -0.2 -0.1 -0.1 -0.3 -0.4 0 0 l -0.1,-0.3 -0.1,-0.4 v -0.1 -0.1 -0.2 l -0.1,-0.4 -0.1,-0.3 v 0 0 l -0.1,-0.4 -0.1,-0.4 v -0.1 -0.1 l -0.1,-0.2 -0.1,-0.3 -0.1,-0.2 v 0 0 l -0.2,-0.3 -0.2,-0.4 v -0.1 -0.1 l -0.2,-0.3 -0.2,-0.4 -0.1,-0.2 v -0.1 l -0.2,-0.3 c -0.1,-0.2 -0.2,-0.3 -0.3,-0.4 V 618 c -0.1,-0.2 -0.3,-0.4 -0.4,-0.6 l -0.6,-0.4 -0.3,-0.3 v 0 0 l -0.3,-0.3 -0.3,-0.3 v 0 0 l -0.2,-0.2 -0.3,-0.3 -0.1,-0.1 -0.1,-0.1 -0.1,-0.1 -0.3,-0.3 -0.1,-0.1 -0.1,-0.1 -0.1,-0.1 -0.3,-0.2 -0.2,-0.2 v 0 0 l -0.3,-0.2 -0.3,-0.2 h -0.1 l -14.5,-8.4 -5.6,3.2 14.5,8.4 c 0.2,0.1 0.5,0.3 0.7,0.4 v 0 c 0.2,0.1 0.4,0.3 0.6,0.5 l 0.1,0.1 c 0.2,0.2 0.4,0.3 0.6,0.5 l 0.1,0.1 c 0.2,0.2 0.4,0.4 0.6,0.6 v 0.1 c 0.2,0.2 0.4,0.4 0.6,0.7 v 0 c 0.2,0.2 0.4,0.5 0.6,0.7 v 0 0 c 0.2,0.2 0.3,0.5 0.5,0.7 0.1,0.1 0.2,0.3 0.3,0.5 l 0.2,0.4 0.1,0.2 c 0.1,0.2 0.2,0.4 0.3,0.6 v 0.1 c 0.1,0.3 0.3,0.5 0.4,0.8 v 0 c 0.1,0.3 0.2,0.5 0.3,0.8 v 0.1 c 0.1,0.3 0.2,0.6 0.3,0.8 v 0.1 c 0.1,0.3 0.1,0.5 0.2,0.8 v 0.1 c 0.1,0.3 0.1,0.5 0.2,0.8 v 0 c 0,0.3 0.1,0.5 0.1,0.8 v 0.1 c 0,0.3 0,0.5 0,0.8 l -0.1,18.6 c 0,0.3 0,0.5 0,0.8 v 0.1 c 0,0.2 -0.1,0.4 -0.1,0.6 v 0.1 c 0,0.2 -0.1,0.4 -0.2,0.6 v 0.1 c -0.1,0.2 -0.1,0.3 -0.2,0.5 v 0.1 c -0.1,0.2 -0.2,0.3 -0.3,0.5 -0.1,0.2 -0.3,0.4 -0.5,0.6 l -0.1,0.1 c -0.2,0.2 -0.4,0.3 -0.6,0.4 l 5.6,-3.2 c 0.2,-0.1 0.4,-0.3 0.6,-0.4 l 0.1,-0.1 c 0.2,-0.2 0.3,-0.4 0.5,-0.6 v 0 c 0.1,-0.2 0.2,-0.3 0.3,-0.5 v 0 -0.1 l 0.1,-0.3 0.1,-0.2 v -0.1 -0.1 l 0.1,-0.4 v -0.1 -0.1 -0.1 -0.3 -0.2 -0.1 -0.1 -0.3 -0.3 0 l 0.1,-18.6 z"
   inkscape:connector-curvature="0"
   style="clip-rule:evenodd;fill:#fcfaff;fill-rule:evenodd" />
		<path
   d="m 1112.4,433.4 c 0,0 -0.1,0 -0.1,0.1 m 1.2,-1.1 c 0,0 0,0 0,0 0,0 0,0 0,0 z m -0.1,0.1 c 0.1,0 0.1,0 0,0 0.1,0 0.1,0 0,0 z m 0,0.1 c 0,0 0,0 0,0 0,0 0,0 0,0 z m -0.1,0.1 c 0,0 0,-0.1 0,0 0,-0.1 0,0 0,0 z m -0.1,0.1 c 0,-0.1 0,-0.1 0,0 0,-0.1 0,-0.1 0,0 z m -0.1,0 c 0,0 0.1,0 0,0 0.1,0 0,0 0,0 z m -0.1,0.1 c 0,0 0.1,0 0,0 0.1,0 0,0 0,0 z m -0.3,0.2 v 0 c 0,0 0.1,-0.1 0.1,-0.1 v 0 0 c 0,0 0.1,0 0.1,-0.1 v 0 c 0,0 0.1,0 0.1,-0.1 0,0 -0.1,0 -0.1,0.1 m -0.4,0.4 c 0.1,0 0.1,-0.1 0.2,-0.1 -0.1,0 -0.1,0 -0.2,0.1 z m -0.2,-5.1 -82.2,-47.8 c -2.5,-1.4 -6.5,-1.4 -9,0 l -33,18.7 c -2.9,1.7 -11,5.2 -6.7,9.2 0.2,0.1 0.3,0.2 0.5,0.4 l 0.3,0.2 h 0.1 l 85.3,49.6 c 0.4,0.2 0.8,0.4 1.3,0.6 l 0.1,0.1 0.3,0.1 c 0.2,0.1 0.4,0.1 0.6,0.2 l 0.2,0.1 c 0.2,0 0.4,0.1 0.5,0.1 h 0.2 0.1 c 0.2,0 0.5,0 0.7,0 h 0.3 0.2 0.2 c 0.2,0 0.4,0 0.6,0 h 0.2 0.2 0.2 c 0.2,0 0.4,-0.1 0.6,-0.1 h 0.2 0.2 l 0.3,-0.1 c 0.2,-0.1 0.4,-0.1 0.6,-0.2 l 0.2,-0.1 h 0.1 c 0.3,-0.1 0.6,-0.3 0.9,-0.4 l 35.6,-19.2 c 1.3,-0.7 1.9,-1.7 1.9,-2.6 v -6 c 0.1,-1.1 -0.5,-2.1 -1.8,-2.8 z"
   id="path17180"
   inkscape:connector-curvature="0"
   style="clip-rule:evenodd;fill:#b8bbbb;fill-rule:evenodd" />
		<path
   id="XMLID_19_"
   d="m 1119.8,423.9 -82.2,-47.8 c -2.5,-1.4 -6.5,-1.4 -9,0 L 994.2,396 c -2.5,1.4 -2.5,3.8 0,5.2 l 82.2,47.8 c 2.5,1.4 6.5,1.4 9,0 l 34.4,-19.9 c 2.5,-1.4 2.5,-3.8 0,-5.2"
   inkscape:connector-curvature="0"
   style="clip-rule:evenodd;fill:#d2d3d5;fill-rule:evenodd" />
		<path
   id="XMLID_18_"
   d="m 1092.7,433.3 c -2.2,1.2 -2.2,3.3 0,4.5 2.1,1.2 5.6,1.2 7.8,0 2.2,-1.2 2.2,-3.3 0,-4.5 -2.1,-1.3 -5.6,-1.3 -7.8,0"
   inkscape:connector-curvature="0"
   style="clip-rule:evenodd;fill:#b4b5b5;fill-rule:evenodd" />
		<polygon
   id="XMLID_17_"
   points="1000.8,402 1070.3,442.4 1108.6,420.4 1039,379.9 "
   style="clip-rule:evenodd;fill:#2f3635;fill-rule:evenodd" />
		<path
   id="XMLID_16_"
   d="m 1121.7,426.5 c 0,0.9 -0.6,1.9 -1.9,2.6 l -34.4,19.9 c -0.3,0.2 -0.6,0.3 -1,0.5 l -0.2,0.1 c -0.3,0.1 -0.6,0.2 -0.9,0.3 h -0.2 c -0.3,0.1 -0.7,0.1 -1,0.2 h -0.2 c -0.3,0 -0.7,0.1 -1.1,0.1 h -0.2 c -0.4,0 -0.7,0 -1.1,-0.1 h -0.2 c -0.3,0 -0.5,-0.1 -0.8,-0.1 -0.2,0 -0.4,-0.1 -0.6,-0.2 -0.2,0 -0.3,-0.1 -0.5,-0.1 -0.4,-0.2 -0.9,-0.3 -1.3,-0.6 l -82.2,-47.8 c -0.1,-0.1 -0.3,-0.2 -0.4,-0.3 -0.2,-0.1 -0.3,-0.2 -0.5,-0.3 -0.2,-0.2 -0.4,-0.4 -0.5,-0.6 l -0.1,-0.1 c -0.1,-0.2 -0.2,-0.4 -0.3,-0.6 v -0.1 c -0.1,-0.2 -0.1,-0.4 -0.1,-0.7 v 6 0.1 0.4 l 0.1,0.2 v 0.1 0.1 l 0.2,0.4 0.1,0.2 0.1,0.1 0.1,0.1 c 0.1,0.1 0.2,0.3 0.4,0.4 v 0 c 0.1,0.1 0.3,0.2 0.5,0.3 l 0.3,0.2 h 0.1 l 82.2,47.8 c 0.4,0.2 0.8,0.4 1.3,0.6 l 0.1,0.1 0.3,0.1 c 0.2,0.1 0.4,0.1 0.6,0.2 l 0.2,0.1 c 0.2,0 0.4,0.1 0.5,0.1 h 0.2 0.1 c 0.2,0 0.5,0 0.7,0 h 0.3 0.2 0.2 c 0.2,0 0.4,0 0.6,0 h 0.2 0.2 0.2 c 0.2,0 0.4,-0.1 0.6,-0.1 h 0.2 0.2 l 0.3,-0.1 c 0.2,-0.1 0.4,-0.1 0.6,-0.2 l 0.2,-0.1 h 0.1 c 0.3,-0.1 0.6,-0.3 0.9,-0.4 l 34.4,-19.9 c 1.3,-0.7 1.9,-1.7 1.9,-2.6 z"
   inkscape:connector-curvature="0"
   style="clip-rule:evenodd;fill:#b8bbbb;fill-rule:evenodd" />
		<path
   id="XMLID_15_"
   d="m 479.9,582.6 c -2,0 -3.9,-0.4 -5.7,-1.3 l -156.8,-91 c -3.9,-1.8 -5.8,-5.5 -5.8,-9.1 0,-3.7 2,-7.3 5.9,-9.1 L 485,375.9 v 205.7 c 0,0 0,0.1 0,0.1 -1.6,0.6 -3.3,0.9 -5.1,0.9"
   inkscape:connector-curvature="0"
   style="clip-rule:evenodd;fill:#b8bbbb;fill-rule:evenodd" />
		<path
   id="XMLID_14_"
   d="M 626.8,472.2 572.5,497 c -3.7,1.7 -4.3,6.7 -1,9.2 l 57.5,44 c 5.6,4.3 13.2,5.2 19.6,2.2 l 67.8,-40 c 4.5,-2 5.2,-11 0.5,-12.5 L 630.7,472 c -1.3,-0.4 -2.7,-0.3 -3.9,0.2"
   inkscape:connector-curvature="0"
   style="clip-rule:evenodd;fill:#f0f1f1;fill-rule:evenodd" />
		<path
   id="XMLID_13_"
   d="m 630.7,472 c -1.3,-0.4 -2.7,-0.3 -3.9,0.2 L 572.5,497 c -3.7,1.7 -4.3,6.7 -1,9.2 l 57.5,44 c 4.8,3.7 10.9,4.8 16.6,3.3 v -77 z"
   inkscape:connector-curvature="0"
   style="clip-rule:evenodd;fill:#e0dad7;fill-rule:evenodd" />
		<path
   id="XMLID_12_"
   d="m 630.7,472 c -1.3,-0.4 -2.7,-0.3 -3.9,0.2 L 572.5,497 c -3.7,1.7 -4.3,6.7 -1,9.2 l 57.5,44 c 0.7,0.5 1.4,1 2.2,1.4 v -79.4 z"
   inkscape:connector-curvature="0"
   style="clip-rule:evenodd;fill:#a5a098;fill-rule:evenodd" />
		<path
   id="XMLID_11_"
   d="m 626.8,468.5 -54.2,24.7 c -3.7,1.7 -4.3,6.7 -1,9.2 l 57.5,44 c 5.6,4.3 13.2,5.2 19.6,2.2 l 67.8,-40 c 4.5,-2 4.1,-8.5 -0.6,-10 l -85.2,-30.4 c -1.3,-0.3 -2.7,-0.3 -3.9,0.3"
   inkscape:connector-curvature="0"
   style="clip-rule:evenodd;fill:#cacdcd;fill-rule:evenodd" />
		<path
   id="XMLID_10_"
   d="m 636.5,470.3 c -1.3,-0.4 -2.7,-0.3 -3.9,0.2 l -54.2,24.7 c -3.7,1.7 -5.7,8.8 -2.5,11.3 l 35,26.2 73.9,-45.2 z"
   inkscape:connector-curvature="0"
   style="clip-rule:evenodd;fill:#b3b7b7;fill-rule:evenodd" />
		<path
   id="XMLID_9_"
   d="m 467.2,317.8 v 249 c 0,7.5 11.9,16.4 18.8,13.3 L 777,405.6 c 3.7,-1.7 6,-5.4 6,-9.4 l 5.9,-256.1 c 0,-7.5 -13.7,-11.8 -20.6,-8.6 L 479,299.4 c -7.2,3.3 -11.8,10.5 -11.8,18.4"
   inkscape:connector-curvature="0"
   style="clip-rule:evenodd;fill:#cacdcd;fill-rule:evenodd" />
		<path
   id="XMLID_8_"
   d="m 478.8,299.6 c -7,3.3 -11.6,10.4 -11.6,18.2 v 249 c 0,7.5 11.9,16.4 18.8,13.3 l 28.9,-13.9 V 305.1 Z"
   inkscape:connector-curvature="0"
   style="clip-rule:evenodd;fill:#bbb5ad;fill-rule:evenodd" />
		<path
   id="XMLID_7_"
   d="m 474.6,322.3 v 249 c 0,7.5 7.8,12.5 14.6,9.4 L 784.3,410.1 c 3.7,-1.7 6,-5.4 6,-9.4 V 145.4 c 0,-7.5 -7.8,-12.5 -14.6,-9.4 L 486.4,304 c -7.2,3.2 -11.8,10.4 -11.8,18.3"
   inkscape:connector-curvature="0"
   style="clip-rule:evenodd;fill:#212939;fill-rule:evenodd" />
		<path
   id="XMLID_6_"
   d="m 474.6,571.3 c 0,7.5 7.8,12.5 14.6,9.4 L 784.3,410.1 c 3.7,-1.7 6,-5.4 6,-9.4 V 367.1 L 474.6,547.2 Z"
   inkscape:connector-curvature="0"
   style="clip-rule:evenodd;fill:#f0f1f1;fill-rule:evenodd" />
		<path
   id="XMLID_5_"
   d="m 485,581.6 c -5.4,0 -10.3,-4.4 -10.3,-10.4 v -3.7 c 0,6 4.9,10.4 10.3,10.4 1.4,0 2.9,-0.3 4.3,-0.9 L 784.4,406.4 c 3.7,-1.7 6,-5.4 6,-9.4 v 3.7 c 0,4.1 -2.4,7.7 -6,9.4 L 489.3,580.7 c -1.5,0.6 -2.9,0.9 -4.3,0.9"
   inkscape:connector-curvature="0"
   style="clip-rule:evenodd;fill:#d7d3cf;fill-rule:evenodd" />
		<path
   id="XMLID_4_"
   d="m 488.4,321.5 v 199.6 c 0,3.1 3.3,5.2 6.1,3.9 l 281,-162.9 c 1.5,-0.7 2.5,-2.2 2.5,-3.9 V 158.6 c 0,-3.1 -3.2,-5.2 -6.1,-3.9 l -281,162.9 c -1.5,0.7 -2.5,2.2 -2.5,3.9"
   inkscape:connector-curvature="0"
   style="clip-rule:evenodd;fill:#323f56;fill-rule:evenodd" />
		<path
   id="XMLID_3_"
   d="m 488.4,321.5 v 199.6 c 0,2.1 1.5,3.7 3.3,4.2 L 777.2,156 c -1.1,-1.6 -3.3,-2.3 -5.3,-1.4 l -281,162.9 c -1.5,0.8 -2.5,2.3 -2.5,4"
   inkscape:connector-curvature="0"
   style="clip-rule:evenodd;fill:#3a475e;fill-rule:evenodd" />
		<path
   id="XMLID_2_"
   d="m 630.2,482 c -1.8,0 -3.5,-1.5 -3.5,-3.5 v -6.2 c 0,-1.4 0.8,-2.6 2,-3.1 l 4.7,-2.2 c 0.5,-0.2 1,-0.3 1.4,-0.3 1.8,0 3.5,1.5 3.5,3.5 v 6.2 c 0,1.4 -0.8,2.6 -2,3.1 l -4.7,2.2 c -0.5,0.2 -1,0.3 -1.4,0.3"
   inkscape:connector-curvature="0"
   style="clip-rule:evenodd;fill:#636b79;fill-rule:evenodd" />
	</g>
</g>
</svg>